<?xml version="1.0" encoding="UTF-8" standalone="no"?>
<!-- Created with Inkscape (http://www.inkscape.org/) -->
<svg xmlns:dc="http://purl.org/dc/elements/1.1/" xmlns:cc="http://creativecommons.org/ns#" xmlns:rdf="http://www.w3.org/1999/02/22-rdf-syntax-ns#" xmlns:svg="http://www.w3.org/2000/svg" xmlns="http://www.w3.org/2000/svg" xmlns:sodipodi="http://sodipodi.sourceforge.net/DTD/sodipodi-0.dtd" xmlns:inkscape="http://www.inkscape.org/namespaces/inkscape" width="580mm" height="350mm" viewBox="0 0 580.00001 350.00001" version="1.1" id="svg1161" inkscape:version="0.92.3 (2405546, 2018-03-11)" sodipodi:docname="yz-side-plate-right-02.svg">
  <defs id="defs1155"/>
  <sodipodi:namedview id="base" pagecolor="#ffffff" bordercolor="#666666" borderopacity="1.0" inkscape:pageopacity="0.0" inkscape:pageshadow="2" inkscape:zoom="0.52734195" inkscape:cx="1096.063" inkscape:cy="661.41732" inkscape:document-units="mm" inkscape:current-layer="svg1161" showgrid="false" inkscape:pagecheckerboard="true" gridtolerance="1" guidetolerance="1" inkscape:window-width="1215" inkscape:window-height="963" inkscape:window-x="542" inkscape:window-y="44" inkscape:window-maximized="0" units="mm" objecttolerance="1"/>
  <metadata id="metadata1158">
    <rdf:RDF>
      <cc:Work rdf:about="">
        <dc:format>image/svg+xml</dc:format>
        <dc:type rdf:resource="http://purl.org/dc/dcmitype/StillImage"/>
        <dc:title>@@title@@</dc:title>
        <dc:creator>
          <cc:Agent>
            <dc:title>x3300 &lt;x3300x@gmail.com&gt;</dc:title>
          </cc:Agent>
        </dc:creator>
        <dc:description>
Fabricators Design License draft v10.11.20

Copyright x3300 &lt;x3300x@gmail.com&gt;

Permission is hereby granted, free of charge, to any person obtaining
a copy of this design and associated documentation (the _Design_), to
deal in the Design without restriction, including without limitation
the rights to use, copy, modify, merge, publish, distribute,
sublicense, and/or sell copies of the Design, and to permit persons to
whom the Design is furnished to do so, subject to the following
conditions:

 The above copyright notice and this permission notice shall be
 included in all copies or substantial portions of the Design.

 If you modify the Design including creating additional or alternate
 documentation formats (images, drawings, text documents, etc.), you
 may copy and distribute your modified version of the Design in any
 form provided that you also do one of the following:

  Accompany the modified version of the Design with documentation
  which corresponds to and completely describes the modified version
  of the Design; or,

  Accompany the modified version of the Design with a written offer
  for documentation which corresponds to and completely describes the
  modified version of the Design.

THE DESIGN IS PROVIDED _AS IS_, WITHOUT WARRANTY OF ANY KIND,
EXPRESS OR IMPLIED, INCLUDING BUT NOT LIMITED TO THE WARRANTIES OF
MERCHANTABILITY, FITNESS FOR A PARTICULAR PURPOSE AND NONINFRINGEMENT.
IN NO EVENT SHALL THE AUTHORS OR COPYRIGHT HOLDERS BE LIABLE FOR ANY
CLAIM, DAMAGES OR OTHER LIABILITY, WHETHER IN AN ACTION OF CONTRACT,
TORT OR OTHERWISE, ARISING FROM, OUT OF OR IN CONNECTION WITH THE
DESIGN OR THE USE OR OTHER DEALINGS IN THE DESIGN.
        </dc:description>
        <dc:date>@@date@@</dc:date>
        <dc:rights>
          <cc:Agent>
            <dc:title>All Rights Reserved</dc:title>
          </cc:Agent>
        </dc:rights>
        <dc:publisher>
          <cc:Agent>
            <dc:title>@@publisher@@</dc:title>
          </cc:Agent>
        </dc:publisher>
        <dc:identifier>@@identifier@@</dc:identifier>
        <dc:source>@@source@@</dc:source>
        <dc:relation>@@relation@@</dc:relation>
        <dc:language>@@language@@</dc:language>
        <dc:subject>
          <rdf:Bag>
            <rdf:li>@@keywords@@</rdf:li>
          </rdf:Bag>
        </dc:subject>
        <dc:coverage>@@coverage@@</dc:coverage>
        <dc:contributor>
          <cc:Agent>
            <dc:title>@@contributors@@</dc:title>
          </cc:Agent>
        </dc:contributor>
        <cc:license rdf:resource="Fabricators Design License"/>
      </cc:Work>
    </rdf:RDF>
  </metadata>
  <g inkscape:groupmode="layer" id="layer2" inkscape:label="print" transform="translate(0,53.000012)" style="display:inline">
    <g id="g3844">
      <path inkscape:connector-curvature="0" style="display:inline;opacity:1;fill:#000000;fill-opacity:1;stroke:none;stroke-width:0.088;stroke-linecap:butt;stroke-linejoin:miter;stroke-miterlimit:4;stroke-dasharray:none;stroke-opacity:1" d="m 2122.9003,96.349414 c 18.5535,0.01 42.4541,-0.059 88.0153,-0.1576 2.1633,0 4.245,-0.588 6.057,-1.836 1.8119,-1.2481 3.4289,-3.4492 3.5253,-6.1325 0.01,-0.2 0.01,-0.3116 0,-0.3922 0.2228,-0.066 0.9594,-0.2619 2.2773,-0.2232 32.0759,0.9409 38.9169,0.7167 76.7401,1.0371 3.3398,0.028 6.4364,-2.304 7.3633,-4.8359 0.927,-2.5319 0.6259,-4.8122 -0.3219,-6.8652 -6.7478,-14.6153 -18.2375,-21.552 -30.748,-25.0801 -100.5705,-28.362299 -117.3126,-33.845299 -199.1077,-59.9100995 -18.3352,-5.8426005 -31.0707,-11.2209005 -39.4354,-16.0765005 -8.3647,-4.8556 -12.1603,-9.1444 -13.4141,-12.3512 -1.2538,-3.2068 -0.6325,-5.8629 1.5234,-9.3793 2.1559,-3.5163 5.9408,-7.3802 10.0195,-11.3238 18.4869,-17.8745 9.1724,-9.7569 21.3496,-20.7894 2.5455,-2.3063 3.9665,-5.4355 4.2577,-8.726602 0.2911,-3.2912 -0.8173,-7.1818 -4.0995,-9.3943 -10.1806,-6.862502 -13.3659,-8.726902 -24.1758,-14.835802 -5.2111,-2.9449 -10.94,-1.9305 -14.9567,-0.9023 -6.3019,1.6132 -12.9357,2.7817 -18.5415,4.9098 -2.803,1.0641 -5.4009,2.3746 -7.5308,4.3848 -2.13,2.0101 -3.677,4.886702 -3.9145,8.111602 -1.7193,23.339502 -3.8972,38.655702 -5.0059,67.642402 -1.0166,26.57430046 -2.0263,30.4665005 -4.576,45.836001 -1.4347,8.648499 -4.082,17.330399 -6.1696,26.398399 -1.1627,5.0501 -0.3307,9.9381 1.6753,13.8125 0.4935,0.9532 0.7767,2.1626 0.756,2.9823 -0.021,0.8197 -0.1998,1.0383 -0.3302,1.1446 a 3.9697527,3.9697527 0 0 0 -0.7519,0.8124 c -1.7689,2.5465 -2.8047,5.0138 -2.7889,7.5819 0.016,2.5682 1.3148,4.8816 2.8458,6.3263 3.0619,2.8894 6.8054,3.7469 9.203,4.6503 a 3.9697527,3.9697527 0 0 0 0.5607,0.1644 c 1.3232,0.2863 1.7792,0.5897 2.1462,0.9689 0.3669,0.3792 0.8044,1.0974 1.219,2.6737 0.6599,2.5089 2.0683,4.9781 4.3553,6.5878 2.287,1.6096 5.1333,2.2621 8.3282,2.2892 61.3388,0.5215 83.8694,0.7733 106.2715,0.8609 5.6005,0.022 11.1907,0.034 17.3752,0.037 z m 93.5074,-23.7463 c -0.2511,-5e-4 -0.5082,0 -0.7715,-0.015 -49.9042,-1.8371 -90.9295,-4.6728 -129.0035,-7.5665 21.6305,-0.3424 38.4209,-0.5644 72.9863,-0.7519 4.6092,-0.025 9.162,-0.5936 13.5723,-1.4707 7.5165,-1.4948 10.4776,-2.125 20.9413,-4.1878 1.2643,-0.2493 2.423,-0.6447 3.5135,-1.4372 1.0906,-0.7924 2.2183,-2.2458 2.2872,-4.0741 0.069,-1.8284 -0.9271,-3.3453 -1.9451,-4.2385 -1.018,-0.8932 -2.151,-1.4214 -3.4396,-1.8299 -20.1541,-6.389 -30.9202,-9.7346 -43.8867,-13.7971 17.7511,5.0867 36.0643,10.6439 63.8907,19.4397 8.3042,2.6249 11.7775,8.4174 11.7889,12.5956 0.01,2.0891 -0.7072,3.7689 -2.2794,5.0973 -1.474,1.2454 -3.8878,2.2439 -7.6544,2.2361 z" id="path1034" transform="rotate(-161.89122,1265.6075,199.2306)"/>
      <path id="path949" d="m 115.20861,308.22752 c -3.91419,-1.22748 -4.7439,-13.43736 -5.344,-9.57511 -0.1664,-8.77165 3.12999,-2.61966 -1.48759,-9.91698 -3.34421,-6.39371 -6.84073,-12.46365 -11.502024,-15.6587 -75.5825,-51.80773 -109.1902,-75.33305 -212.512896,-151.21335 -6.9137,-5.07743 -9.8698,-13.20837 -7.7424,-20.53368 2.1275,-7.325297 8.5235,-13.462739 17.8566,-17.159227 C -30.162504,54.322771 -2.2134042,44.356182 89.263296,13.092907 114.6093,4.4305766 135.00939,8.1097366 153.92691,17.643077 c 61.11979,30.800756 41.0305,20.45597 100.91561,52.201026 17.56957,9.313698 28.31068,17.339439 35.90708,32.868897 33.90849,69.31863 35.97071,76.05593 50.17021,115.35145 2.35439,6.5155 3.19461,13.19469 0.69958,19.33517 -2.49499,6.14051 -8.10569,10.94564 -16.37818,14.33857 -36.72761,15.06382 -44.93249,20.56789 -78.48211,35.82691 -10.69081,4.86235 -18.4518,6.95116 -29.71678,8.16586 -10.06833,1.08567 -20.66743,11.1188 -23.02643,27.85272 -0.35189,2.49647 -1.5521,3.81666 -2.92478,4.92672 -1.37271,1.11006 -3.3583,2.39641 -6.41109,1.4364 -22.88302,-7.19614 -46.66753,-14.53134 -69.47141,-21.71928 z" style="display:inline;opacity:1;fill:#001aff;stroke:none;stroke-width:0.26458332px;stroke-linecap:butt;stroke-linejoin:miter;stroke-opacity:1" inkscape:connector-curvature="0" transform="rotate(180,176.89286,146.18749)"/>
    </g>
  </g>
  <g inkscape:label="cut" inkscape:groupmode="layer" id="layer1" transform="translate(0,53.000012)" style="display:inline">
    <g id="g3838" transform="rotate(-180,176.89286,146.18749)">
      <g id="g913" style="display:inline;opacity:1;fill:#000000" transform="rotate(18.10878,509.74849,-6685.7053)">
        <g style="fill:#000000" id="g1044"/>
        <g style="fill:#000000" id="g1048"/>
      </g>
      <path inkscape:connector-curvature="0" id="path951" style="display:inline;opacity:1;fill:none;stroke:#ff00ff;stroke-width:0.17638889;stroke-linecap:butt;stroke-linejoin:miter;stroke-miterlimit:4;stroke-dasharray:none;stroke-opacity:1" d="m -103.7215,88.717702 c -16.6297,6.586411 -20.2617,20.950048 -9.0209,29.205318 103.3035958,75.86628 136.811596,99.31998 212.382396,151.11966 5.987604,4.10414 9.705504,10.99209 13.070924,17.42633 2.04888,3.91734 3.18169,4.51186 1.99689,12.87023 -0.1846,1.30162 0.28149,3.68946 1.9709,4.22196 22.78388,7.18164 46.56749,14.51957 69.46818,21.72123 1.13052,0.35555 2.8434,-1.09357 3.02512,-2.38283 2.60609,-18.48612 14.55229,-30.65272 27.34558,-32.03223 10.94061,-1.17973 17.82803,-3.0303 28.21522,-7.7546 33.41889,-15.19962 41.77589,-20.77431 78.65391,-35.8998 C 338.4391,241.03923 340.5627,231.4683 336.3199,219.72688 322.1105,180.40384 320.24511,174.13965 286.35661,104.86192 279.2339,90.300863 269.86281,83.341033 252.55181,74.164481 192.6553,42.413327 212.85402,52.815041 151.72579,22.009997 133.5618,12.856397 115.0819,9.4369966 90.845506,17.720097 -0.61870415,48.979093 -28.398504,58.885111 -103.7215,88.717702 Z"/>
      <path inkscape:connector-curvature="0" d="m 29.255396,271.5989 c 18.4916,6.80979 25.0184,-14.25334 8.7074,-25.95247 -51.0725,-36.63205 -65.7412,-46.07458 -116.9141,-79.11895 -4.4766,-2.89068 -8.6492,0.6291 -2.8226,4.58719 29.1518,19.80324 44.709,30.85153 98.021,69.15679 3.1946,2.29539 2.244,4.41498 -1.3023,3.98231 -10.5975002,-1.29303 -13.6182002,-1.61527 -21.2137002,-2.52917 -4.2772998,-0.51466 -8.5444998,-1.34942 -12.6464998,-2.66626 -40.2977,-12.93667 -56.699,-18.16094 -85.269296,-26.91706 -9.4279,-2.88941 -10.7574,2.336 -3.484,5.36162 39.496896,16.4301 82.920196,34.20828 136.924096,54.096 z M -187.5306,210.34132 c -0.2285,3.87786 1.5237,6.6784 6.5995,8.38615 116.281996,39.12384 85.346996,28.96633 200.909796,66.48001 2.6265,0.85262 5.7714,0.15502 6.6329,-2.19049 1.1872,-3.23233 3.6343,-3.60688 7.4282,-2.24181 30.16169,10.85241 36.6696,12.74429 72.538394,24.81143 3.8817,1.30588 5.39052,-2.40572 5.12112,-4.709 C 109.9652,286.05737 102.2485,277.19187 91.999486,270.31573 5.2105958,212.08833 -9.0935042,201.60597 -78.732104,151.41109 -141.7284,106.00402 -122.704,95.082072 -102.1376,85.083862 c 23.067796,-11.21423 11.831896,-6.460379 26.870696,-13.17739 4.1371,-1.84785 7.0545,-7.536019 4.2706,-11.11099 -7.5137,-9.648901 -9.7957,-12.218431 -18.1646,-21.377175 -2.7783,-3.04061 -7.5734,-3.98007 -11.265396,-4.22207 -13.3537,-0.87539 -26.5334,-3.6256 -29.9802,4.76953 -8.9331,21.757744 -15.7181,35.536056 -25.7314,62.606183 -9.257,25.02569 -11.6268,28.83659 -18.8006,42.60104 -4.214,8.0855 -9.4811,15.57702 -14.1872,23.38638 -2.1657,3.59395 -2.737,7.57204 -2.1839,10.96328 0.5482,3.36047 -0.4541,7.27244 -3.3684,8.3961 -8.297,6.27602 -1.2162,10.77251 3.123,14.25575 3.2104,1.87741 4.2617,4.13856 4.0244,8.16682 z" style="display:inline;opacity:1;fill:none;stroke:#ff00ff;stroke-width:0.17638889;stroke-linecap:butt;stroke-linejoin:miter;stroke-miterlimit:4;stroke-dasharray:none;stroke-opacity:1" id="path820"/>
    </g>
  </g>
</svg>
