<?xml version="1.0" encoding="UTF-8" standalone="no"?>
<!-- Created with Inkscape (http://www.inkscape.org/) -->
<svg xmlns:dc="http://purl.org/dc/elements/1.1/" xmlns:cc="http://creativecommons.org/ns#" xmlns:rdf="http://www.w3.org/1999/02/22-rdf-syntax-ns#" xmlns:svg="http://www.w3.org/2000/svg" xmlns="http://www.w3.org/2000/svg" xmlns:sodipodi="http://sodipodi.sourceforge.net/DTD/sodipodi-0.dtd" xmlns:inkscape="http://www.inkscape.org/namespaces/inkscape" width="580mm" height="350mm" viewBox="0 0 580 350.00001" version="1.1" id="svg1161" inkscape:version="0.92.3 (2405546, 2018-03-11)" sodipodi:docname="yz-side-plate-02-left.svg">
  <defs id="defs1155"/>
  <sodipodi:namedview id="base" pagecolor="#ffffff" bordercolor="#666666" borderopacity="1.0" inkscape:pageopacity="0.0" inkscape:pageshadow="2" inkscape:zoom="0.24748737" inkscape:cx="551.76499" inkscape:cy="608.57143" inkscape:document-units="mm" inkscape:current-layer="layer2" showgrid="false" inkscape:pagecheckerboard="true" gridtolerance="1" guidetolerance="1" inkscape:window-width="1215" inkscape:window-height="963" inkscape:window-x="542" inkscape:window-y="44" inkscape:window-maximized="0" units="mm" objecttolerance="1"/>
  <metadata id="metadata1158">
    <rdf:RDF>
      <cc:Work rdf:about="">
        <dc:format>image/svg+xml</dc:format>
        <dc:type rdf:resource="http://purl.org/dc/dcmitype/StillImage"/>
        <dc:title>@@title@@</dc:title>
        <dc:creator>
          <cc:Agent>
            <dc:title>x3300 &lt;x3300x@gmail.com&gt;</dc:title>
          </cc:Agent>
        </dc:creator>
        <dc:description>
Fabricators Design License draft v10.11.20

Copyright x3300 &lt;x3300x@gmail.com&gt;

Permission is hereby granted, free of charge, to any person obtaining
a copy of this design and associated documentation (the _Design_), to
deal in the Design without restriction, including without limitation
the rights to use, copy, modify, merge, publish, distribute,
sublicense, and/or sell copies of the Design, and to permit persons to
whom the Design is furnished to do so, subject to the following
conditions:

 The above copyright notice and this permission notice shall be
 included in all copies or substantial portions of the Design.

 If you modify the Design including creating additional or alternate
 documentation formats (images, drawings, text documents, etc.), you
 may copy and distribute your modified version of the Design in any
 form provided that you also do one of the following:

  Accompany the modified version of the Design with documentation
  which corresponds to and completely describes the modified version
  of the Design; or,

  Accompany the modified version of the Design with a written offer
  for documentation which corresponds to and completely describes the
  modified version of the Design.

THE DESIGN IS PROVIDED _AS IS_, WITHOUT WARRANTY OF ANY KIND,
EXPRESS OR IMPLIED, INCLUDING BUT NOT LIMITED TO THE WARRANTIES OF
MERCHANTABILITY, FITNESS FOR A PARTICULAR PURPOSE AND NONINFRINGEMENT.
IN NO EVENT SHALL THE AUTHORS OR COPYRIGHT HOLDERS BE LIABLE FOR ANY
CLAIM, DAMAGES OR OTHER LIABILITY, WHETHER IN AN ACTION OF CONTRACT,
TORT OR OTHERWISE, ARISING FROM, OUT OF OR IN CONNECTION WITH THE
DESIGN OR THE USE OR OTHER DEALINGS IN THE DESIGN.
        </dc:description>
        <dc:date>@@date@@</dc:date>
        <dc:rights>
          <cc:Agent>
            <dc:title>All Rights Reserved</dc:title>
          </cc:Agent>
        </dc:rights>
        <dc:publisher>
          <cc:Agent>
            <dc:title>@@publisher@@</dc:title>
          </cc:Agent>
        </dc:publisher>
        <dc:identifier>@@identifier@@</dc:identifier>
        <dc:source>@@source@@</dc:source>
        <dc:relation>@@relation@@</dc:relation>
        <dc:language>@@language@@</dc:language>
        <dc:subject>
          <rdf:Bag>
            <rdf:li>@@keywords@@</rdf:li>
          </rdf:Bag>
        </dc:subject>
        <dc:coverage>@@coverage@@</dc:coverage>
        <dc:contributor>
          <cc:Agent>
            <dc:title>@@contributors@@</dc:title>
          </cc:Agent>
        </dc:contributor>
        <cc:license rdf:resource="Fabricators Design License"/>
      </cc:Work>
    </rdf:RDF>
  </metadata>
  <g inkscape:groupmode="layer" id="layer2" inkscape:label="print" transform="translate(0,53.000012)" style="display:inline">
    <path inkscape:connector-curvature="0" style="display:inline;opacity:1;fill:#000000;stroke:none;stroke-width:0.08819444;stroke-linecap:butt;stroke-linejoin:miter;stroke-miterlimit:4;stroke-dasharray:none;stroke-opacity:1" d="m 149.56137,31.871498 c -5.9021,1.846609 -11.2346,3.524729 -16.5735,5.215279 -21.3556,6.762429 -42.787496,13.721159 -101.181396,32.50711 -3.0004,0.965279 -5.4557,2.407391 -7.1053,4.55604 -1.6496,2.148631 -2.2397,4.831879 -2.1241,7.36907 0.076,1.66058 -0.129,2.539469 -0.4008,3.079539 -0.2717,0.54004 -0.6786,1.01409 -1.893,1.70273 a 3.6384219,3.6384219 0 0 0 -0.4448,0.29866 c -2.0337,1.58848 -5.3147,3.52377 -7.3129,7.08258 -0.9991,1.77937 -1.527,4.26373 -0.8042,6.628734 0.7229,2.36493 2.3957,4.36484 4.8105,6.24248 a 3.6384219,3.6384219 0 0 0 0.8799,0.50474 c 0.2641,0.10589 0.5613,0.35177 0.8472,1.19224 0.2858,0.84053 0.3764,2.12934 0.1804,3.23803 -0.7462,4.22007 -0.095,9.05597 2.479,13.45871 4.6798,8.00479 9.7489,15.5429 13.781,23.39872 5.7255,11.15492 10.9254,22.1134 15.1012,34.13194 12.1272,34.90286 21.3848,59.17729 34.1419,89.1327 1.2734,2.9903 2.3898,5.35271 4.5119,7.16201 2.1222,1.80909 5.0719,2.34439 7.8928,2.07079 5.641896,-0.547 12.840096,-3.25951 26.975896,-6.54741 5.1754,-1.2038 9.3621,-5.26489 12.298,-7.977 13.6641,-12.6224 16.0638,-14.61849 25.0179,-23.91368 1.0848,-1.12612 2.0576,-2.3328 2.5834,-3.99901 0.5258,-1.66622 0.2832,-3.77399 -0.5807,-5.31694 -1.7279,-3.08589 -4.6816,-4.79044 -9.2752,-7.25763 -28.2664,-15.18184 -19.5156,-10.29255 -40.0813,-20.76159 -5.7614,-2.93282 -10.9678,-5.79136 -14.359196,-8.75609 -3.3914,-2.96479 -4.8878,-5.55138 -4.6311,-9.11376 0.2567,-3.56235 2.7104,-8.80084 9.294196,-15.85145 6.5839,-7.05062 17.1257,-15.81605 32.7009,-26.63296 70.5207,-48.976474 84.6753,-59.509854 172.2099,-116.563563 10.8435,-7.067661 19.65561,-17.00766 21.72621,-32.8730321 0.2807,-2.151009 -0.1025,-4.355488 -1.67341,-6.4059779 -1.57089,-2.050471 -5.03079,-3.296181 -8.10771,-2.306431 -36.00889,11.5833309 -42.59948,13.40699091 -72.93319,23.867671 -1.5701,0.54147 -2.4739,0.49421 -2.5357,0.476959 -0.062,-0.0172 0.072,0.31705 -0.2465,-0.586211 -0.8522,-2.4194581 -2.9495,-3.9678471 -4.9773,-4.5959681 -2.0279,-0.62815 -4.1285,-0.56968 -6.1325,0.0515 -43.5185,13.4895721 -66.3522,20.5502121 -84.0584,26.0904811 z m 96.2561,-5.464442 c 3.5808,-1.126811 6.1651,-0.89117 7.9258,-0.149329 1.8781,0.791311 3.0458,2.16381 3.6577,4.142529 1.2241,3.957261 -0.3458,10.494171 -7.4702,15.46198 -20.9015,14.574472 -35.3652,24.412741 -49.0618,33.513191 10.0119,-6.957589 17.1703,-11.883951 31.7273,-22.052439 1.1136,-0.777901 2.0452,-1.625391 2.7576,-2.793021 0.7125,-1.167659 1.2174,-2.933229 0.5981,-4.681961 -0.6194,-1.748739 -2.1498,-2.81528 -3.4403,-3.25107 -1.2907,-0.435769 -2.5234,-0.46572 -3.8115,-0.32589 -10.6027,1.150731 -13.6193,1.43116 -21.24,2.245392 -4.4745,0.478099 -8.9921,1.29418 -13.4043,2.646148 -32.2939,9.895282 -48.176,14.619131 -68.294,20.562702 35.0797,-13.94338 72.9043,-28.676602 119.3262,-45.074152 0.2475,-0.0879 0.4906,-0.169068 0.7293,-0.244189 z" id="path1063"/>
    <path inkscape:connector-curvature="0" style="display:inline;opacity:1;fill:#001aff;stroke:none;stroke-width:0.26458332px;stroke-linecap:butt;stroke-linejoin:miter;stroke-opacity:1" d="m 330.05566,-17.086604 c -3.91419,1.22748 -4.7439,13.4373609 -5.344,9.5751109 -0.1664,8.771649 3.13002,2.61966 -1.48759,9.91698 -3.3442,6.393709 -6.8407,12.4636191 -11.502,15.6587001 -75.5825,51.807719 -109.1902,75.333039 -212.512896,151.213353 -6.9137,5.07743 -9.8698,13.20837 -7.7424,20.53367 2.1275,7.32531 8.5235,13.46274 17.856596,17.15924 75.3612,29.84765 103.3103,39.81426 194.78701,71.07756 25.346,8.6623 45.74609,4.98319 64.66359,-4.5502 61.1198,-30.8007 41.03049,-20.45591 100.9156,-52.201 17.5696,-9.3137 28.31071,-17.33944 35.90711,-32.86889 33.90849,-69.31864 35.97071,-76.05594 50.17021,-115.351463 2.35439,-6.515489 3.19458,-13.194691 0.69958,-19.33516 -2.49499,-6.140511 -8.10569,-10.94563 -16.37818,-14.33857 -36.72761,-15.063811 -44.93252,-20.567912 -78.48211,-35.8269111 -10.69081,-4.862349 -18.45181,-6.95116 -29.71681,-8.16586 -10.0683,-1.085691 -20.6674,-11.1187999 -23.0264,-27.8527399 -0.35189,-2.49645 -1.5521,-3.81664 -2.92481,-4.9267 -1.37268,-1.11006 -3.35828,-2.39641 -6.41109,-1.4364 -22.88299,7.19614 -46.6675,14.53134 -69.47141,21.71928 z" id="path26-3"/>
  </g>
  <g inkscape:label="cut" inkscape:groupmode="layer" id="layer1" transform="translate(0,53.000012)" style="display:inline">
    <path inkscape:connector-curvature="0" d="m 243.79377,22.984117 c 18.5805,-6.56318 24.8265,14.584921 8.3614,26.06603 -51.5554,35.949339 -66.3484,45.195889 -117.9564,77.556523 -4.5146,2.83086 -8.64,-0.74411 -2.7613,-4.62433 29.4127,-19.41364 45.1155,-30.253994 98.9324,-67.846634 3.2249,-2.252689 2.3025,-4.38473 -1.2493,-3.999259 -10.6137,1.151951 -13.6385,1.433939 -21.2454,2.24671 -4.2838,0.45771 -8.5617,1.23563 -12.6808,2.49778 -40.4663,12.399399 -56.9357,17.40503 -85.6199,25.78028 -9.4655,2.763729 -10.725396,-2.47891 -3.4124,-5.407469 39.712,-15.90321 83.368,-33.102132 137.6317,-52.269631 z M 26.210174,81.354928 c -0.1769,-3.88059 1.6125,-6.657551 6.7105,-8.297621 C 149.71297,35.483936 118.64547,45.228956 234.69717,9.2560259 c 2.6376,-0.817589 5.773,-0.0782 6.6032,2.2785411 1.144,3.247858 3.586,3.65492 7.3977,2.340449 30.30341,-10.4502011 36.83589,-12.2552891 72.86211,-23.8442001 3.89869,-1.2541199 5.358,2.477241 5.05788,4.776729 -1.93109,14.795852 -9.76497,23.5579021 -20.1046,30.2970731 -87.55589,57.06764 -101.79109,67.655598 -172.29839,116.622752 -62.791696,43.60865 -45.811796,54.76074 -22.5812,66.58631 20.602,10.48751 11.7545,5.5485 40.0099,20.72445 8.8366,4.74612 9.9005,7.18473 6.3755,10.84397 -8.9099,9.24941 -11.1873,11.1274 -24.8674,23.76461 -2.8053,2.59149 -7.2466,6.31278 -10.6541,7.10539 -28.564796,6.64411 -30.367996,10.7991 -35.208996,-0.56819 -12.728,-29.8875 -21.9405,-54.04435 -34.051,-88.89924 -4.2582,-12.25553 -9.5449,-23.38025 -15.3035,-34.59967 -4.1635,-8.11165 -9.2731,-15.70177 -13.8748,-23.57308 -2.1178,-3.62241 -2.6361,-7.60775 -2.0379,-10.99134 0.5928,-3.35288 -0.3573,-7.27782 -3.2565,-8.44016 -8.2127,-6.385854 -1.0727,-10.787754 3.3125,-14.212944 3.2351,-1.83454 4.3164,-4.08151 4.1326,-8.112548 z" style="display:inline;opacity:1;fill:none;stroke:#ff00ff;stroke-width:0.17638889;stroke-linecap:butt;stroke-linejoin:miter;stroke-miterlimit:4;stroke-dasharray:none;stroke-opacity:1" id="path897-6"/>
    <path inkscape:connector-curvature="0" id="path1218-2" style="display:inline;opacity:1;fill:none;stroke:#ff00ff;stroke-width:0.17638889;stroke-linecap:butt;stroke-linejoin:miter;stroke-miterlimit:4;stroke-dasharray:none;stroke-opacity:1" d="m 111.12557,202.42321 c -16.629696,-6.5864 -20.261696,-20.95005 -9.0209,-29.20531 103.3036,-75.866294 136.8116,-99.319983 212.38241,-151.119663 5.9876,-4.10414 9.70549,-10.992091 13.07089,-17.4263291 2.0489,-3.91734199 3.18169,-4.51189199 1.99691,-12.87023 -0.1846,-1.301621 0.28149,-3.6894609 1.97089,-4.2219619 22.7839,-7.18164 46.56751,-14.51957 69.4682,-21.72123 1.13051,-0.35555 2.8434,1.09357 3.02512,2.38283 2.60609,18.48612 14.55229,30.6527209 27.34558,32.03223991 10.9406,1.17971899 17.828,3.03028899 28.2152,7.75459099 33.41891,15.1996201 41.7759,20.7743191 78.6539,35.8997991 15.05241,6.173711 17.17601,15.744672 12.9332,27.486081 -14.20939,39.323043 -16.07478,45.587243 -49.9633,114.864973 -7.12269,14.56105 -16.49379,21.52089 -33.80478,30.69743 -59.89651,31.75117 -39.69782,21.34947 -100.82602,52.15446 -18.16399,9.15361 -36.64389,12.573 -60.88031,4.2899 -91.46419,-31.25898 -119.24399,-41.16498 -194.56699,-70.99758 z"/>
  </g>
</svg>
