<?xml version="1.0" encoding="UTF-8" standalone="no"?>
<!-- Created with Inkscape (http://www.inkscape.org/) -->
<svg xmlns:dc="http://purl.org/dc/elements/1.1/" xmlns:cc="http://creativecommons.org/ns#" xmlns:rdf="http://www.w3.org/1999/02/22-rdf-syntax-ns#" xmlns:svg="http://www.w3.org/2000/svg" xmlns="http://www.w3.org/2000/svg" xmlns:sodipodi="http://sodipodi.sourceforge.net/DTD/sodipodi-0.dtd" xmlns:inkscape="http://www.inkscape.org/namespaces/inkscape" width="475mm" height="200mm" viewBox="0 0 475.00001 200" version="1.1" id="svg964" inkscape:version="0.92.3 (2405546, 2018-03-11)" sodipodi:docname="swingarm-96.svg">
  <defs id="defs958"/>
  <sodipodi:namedview id="base" pagecolor="#ffffff" bordercolor="#666666" borderopacity="1.0" inkscape:pageopacity="0.0" inkscape:pageshadow="2" inkscape:zoom="0.78038158" inkscape:cx="709.26841" inkscape:cy="377.95276" inkscape:document-units="mm" inkscape:current-layer="layer2" showgrid="false" units="mm" inkscape:pagecheckerboard="true" objecttolerance="1" gridtolerance="1" guidetolerance="1" inkscape:window-width="1597" inkscape:window-height="1025" inkscape:window-x="198" inkscape:window-y="100" inkscape:window-maximized="0" showguides="true" inkscape:guide-bbox="true"/>
  <metadata id="metadata961">
    <rdf:RDF>
      <cc:Work rdf:about="">
        <dc:format>image/svg+xml</dc:format>
        <dc:type rdf:resource="http://purl.org/dc/dcmitype/StillImage"/>
        <dc:title>@@title@@</dc:title>
        <dc:creator>
          <cc:Agent>
            <dc:title>x3300 &lt;x3300x@gmail.com&gt;</dc:title>
          </cc:Agent>
        </dc:creator>
        <dc:description>
Fabricators Design License draft v10.11.20

Copyright x3300 &lt;x3300x@gmail.com&gt;

Permission is hereby granted, free of charge, to any person obtaining
a copy of this design and associated documentation (the _Design_), to
deal in the Design without restriction, including without limitation
the rights to use, copy, modify, merge, publish, distribute,
sublicense, and/or sell copies of the Design, and to permit persons to
whom the Design is furnished to do so, subject to the following
conditions:

 The above copyright notice and this permission notice shall be
 included in all copies or substantial portions of the Design.

 If you modify the Design including creating additional or alternate
 documentation formats (images, drawings, text documents, etc.), you
 may copy and distribute your modified version of the Design in any
 form provided that you also do one of the following:

  Accompany the modified version of the Design with documentation
  which corresponds to and completely describes the modified version
  of the Design; or,

  Accompany the modified version of the Design with a written offer
  for documentation which corresponds to and completely describes the
  modified version of the Design.

THE DESIGN IS PROVIDED _AS IS_, WITHOUT WARRANTY OF ANY KIND,
EXPRESS OR IMPLIED, INCLUDING BUT NOT LIMITED TO THE WARRANTIES OF
MERCHANTABILITY, FITNESS FOR A PARTICULAR PURPOSE AND NONINFRINGEMENT.
IN NO EVENT SHALL THE AUTHORS OR COPYRIGHT HOLDERS BE LIABLE FOR ANY
CLAIM, DAMAGES OR OTHER LIABILITY, WHETHER IN AN ACTION OF CONTRACT,
TORT OR OTHERWISE, ARISING FROM, OUT OF OR IN CONNECTION WITH THE
DESIGN OR THE USE OR OTHER DEALINGS IN THE DESIGN.
        </dc:description>
        <dc:date>@@date@@</dc:date>
        <dc:rights>
          <cc:Agent>
            <dc:title>All Rights Reserved</dc:title>
          </cc:Agent>
        </dc:rights>
        <dc:publisher>
          <cc:Agent>
            <dc:title>@@publisher@@</dc:title>
          </cc:Agent>
        </dc:publisher>
        <dc:identifier>@@identifier@@</dc:identifier>
        <dc:source>@@source@@</dc:source>
        <dc:relation>@@relation@@</dc:relation>
        <dc:language>@@language@@</dc:language>
        <dc:subject>
          <rdf:Bag>
            <rdf:li>@@keywords@@</rdf:li>
          </rdf:Bag>
        </dc:subject>
        <dc:coverage>@@coverage@@</dc:coverage>
        <dc:contributor>
          <cc:Agent>
            <dc:title>@@contributors@@</dc:title>
          </cc:Agent>
        </dc:contributor>
        <cc:license rdf:resource="Fabricators Design License"/>
      </cc:Work>
    </rdf:RDF>
  </metadata>
  <g inkscape:groupmode="layer" id="layer2" inkscape:label="print" style="display:inline" transform="translate(0,-79.399994)">
    <path transform="translate(26.722917,26.850012)" sodipodi:type="inkscape:offset" inkscape:radius="3.7087657" inkscape:original="M 342.52344 80.007812 C 220.74917 80.293293 107.46316 80.334166 -12.791016 80.322266 C -13.701366 80.322176 -14.671362 80.796167 -15.419922 81.488281 C -16.168482 82.180388 -16.700853 83.096945 -16.689453 84.013672 C -16.494403 99.858912 -16.247953 104.57712 -16.251953 121.17383 C -16.252163 122.10035 -15.804113 123.08527 -15.132812 123.86328 C -14.461502 124.64128 -13.561922 125.21691 -12.632812 125.28711 C 98.301728 133.67085 171.04598 140.00451 271.57031 148.51758 C 273.48492 148.65451 277.31628 148.20978 276.82031 145.39453 C 272.71189 122.82878 289.24591 111.31942 303.17773 111.35742 C 321.32894 111.40699 335.91536 128.07071 327.92578 149.54688 C 326.97905 152.19528 328.8787 153.03521 330.54102 153.13281 C 334.24414 153.35022 335.86955 153.63362 339.92188 154.00391 C 343.97419 154.37422 347.91721 154.65943 349.75 154.40234 C 376.25711 150.68406 384.53113 149.71308 416.41992 144.83594 L 416.42578 144.83398 L 416.43164 144.83398 C 418.17224 144.42573 420.0502 143.85197 421.48828 142.57031 C 422.92635 141.28865 423.90672 139.29864 423.85742 136.12305 C 423.51584 114.10817 423.729 117.48284 423.43945 104.9375 C 423.39048 102.81588 423.25332 100.76741 422.27344 99.033203 C 421.29357 97.299015 419.47159 95.900432 416.11914 95.080078 C 377.26593 85.572672 380.39499 87.008693 353.22656 80.849609 C 352.47572 80.679399 350.19064 80.473985 347.88281 80.304688 C 345.57498 80.135397 343.27285 80.005813 342.52344 80.007812 z " style="color:#000000;font-style:normal;font-variant:normal;font-weight:normal;font-stretch:normal;font-size:medium;line-height:normal;font-family:sans-serif;font-variant-ligatures:normal;font-variant-position:normal;font-variant-caps:normal;font-variant-numeric:normal;font-variant-alternates:normal;font-feature-settings:normal;text-indent:0;text-align:start;text-decoration:none;text-decoration-line:none;text-decoration-style:solid;text-decoration-color:#000000;letter-spacing:normal;word-spacing:normal;text-transform:none;writing-mode:lr-tb;direction:ltr;text-orientation:mixed;dominant-baseline:auto;baseline-shift:baseline;text-anchor:start;white-space:normal;shape-padding:0;clip-rule:nonzero;display:inline;overflow:visible;visibility:visible;opacity:1;isolation:auto;mix-blend-mode:normal;color-interpolation:sRGB;color-interpolation-filters:linearRGB;solid-color:#000000;solid-opacity:1;vector-effect:none;fill:#b8bcbf;fill-opacity:1;fill-rule:nonzero;stroke:none;stroke-width:0.08819444;stroke-linecap:butt;stroke-linejoin:miter;stroke-miterlimit:4;stroke-dasharray:none;stroke-dashoffset:0;stroke-opacity:1;paint-order:stroke fill markers;color-rendering:auto;image-rendering:auto;shape-rendering:auto;text-rendering:auto;enable-background:accumulate" id="path861" d="m 342.51367,76.298828 c -121.76894,0.285466 -235.05224,0.326353 -355.304686,0.314453 -2.19797,-2.17e-4 -3.845035,0.949032 -5.146484,2.152344 -1.302993,1.204728 -2.489835,2.911097 -2.460938,5.292969 0.195412,15.874627 0.441492,20.555406 0.4375,37.115236 -4.81e-4,2.12278 0.870075,3.77915 2.019532,5.11133 a 3.7091366,3.7091366 0 0 0 0,0.002 c 1.150785,1.33368 2.760705,2.52586 5.029297,2.69727 110.916063,8.38234 183.641379,14.71508 284.169919,23.22851 a 3.7091366,3.7091366 0 0 0 0.0488,0.004 c 1.41786,0.1014 3.15729,0.0811 5.14844,-0.70118 0.99557,-0.39112 2.12429,-1.01974 3.01367,-2.23242 0.88938,-1.21267 1.27235,-3.00747 1.00391,-4.53125 a 3.7091366,3.7091366 0 0 0 -0.004,-0.0215 c -1.87726,-10.31099 0.87911,-17.41946 5.46484,-22.28906 4.58574,-4.8696 11.29375,-7.39121 17.23438,-7.375 7.94339,0.0217 14.97507,3.65913 19.17187,9.51171 4.19681,5.85259 5.7377,13.92279 2.10938,23.67579 a 3.7091366,3.7091366 0 0 0 -0.0156,0.0449 c -0.77986,2.18161 -0.35852,5.09457 1.22461,6.64648 1.58313,1.55192 3.29595,1.81019 4.66602,1.89063 3.57826,0.21008 5.12616,0.48361 9.25976,0.86133 4.09758,0.37444 7.75052,0.78811 10.68164,0.37695 26.3767,-3.69999 34.85535,-4.70471 66.42969,-9.53125 h -0.26367 a 3.7091366,3.7091366 0 0 0 0.64258,-0.0606 3.7091366,3.7091366 0 0 0 0.25,-0.0508 c 1.91054,-0.44926 4.42146,-1.12271 6.63086,-3.0918 2.23658,-1.99332 3.67285,-5.31076 3.61133,-9.27343 -0.3413,-21.99683 -0.12976,-18.64287 -0.41993,-31.21485 -0.0514,-2.22628 -0.12223,-4.948383 -1.64453,-7.642576 C 423.97357,94.504028 420.99642,92.456451 417,91.478516 378.1077,81.961543 381.15396,83.3776 354.04688,77.232422 c -1.70568,-0.386665 -3.5446,-0.45471 -5.89258,-0.626953 -2.34878,-0.172295 -4.44127,-0.309736 -5.63868,-0.306641 z"/>
    <path d="m 342.51367,76.298828 c -121.76894,0.285466 -235.05224,0.326353 -355.304686,0.314453 -2.19797,-2.17e-4 -3.845035,0.949032 -5.146484,2.152344 -1.302993,1.204728 -2.489835,2.911097 -2.460938,5.292969 0.195412,15.874627 0.441492,20.555406 0.4375,37.115236 -4.81e-4,2.12278 0.870075,3.77915 2.019532,5.11133 a 3.7091366,3.7091366 0 0 0 0,0.002 c 1.150785,1.33368 2.760705,2.52586 5.029297,2.69727 110.916063,8.38234 183.641379,14.71508 284.169919,23.22851 a 3.7091366,3.7091366 0 0 0 0.0488,0.004 c 1.41786,0.1014 3.15729,0.0811 5.14844,-0.70118 0.99557,-0.39112 2.12429,-1.01974 3.01367,-2.23242 0.88938,-1.21267 1.27235,-3.00747 1.00391,-4.53125 a 3.7091366,3.7091366 0 0 0 -0.004,-0.0215 c -1.87726,-10.31099 0.87911,-17.41946 5.46484,-22.28906 4.58574,-4.8696 11.29375,-7.39121 17.23438,-7.375 7.94339,0.0217 14.97507,3.65913 19.17187,9.51171 4.19681,5.85259 5.7377,13.92279 2.10938,23.67579 a 3.7091366,3.7091366 0 0 0 -0.0156,0.0449 c -0.77986,2.18161 -0.35852,5.09457 1.22461,6.64648 1.58313,1.55192 3.29595,1.81019 4.66602,1.89063 3.57826,0.21008 5.12616,0.48361 9.25976,0.86133 4.09758,0.37444 7.75052,0.78811 10.68164,0.37695 26.3767,-3.69999 34.85535,-4.70471 66.42969,-9.53125 h -0.26367 a 3.7091366,3.7091366 0 0 0 0.64258,-0.0606 3.7091366,3.7091366 0 0 0 0.25,-0.0508 c 1.91054,-0.44926 4.42146,-1.12271 6.63086,-3.0918 2.23658,-1.99332 3.67285,-5.31076 3.61133,-9.27343 -0.3413,-21.99683 -0.12976,-18.64287 -0.41993,-31.21485 -0.0514,-2.22628 -0.12223,-4.948383 -1.64453,-7.642576 C 423.97357,94.504028 420.99642,92.456451 417,91.478516 378.1077,81.961543 381.15396,83.3776 354.04688,77.232422 c -1.70568,-0.386665 -3.5446,-0.45471 -5.89258,-0.626953 -2.34878,-0.172295 -4.44127,-0.309736 -5.63868,-0.306641 z" id="path873" style="color:#000000;font-style:normal;font-variant:normal;font-weight:normal;font-stretch:normal;font-size:medium;line-height:normal;font-family:sans-serif;font-variant-ligatures:normal;font-variant-position:normal;font-variant-caps:normal;font-variant-numeric:normal;font-variant-alternates:normal;font-feature-settings:normal;text-indent:0;text-align:start;text-decoration:none;text-decoration-line:none;text-decoration-style:solid;text-decoration-color:#000000;letter-spacing:normal;word-spacing:normal;text-transform:none;writing-mode:lr-tb;direction:ltr;text-orientation:mixed;dominant-baseline:auto;baseline-shift:baseline;text-anchor:start;white-space:normal;shape-padding:0;clip-rule:nonzero;display:inline;overflow:visible;visibility:visible;opacity:1;isolation:auto;mix-blend-mode:normal;color-interpolation:sRGB;color-interpolation-filters:linearRGB;solid-color:#000000;solid-opacity:1;vector-effect:none;fill:#b8bcbf;fill-opacity:1;fill-rule:nonzero;stroke:none;stroke-width:0.08819444;stroke-linecap:butt;stroke-linejoin:miter;stroke-miterlimit:4;stroke-dasharray:none;stroke-dashoffset:0;stroke-opacity:1;paint-order:stroke fill markers;color-rendering:auto;image-rendering:auto;shape-rendering:auto;text-rendering:auto;enable-background:accumulate" inkscape:original="M 342.52344 80.007812 C 220.74917 80.293293 107.46316 80.334166 -12.791016 80.322266 C -13.701366 80.322176 -14.671362 80.796167 -15.419922 81.488281 C -16.168482 82.180388 -16.700853 83.096945 -16.689453 84.013672 C -16.494403 99.858912 -16.247953 104.57712 -16.251953 121.17383 C -16.252163 122.10035 -15.804113 123.08527 -15.132812 123.86328 C -14.461502 124.64128 -13.561922 125.21691 -12.632812 125.28711 C 98.301728 133.67085 171.04598 140.00451 271.57031 148.51758 C 273.48492 148.65451 277.31628 148.20978 276.82031 145.39453 C 272.71189 122.82878 289.24591 111.31942 303.17773 111.35742 C 321.32894 111.40699 335.91536 128.07071 327.92578 149.54688 C 326.97905 152.19528 328.8787 153.03521 330.54102 153.13281 C 334.24414 153.35022 335.86955 153.63362 339.92188 154.00391 C 343.97419 154.37422 347.91721 154.65943 349.75 154.40234 C 376.25711 150.68406 384.53113 149.71308 416.41992 144.83594 L 416.42578 144.83398 L 416.43164 144.83398 C 418.17224 144.42573 420.0502 143.85197 421.48828 142.57031 C 422.92635 141.28865 423.90672 139.29864 423.85742 136.12305 C 423.51584 114.10817 423.729 117.48284 423.43945 104.9375 C 423.39048 102.81588 423.25332 100.76741 422.27344 99.033203 C 421.29357 97.299015 419.47159 95.900432 416.11914 95.080078 C 377.26593 85.572672 380.39499 87.008693 353.22656 80.849609 C 352.47572 80.679399 350.19064 80.473985 347.88281 80.304688 C 345.57498 80.135397 343.27285 80.005813 342.52344 80.007812 z " inkscape:radius="3.7087657" sodipodi:type="inkscape:offset" transform="matrix(-1,0,0,1,433.89228,114.69172)"/>
  </g>
  <g inkscape:label="cut" inkscape:groupmode="layer" id="layer1" transform="translate(0,-96.999982)" sodipodi:insensitive="true">
    <path sodipodi:nodetypes="cccccccccccccscscccccccscc" inkscape:connector-curvature="0" id="path1447" d="m 91.369868,212.30065 c -0.74941,-0.002 -3.05257,0.1263 -5.3604,0.29559 -2.30783,0.1693 -4.59199,0.37446 -5.34283,0.54467 -27.16843,6.15912 -24.03907,4.72423 -62.892281,14.23169 -3.352449,0.82036 -5.174789,2.21801 -6.154659,3.95221 -0.97988,1.73421 -1.11789,3.78345 -1.16686,5.90507 -0.28955,12.54534 -0.077,9.16978 -0.41858,31.18466 -0.0493,3.17559 0.93181,5.16549 2.36988,6.44715 1.43808,1.28166 3.31698,1.85621 5.057579,2.26446 l 0.005,10e-4 0.005,0.001 c 31.888791,4.87714 40.163751,5.84755 66.670861,9.56583 1.83279,0.25709 5.77499,-0.0276 9.82731,-0.39791 4.05232,-0.37029 5.679246,-0.65334 9.382372,-0.87075 1.66232,-0.0976 3.56051,-0.93691 2.61379,-3.58531 -7.989589,-21.47617 6.59769,-38.14035 24.74891,-38.18992 13.93182,-0.038 30.46596,11.47041 26.35754,34.03616 -0.49597,2.81525 3.33572,3.26077 5.25033,3.12384 100.52433,-8.51307 173.26883,-14.84739 284.20337,-23.23113 0.92911,-0.0702 1.82776,-0.64569 2.49907,-1.42369 0.6713,-0.77801 1.12003,-1.76324 1.11982,-2.68976 -0.004,-16.59671 0.24265,-21.31416 0.4377,-37.15949 0.0114,-0.91673 -0.52216,-1.83331 -1.27072,-2.52542 -0.74856,-0.69212 -1.71841,-1.16643 -2.62876,-1.16634 -120.25417,0.0119 -233.539,-0.0282 -355.313272,-0.31368 z" style="color:#000000;font-style:normal;font-variant:normal;font-weight:normal;font-stretch:normal;font-size:medium;line-height:normal;font-family:sans-serif;font-variant-ligatures:normal;font-variant-position:normal;font-variant-caps:normal;font-variant-numeric:normal;font-variant-alternates:normal;font-feature-settings:normal;text-indent:0;text-align:start;text-decoration:none;text-decoration-line:none;text-decoration-style:solid;text-decoration-color:#000000;letter-spacing:normal;word-spacing:normal;text-transform:none;writing-mode:lr-tb;direction:ltr;text-orientation:mixed;dominant-baseline:auto;baseline-shift:baseline;text-anchor:start;white-space:normal;shape-padding:0;clip-rule:nonzero;display:inline;overflow:visible;visibility:visible;opacity:1;isolation:auto;mix-blend-mode:normal;color-interpolation:sRGB;color-interpolation-filters:linearRGB;solid-color:#000000;solid-opacity:1;vector-effect:none;fill:none;fill-opacity:1;fill-rule:nonzero;stroke:#ff00ff;stroke-width:0.08819444;stroke-linecap:butt;stroke-linejoin:miter;stroke-miterlimit:4;stroke-dasharray:none;stroke-dashoffset:0;stroke-opacity:1;paint-order:stroke fill markers;color-rendering:auto;image-rendering:auto;shape-rendering:auto;text-rendering:auto;enable-background:accumulate"/>
    <path style="color:#000000;font-style:normal;font-variant:normal;font-weight:normal;font-stretch:normal;font-size:medium;line-height:normal;font-family:sans-serif;font-variant-ligatures:normal;font-variant-position:normal;font-variant-caps:normal;font-variant-numeric:normal;font-variant-alternates:normal;font-feature-settings:normal;text-indent:0;text-align:start;text-decoration:none;text-decoration-line:none;text-decoration-style:solid;text-decoration-color:#000000;letter-spacing:normal;word-spacing:normal;text-transform:none;writing-mode:lr-tb;direction:ltr;text-orientation:mixed;dominant-baseline:auto;baseline-shift:baseline;text-anchor:start;white-space:normal;shape-padding:0;clip-rule:nonzero;display:inline;overflow:visible;visibility:visible;opacity:1;isolation:auto;mix-blend-mode:normal;color-interpolation:sRGB;color-interpolation-filters:linearRGB;solid-color:#000000;solid-opacity:1;vector-effect:none;fill:none;fill-opacity:1;fill-rule:nonzero;stroke:#ff00ff;stroke-width:0.08819444;stroke-linecap:butt;stroke-linejoin:miter;stroke-miterlimit:4;stroke-dasharray:none;stroke-dashoffset:0;stroke-opacity:1;paint-order:stroke fill markers;color-rendering:auto;image-rendering:auto;shape-rendering:auto;text-rendering:auto;enable-background:accumulate" d="m 369.24559,124.45854 c 0.74941,-0.002 3.05257,0.1263 5.3604,0.29559 2.30783,0.1693 4.59199,0.37446 5.34283,0.54467 27.16843,6.15908 24.03907,4.7242 62.89228,14.23161 3.35245,0.82035 5.17479,2.218 6.15466,3.95219 0.97988,1.7342 1.11789,3.78344 1.16686,5.90506 0.28955,12.54534 0.077,9.16978 0.41858,31.18466 0.0493,3.17559 -0.93181,5.16549 -2.36988,6.44715 -1.43808,1.28166 -3.31698,1.85621 -5.05758,2.26446 l -0.005,0.001 -0.005,0.001 c -31.88879,4.87714 -40.16375,5.84755 -66.67086,9.56583 -1.83279,0.25709 -5.77499,-0.0276 -9.82731,-0.39791 -4.05232,-0.37029 -5.67925,-0.65334 -9.38237,-0.87075 -1.66232,-0.0976 -3.56052,-0.93691 -2.61379,-3.58531 7.98958,-21.47617 -6.5977,-38.14035 -24.74891,-38.18992 -13.93182,-0.038 -30.46596,11.47041 -26.35754,34.03616 0.49597,2.81525 -3.33572,3.26077 -5.25033,3.12384 C 197.7683,184.4548 125.02379,178.12048 14.089255,169.73674 c -0.92911,-0.0702 -1.82776,-0.64569 -2.49907,-1.42369 -0.6713,-0.77801 -1.12003,-1.76324 -1.11982,-2.68976 0.004,-16.59671 -0.24265,-21.31416 -0.4377,-37.1594 -0.0114,-0.91672 0.52216,-1.8333 1.27072,-2.5254 0.74856,-0.69212 1.71841,-1.16643 2.62876,-1.16634 120.254175,0.0119 233.539005,-0.0282 355.313275,-0.31368 z" id="path1449" inkscape:connector-curvature="0" sodipodi:nodetypes="cccccccccccccscscccccccscc"/>
  </g>
</svg>
