<?xml version="1.0" encoding="UTF-8" standalone="no"?>
<!-- Created with Inkscape (http://www.inkscape.org/) -->
<svg xmlns:dc="http://purl.org/dc/elements/1.1/" xmlns:cc="http://creativecommons.org/ns#" xmlns:rdf="http://www.w3.org/1999/02/22-rdf-syntax-ns#" xmlns:svg="http://www.w3.org/2000/svg" xmlns="http://www.w3.org/2000/svg" xmlns:sodipodi="http://sodipodi.sourceforge.net/DTD/sodipodi-0.dtd" xmlns:inkscape="http://www.inkscape.org/namespaces/inkscape" width="250mm" height="100mm" viewBox="0 0 250.00001 100.00001" version="1.1" id="svg1161" inkscape:version="0.92.3 (2405546, 2018-03-11)" sodipodi:docname="hannah-bolts.svg">
  <defs id="defs1155"/>
  <sodipodi:namedview id="base" pagecolor="#ffffff" bordercolor="#666666" borderopacity="1.0" inkscape:pageopacity="0.0" inkscape:pageshadow="2" inkscape:zoom="0.88161979" inkscape:cx="459.61245" inkscape:cy="184.97374" inkscape:document-units="mm" inkscape:current-layer="layer3" showgrid="false" inkscape:pagecheckerboard="true" gridtolerance="1" guidetolerance="1" inkscape:window-width="1215" inkscape:window-height="963" inkscape:window-x="542" inkscape:window-y="44" inkscape:window-maximized="0" units="mm" objecttolerance="1"/>
  <metadata id="metadata1158">
    <rdf:RDF>
      <cc:Work rdf:about="">
        <dc:format>image/svg+xml</dc:format>
        <dc:type rdf:resource="http://purl.org/dc/dcmitype/StillImage"/>
        <dc:title>@@title@@</dc:title>
        <dc:creator>
          <cc:Agent>
            <dc:title>x3300 &lt;x3300x@gmail.com&gt;</dc:title>
          </cc:Agent>
        </dc:creator>
        <dc:description>
Fabricators Design License draft v10.11.20

Copyright x3300 &lt;x3300x@gmail.com&gt;

Permission is hereby granted, free of charge, to any person obtaining
a copy of this design and associated documentation (the _Design_), to
deal in the Design without restriction, including without limitation
the rights to use, copy, modify, merge, publish, distribute,
sublicense, and/or sell copies of the Design, and to permit persons to
whom the Design is furnished to do so, subject to the following
conditions:

 The above copyright notice and this permission notice shall be
 included in all copies or substantial portions of the Design.

 If you modify the Design including creating additional or alternate
 documentation formats (images, drawings, text documents, etc.), you
 may copy and distribute your modified version of the Design in any
 form provided that you also do one of the following:

  Accompany the modified version of the Design with documentation
  which corresponds to and completely describes the modified version
  of the Design; or,

  Accompany the modified version of the Design with a written offer
  for documentation which corresponds to and completely describes the
  modified version of the Design.

THE DESIGN IS PROVIDED _AS IS_, WITHOUT WARRANTY OF ANY KIND,
EXPRESS OR IMPLIED, INCLUDING BUT NOT LIMITED TO THE WARRANTIES OF
MERCHANTABILITY, FITNESS FOR A PARTICULAR PURPOSE AND NONINFRINGEMENT.
IN NO EVENT SHALL THE AUTHORS OR COPYRIGHT HOLDERS BE LIABLE FOR ANY
CLAIM, DAMAGES OR OTHER LIABILITY, WHETHER IN AN ACTION OF CONTRACT,
TORT OR OTHERWISE, ARISING FROM, OUT OF OR IN CONNECTION WITH THE
DESIGN OR THE USE OR OTHER DEALINGS IN THE DESIGN.
        </dc:description>
        <dc:date>@@date@@</dc:date>
        <dc:rights>
          <cc:Agent>
            <dc:title>All Rights Reserved</dc:title>
          </cc:Agent>
        </dc:rights>
        <dc:publisher>
          <cc:Agent>
            <dc:title>@@publisher@@</dc:title>
          </cc:Agent>
        </dc:publisher>
        <dc:identifier>@@identifier@@</dc:identifier>
        <dc:source>@@source@@</dc:source>
        <dc:relation>@@relation@@</dc:relation>
        <dc:language>@@language@@</dc:language>
        <dc:subject>
          <rdf:Bag>
            <rdf:li>@@keywords@@</rdf:li>
          </rdf:Bag>
        </dc:subject>
        <dc:coverage>@@coverage@@</dc:coverage>
        <dc:contributor>
          <cc:Agent>
            <dc:title>@@contributors@@</dc:title>
          </cc:Agent>
        </dc:contributor>
        <cc:license rdf:resource="Fabricators Design License"/>
      </cc:Work>
    </rdf:RDF>
  </metadata>
  <g inkscape:groupmode="layer" id="layer8" inkscape:label="print 3" style="display:inline" transform="translate(0,-331.79997)">
    <path sodipodi:nodetypes="cccccccccccccccc" inkscape:connector-curvature="0" id="path20265" d="m 92.872206,356.09428 c 4.400051,-5.88896 6.937591,-8.46702 12.957974,-15.71263 -26.614531,7.5924 -63.842826,19.8189 -82.352629,30.95127 -6.581502,13.46706 -11.239867,34.78787 -16.0637914,54.00343 8.6570684,-7.71149 22.1448034,-19.66476 33.6877164,-26.55917 -2.76815,5.16298 -5.013137,9.3396 -8.562034,17.48932 23.260911,-15.17396 49.263272,-28.1837 62.609025,-32.74632 -4.633671,4.80574 -9.841776,11.19616 -14.04782,17.09074 20.232063,-8.50481 35.022253,-12.54287 43.648393,-14.19243 -4.23761,3.27622 -8.28271,7.71677 -12.21679,10.99298 40.56656,-13.46799 93.87219,-22.47758 123.26558,-23.47869 -17.76573,-4.49448 -47.7804,-7.99601 -70.35471,-7.01445 5.81439,-3.00831 12.41386,-8.10299 18.6065,-11.18735 -15.92386,0.12141 -41.64011,3.84644 -46.49518,5.66894 5.87795,-4.9641 18.19597,-15.21713 24.09434,-19.25158 -20.6925,0.35307 -59.11007,10.94461 -68.776574,13.94594 z" style="display:inline;opacity:1;fill:#000000;fill-opacity:1;stroke:none;stroke-width:0.25;stroke-miterlimit:4;stroke-dasharray:none;stroke-dashoffset:0;stroke-opacity:1;paint-order:fill markers stroke"/>
  </g>
  <g inkscape:groupmode="layer" id="layer2" inkscape:label="print 2" transform="translate(0,-196.99998)" style="display:inline">
    <path style="display:inline;opacity:1;fill:#ff0000;fill-opacity:1;stroke:none;stroke-width:0.25;stroke-miterlimit:4;stroke-dasharray:none;stroke-dashoffset:0;stroke-opacity:1;paint-order:fill markers stroke" d="m 88.663513,225.08211 c 4.400053,-5.88896 6.625024,-8.57532 11.382797,-15.40006 -26.478274,7.35826 -54.840758,16.91007 -75.204013,27.37387 -6.581502,13.46706 -10.500265,29.42487 -14.692885,49.27174 8.657068,-9.00417 23.828282,-20.74607 35.371195,-27.40092 -2.76815,5.16299 -5.434007,9.86879 -8.982903,18.01849 24.313084,-15.17395 44.729683,-24.07715 61.231963,-29.69193 -4.633671,4.80574 -9.000046,9.82525 -13.206085,15.71983 20.232068,-8.50481 38.293228,-13.07204 46.919368,-14.7216 -4.23761,3.27622 -9.75575,7.92721 -13.68983,11.20342 41.06619,-13.35254 73.40366,-17.59826 104.74732,-20.95347 -18.05874,-3.61544 -40.89353,-5.08792 -63.19993,-4.91011 5.81439,-3.00831 10.73038,-6.41951 16.92302,-9.50387 -15.80733,0.35446 -38.70593,4.24349 -43.96996,5.24807 5.87795,-4.9641 16.72292,-14.58582 22.62129,-18.62027 -36.68554,3.72003 -56.584843,11.36548 -66.251347,14.36681 z" id="path20244" inkscape:connector-curvature="0" sodipodi:nodetypes="cccccccccccccccc"/>
  </g>
  <g inkscape:label="print 1" inkscape:groupmode="layer" id="layer1" transform="translate(0,-196.99998)" style="display:inline">
    <path style="display:inline;opacity:1;fill:#ffff00;fill-opacity:1;stroke:none;stroke-width:0.25;stroke-miterlimit:4;stroke-dasharray:none;stroke-dashoffset:0;stroke-opacity:1;paint-order:fill markers stroke" d="M 26.837574,239.18013 C 47.524416,228.81456 70.463212,220.90566 94.156316,213.81964 L 81.991515,228.871 C 127.08416,215.40972 133.5096,215.63016 147.5577,213.51036 l -22.78322,19.89667 c 15.13946,-2.89746 31.63329,-6.16372 42.57679,-6.70096 l -15.36063,8.86586 c 25.71226,-0.67381 42.99492,1.33891 59.1745,2.78347 -20.73088,1.78305 -44.91641,3.78375 -83.91645,15.77302 l 12.16479,-9.69062 c -12.07002,2.35006 -27.56024,5.72494 -48.968464,14.02045 l 15.669904,-17.21627 c -16.000494,5.94809 -37.21787,13.15874 -64.84454,29.79344 l 10.721515,-18.65956 c -15.732636,8.92973 -27.907989,17.39301 -38.143848,26.59759 7.230373,-26.91715 8.902661,-31.1351 12.989527,-39.79332 z" id="path19415" inkscape:connector-curvature="0" sodipodi:nodetypes="cccccccccccccccc"/>
  </g>
  <g inkscape:groupmode="layer" id="layer3" inkscape:label="text">
    <g aria-label="Bob Hannah" transform="matrix(1.1425882,0,0,1.1425882,-359.00017,-1139.4954)" style="font-style:normal;font-variant:normal;font-weight:normal;font-stretch:normal;font-size:13.89303207px;line-height:1.25;font-family:'The Doctor';-inkscape-font-specification:'The Doctor';letter-spacing:0px;word-spacing:0px;display:inline;opacity:1;fill:#000000;fill-opacity:1;stroke:none;stroke-width:0.21707863" id="text12">
      <path inkscape:connector-curvature="0" d="m 448.54806,1061.8477 q 0.0972,-0.014 0.18061,0.042 0.0834,0.056 0.0972,0.1667 0.0278,0.097 -0.0278,0.1806 -0.0556,0.083 -0.15283,0.097 -1.09755,0.2361 -1.9867,0.4307 -0.0139,0.5418 -0.31954,1.1809 -0.5974,1.2503 -2.11174,2.6118 -1.50045,1.3755 -3.48715,2.3758 -2.65357,1.3059 -5.01539,1.8061 -2.3757,0.5001 -3.82058,0.2083 -1.3893,-0.2639 -1.58381,-1.1114 -0.1945,-0.8753 1.05588,-1.945 1.23647,-1.042 3.75111,-2.1395 0.25008,-0.4307 0.52794,-0.917 0.27786,-0.4723 0.61129,-1.0559 0.33344,-0.5696 0.51404,-0.903 2.7925,-4.8765 3.8067,-6.8354 0.0556,-0.083 0.15282,-0.1111 0.0972,-0.042 0.18061,0.014 0.0972,0.042 0.12504,0.1389 0.0278,0.097 -0.0139,0.1945 -1.15312,2.1951 -3.15372,5.6823 1.33374,-1.8617 2.8064,-3.6678 1.15312,-1.3893 2.16731,-2.0701 1.01419,-0.6807 1.7922,-0.7085 0.98641,-0.042 1.37541,0.7641 0.36122,0.7641 -0.0556,1.8339 -0.30565,0.778 -1.01419,1.5699 -0.70855,0.778 -1.81999,1.4449 1.62548,-0.2362 2.50075,0.1111 0.7919,0.3057 0.9864,1.0281 1.47266,-0.3195 1.93113,-0.4168 z m -10.87824,1.2782 q -0.83358,1.1948 -1.47266,2.1812 4.01508,-1.5699 9.93352,-2.9315 -0.12504,-0.4723 -0.68076,-0.6807 -1.34763,-0.5141 -4.54302,0.4585 -0.44458,0.1528 -0.75023,0.25 -0.0973,0.028 -0.1945,-0.028 -0.0834,-0.056 -0.11115,-0.1389 -0.0278,-0.1111 0.0139,-0.1945 0.0556,-0.083 0.15282,-0.125 0.12504,-0.042 0.72244,-0.2362 1.95892,-0.6808 3.15372,-1.695 1.1948,-1.0141 1.5977,-2.0561 0.34732,-0.8753 0.0833,-1.431 -0.25007,-0.514 -0.90304,-0.5002 -0.68076,0.042 -1.61159,0.6808 -0.93084,0.6252 -1.98671,1.9311 -1.72273,2.084 -3.40379,4.5153 z m 8.22467,0.6113 q 0.22229,-0.4863 0.26397,-0.8614 -6.46026,1.4866 -10.40588,3.1537 -1.12534,1.7366 -2.33403,3.8762 v 0.028 q -0.0556,0.083 -0.15282,0.1111 -0.0973,0.042 -0.18061,-0.014 -0.22229,-0.1111 -0.11115,-0.3334 0.58351,-1.1254 1.75053,-3.2232 -1.97281,0.9169 -3.02869,1.8061 -1.01419,0.8752 -0.88915,1.4588 0.11115,0.5279 1.1948,0.7224 1.3893,0.264 3.66776,-0.2223 2.26457,-0.4724 4.84867,-1.7505 1.91724,-0.9586 3.36211,-2.2646 1.44488,-1.3059 2.01449,-2.4868 z" style="font-style:normal;font-variant:normal;font-weight:normal;font-stretch:normal;font-size:13.89303207px;font-family:'The Doctor';-inkscape-font-specification:'The Doctor';fill:#000000;stroke-width:0.21707863" id="path1707"/>
      <path inkscape:connector-curvature="0" d="m 452.48674,1062.0283 q 0.0278,0.083 -0.0278,0.1806 -0.0417,0.097 -0.13893,0.1251 -0.83358,0.2639 -1.69495,0.4029 -0.13893,0.028 -0.43068,0.069 -0.18061,0.139 -0.31954,0.2223 -0.55572,0.3473 -1.08366,0.3473 -0.58351,0.014 -0.77801,-0.2917 -0.15282,-0.2362 -0.0417,-0.5141 0.0556,-0.2361 0.27786,-0.4584 0.30565,-0.3057 0.76412,-0.4585 0.45847,-0.1667 0.93083,-0.056 0.0139,0.014 0.0695,0.042 0.13893,-0.014 0.22229,0.014 0.45847,0.097 0.36122,0.5557 v 0.028 q 0.80579,-0.125 1.56991,-0.3751 0.0556,-0.014 0.0973,0 0.0556,0 0.0972,0.014 0.0417,0.014 0.0695,0.056 0.0417,0.042 0.0556,0.097 z m -3.70944,0.8614 q 0.27786,-0.014 0.55572,-0.1389 -0.4029,-0.139 -0.33343,-0.4724 0,-0.028 0.0417,-0.125 -0.25008,0.1111 -0.43069,0.3056 -0.13893,0.1528 -0.18061,0.264 -0.0139,0.055 0,0.083 0.0556,0.097 0.34733,0.083 z m 0.70854,-0.5141 h 0.0139 q 0.0139,-0.028 0.0139,-0.042 -0.0278,0.028 -0.0278,0.042 z m 0.50015,-0.056 q 0.0972,-0.1112 0.12504,-0.1945 -0.13893,0 -0.38901,0.097 -0.0278,0.014 -0.0833,0.042 -0.0417,0.028 -0.0695,0.042 h 0.0139 q 0.16672,0.028 0.4029,0.014 z" style="font-style:normal;font-variant:normal;font-weight:normal;font-stretch:normal;font-size:13.89303207px;font-family:'The Doctor';-inkscape-font-specification:'The Doctor';fill:#000000;stroke-width:0.21707863" id="path1709"/>
      <path inkscape:connector-curvature="0" d="m 457.41486,1061.8477 q 0.0695,-0.014 0.12503,0.014 0.0556,0.028 0.0973,0.083 0.0417,0.056 0.0556,0.125 0.0139,0.097 -0.0556,0.1806 -0.0556,0.083 -0.15283,0.097 -0.75022,0.097 -1.86166,0.3334 l -0.6113,0.125 q -0.52793,0.5002 -1.65327,0.8614 -0.68076,0.2084 -1.08365,0.1111 -0.23619,-0.055 -0.29176,-0.2639 -0.0556,-0.2084 0.13893,-0.3751 0.31954,-0.2779 1.33373,-0.5002 0.8058,-0.1806 1.30595,-0.2917 0.0278,-0.014 0.0556,-0.07 0.0556,-0.097 0.0417,-0.1111 -0.0278,-0.056 -0.23618,-0.056 -1.02809,-0.056 -2.987,1.2504 -0.0834,0.055 -0.18061,0.028 -0.0973,-0.014 -0.16672,-0.097 -0.0834,-0.1389 0,-0.2779 l 2.55632,-4.029 q 1.18091,-1.8616 1.97281,-2.2367 0.61129,-0.3057 0.7919,0.2362 0.12504,0.3612 -0.12504,1.0141 -0.31954,0.8614 -1.20869,1.9451 -0.88915,1.0836 -2.27846,2.0839 1.01419,-0.4446 1.63938,-0.4168 0.47236,0.028 0.63908,0.2779 0.0973,0.1667 0.0834,0.3473 l 0.16671,-0.042 q 1.05587,-0.2223 1.88946,-0.3473 z m -3.15372,-2.5841 -1.45877,2.2924 q 1.29205,-0.9309 2.09785,-1.9312 0.81969,-1.0142 1.12533,-1.7922 0.19451,-0.4862 0.12504,-0.6807 0,-0.014 -0.11114,0.042 -0.66687,0.3196 -1.77831,2.0701 z" style="font-style:normal;font-variant:normal;font-weight:normal;font-stretch:normal;font-size:13.89303207px;font-family:'The Doctor';-inkscape-font-specification:'The Doctor';fill:#000000;stroke-width:0.21707863" id="path1711"/>
      <path inkscape:connector-curvature="0" d="m 472.66702,1061.8477 q 0.0973,0 0.16671,0.07 0.0834,0.069 0.0834,0.1806 0,0.07 -0.0417,0.125 -0.0278,0.056 -0.0834,0.083 -0.0556,0.028 -0.12503,0.028 h -1.44488 q -0.54183,0.9864 -1.55602,2.7786 -1.68105,2.9592 -2.51464,4.5291 -0.25007,0.4724 -0.40289,0.903 -0.12504,0.3891 -0.12504,0.6252 0,0.097 -0.0834,0.1668 -0.0695,0.069 -0.16672,0.069 -0.0695,0 -0.12503,-0.042 -0.0556,-0.028 -0.0973,-0.083 -0.0278,-0.056 -0.0278,-0.1251 0.0139,-0.3473 0.15282,-0.778 0.15283,-0.4445 0.44458,-0.9725 0.5974,-1.1531 2.51464,-4.5291 0.93083,-1.6672 1.41709,-2.5424 h -0.6113 q -5.15431,0 -6.33522,0.055 l -4.02898,7.0438 q -0.0556,0.097 -0.15282,0.125 -0.0972,0.028 -0.18061,-0.028 -0.0972,-0.042 -0.12504,-0.1529 -0.0278,-0.097 0.0278,-0.1945 v -0.014 q 0.47236,-0.8752 0.75022,-1.6671 0.26397,-0.7919 0.31954,-1.4866 0.0556,-0.6946 0.0556,-1.0697 -0.0139,-0.3613 -0.0695,-0.917 -0.0417,-0.4168 -0.0556,-0.7363 -0.0139,-0.3057 0.12503,-0.5557 0.12504,-0.2501 0.44458,-0.4168 0.58351,-0.3335 2.598,-0.4168 l 3.25097,-5.6823 q 0.18061,-0.3473 0.25007,-0.4862 v -0.014 q 0.12504,-0.2501 0.18061,-0.5141 0.0278,-0.097 0.11115,-0.1528 0.0972,-0.056 0.1945,-0.028 0.0972,0.028 0.15282,0.1112 0.0556,0.083 0.0278,0.1806 -0.0556,0.2778 -0.2084,0.5974 l -0.0139,0.028 q -0.0972,0.2084 -0.27786,0.5279 l -3.08425,5.4044 q 1.12533,-0.028 6.04346,-0.028 h 0.88916 q 3.55661,-6.3908 3.23708,-6.9743 0,0 -0.27787,0.1389 -0.0833,0.056 -0.18061,0.028 -0.0972,-0.028 -0.15282,-0.1111 -0.0417,-0.097 -0.0278,-0.1945 0.0278,-0.1112 0.12503,-0.1528 0.70855,-0.4029 0.93084,0.042 0.13893,0.2501 -0.0417,0.917 -0.18061,0.6529 -0.65298,1.6949 -0.47236,1.0281 -1.04197,2.1118 -0.56962,1.0836 -1.34763,2.5007 z m -11.93412,4.7236 2.3896,-4.1679 q -1.61159,0.083 -2.07006,0.3474 -0.26396,0.1389 -0.29175,0.4584 -0.0417,0.3057 0.0278,0.7641 0.16671,1.5005 -0.0556,2.598 z" style="font-style:normal;font-variant:normal;font-weight:normal;font-stretch:normal;font-size:13.89303207px;font-family:'The Doctor';-inkscape-font-specification:'The Doctor';fill:#000000;stroke-width:0.21707863" id="path1713"/>
      <path inkscape:connector-curvature="0" d="m 474.61161,1061.681 q 0.0833,0.028 0.12503,0.125 0.0417,0.097 0,0.1945 -0.0278,0.097 -0.12503,0.139 -0.0972,0.042 -0.19451,0 -0.0417,-0.014 -0.0695,-0.028 0,0.014 -0.0139,0.028 0,0.014 0,0.014 -0.16672,0.3473 -0.13893,0.5001 0.0278,0.083 0.1806,0.125 0.25008,0.042 0.66687,-0.042 0.43068,-0.083 0.97251,-0.2779 0.55572,-0.1945 0.88916,-0.3473 0.34732,-0.1528 0.41679,-0.2084 0.0834,-0.069 0.18061,-0.056 0.0973,0.014 0.16671,0.083 0.0695,0.083 0.0556,0.1945 -0.0139,0.097 -0.0973,0.1667 -0.13893,0.1111 -0.9864,0.4585 -0.83358,0.3334 -1.50045,0.4723 -0.54183,0.097 -0.84747,0.042 -0.48626,-0.097 -0.56962,-0.514 -0.0278,-0.07 -0.0278,-0.1112 l -0.0556,0.028 q -0.40289,0.2084 -0.9864,0.389 -0.72244,0.2084 -0.98641,0.1389 -0.51404,-0.125 -0.1945,-0.5835 0.13893,-0.1945 0.48626,-0.4168 0.34732,-0.2223 0.7919,-0.3751 0.44458,-0.1667 0.94473,-0.2362 0.51404,-0.069 0.91694,0.097 z m -0.91694,0.389 q -0.72244,0.083 -1.47267,0.5418 l -0.0972,0.07 q 0.13893,-0.028 0.38901,-0.097 0.48625,-0.1389 0.90305,-0.3473 0.1945,-0.1111 0.27786,-0.1667 z" style="font-style:normal;font-variant:normal;font-weight:normal;font-stretch:normal;font-size:13.89303207px;font-family:'The Doctor';-inkscape-font-specification:'The Doctor';fill:#000000;stroke-width:0.21707863" id="path1715"/>
      <path inkscape:connector-curvature="0" d="m 482.7336,1061.9866 q 0.0417,0.083 0.0139,0.1945 -0.0278,0.097 -0.12504,0.139 -1.83388,0.9169 -2.69525,1.0975 -1.63938,0.3473 -0.76411,-1.167 l 0.0139,-0.014 q -0.0695,0 -0.18061,0.028 -0.88915,0.1945 -2.1951,1.1392 -0.0695,0.056 -0.15282,0.056 -0.0972,0 -0.16672,-0.056 -0.0695,-0.056 -0.0834,-0.1667 -0.0139,-0.097 0.0556,-0.1806 0.31954,-0.389 0.79191,-0.903 0.0556,-0.056 0.12503,-0.1251 0.0695,-0.083 0.12504,-0.1389 0.0556,-0.07 0.13893,-0.1528 0.0834,-0.097 0.15283,-0.1806 0.16671,-0.1807 0.34732,-0.014 0.0834,0.069 0.0834,0.1667 0.0139,0.097 -0.0556,0.1806 l -0.23618,0.264 q 0.56961,-0.2779 0.97251,-0.3752 0.26397,-0.069 0.45847,-0.028 0.30564,0.055 0.34732,0.3334 0.0278,0.1806 -0.0973,0.4168 -0.16671,0.2917 -0.11114,0.389 0.0695,0.097 0.33343,0.042 0.8058,-0.1806 2.57021,-1.0559 0.0972,-0.056 0.1945,-0.014 0.0973,0.028 0.13893,0.125 z" style="font-style:normal;font-variant:normal;font-weight:normal;font-stretch:normal;font-size:13.89303207px;font-family:'The Doctor';-inkscape-font-specification:'The Doctor';fill:#000000;stroke-width:0.21707863" id="path1717"/>
      <path inkscape:connector-curvature="0" d="m 487.75355,1061.9866 q 0.0417,0.083 0.0139,0.1945 -0.0278,0.097 -0.12504,0.139 -1.83388,0.9169 -2.69524,1.0975 -1.63938,0.3473 -0.76412,-1.167 l 0.0139,-0.014 q -0.0695,0 -0.18061,0.028 -0.88915,0.1945 -2.1951,1.1392 -0.0695,0.056 -0.15282,0.056 -0.0973,0 -0.16672,-0.056 -0.0695,-0.056 -0.0833,-0.1667 -0.0139,-0.097 0.0556,-0.1806 0.31954,-0.389 0.7919,-0.903 0.0556,-0.056 0.12504,-0.1251 0.0695,-0.083 0.12503,-0.1389 0.0556,-0.07 0.13894,-0.1528 0.0833,-0.097 0.15282,-0.1806 0.16672,-0.1807 0.34732,-0.014 0.0834,0.069 0.0834,0.1667 0.0139,0.097 -0.0556,0.1806 l -0.23618,0.264 q 0.56961,-0.2779 0.97251,-0.3752 0.26397,-0.069 0.45847,-0.028 0.30565,0.055 0.34733,0.3334 0.0278,0.1806 -0.0973,0.4168 -0.16672,0.2917 -0.11115,0.389 0.0695,0.097 0.33343,0.042 0.8058,-0.1806 2.57022,-1.0559 0.0973,-0.056 0.1945,-0.014 0.0972,0.028 0.13893,0.125 z" style="font-style:normal;font-variant:normal;font-weight:normal;font-stretch:normal;font-size:13.89303207px;font-family:'The Doctor';-inkscape-font-specification:'The Doctor';fill:#000000;stroke-width:0.21707863" id="path1719"/>
      <path inkscape:connector-curvature="0" d="m 489.50863,1061.681 q 0.0834,0.028 0.12504,0.125 0.0417,0.097 0,0.1945 -0.0278,0.097 -0.12504,0.139 -0.0972,0.042 -0.1945,0 -0.0417,-0.014 -0.0695,-0.028 0,0.014 -0.0139,0.028 0,0.014 0,0.014 -0.16672,0.3473 -0.13893,0.5001 0.0278,0.083 0.18061,0.125 0.25007,0.042 0.66686,-0.042 0.43069,-0.083 0.97251,-0.2779 0.55573,-0.1945 0.88916,-0.3473 0.34732,-0.1528 0.41679,-0.2084 0.0834,-0.069 0.18061,-0.056 0.0973,0.014 0.16672,0.083 0.0695,0.083 0.0556,0.1945 -0.0139,0.097 -0.0973,0.1667 -0.13893,0.1111 -0.98641,0.4585 -0.83358,0.3334 -1.50045,0.4723 -0.54182,0.097 -0.84747,0.042 -0.48626,-0.097 -0.56962,-0.514 -0.0278,-0.07 -0.0278,-0.1112 l -0.0556,0.028 q -0.4029,0.2084 -0.98641,0.389 -0.72244,0.2084 -0.9864,0.1389 -0.51405,-0.125 -0.19451,-0.5835 0.13893,-0.1945 0.48626,-0.4168 0.34733,-0.2223 0.7919,-0.3751 0.44458,-0.1667 0.94473,-0.2362 0.51404,-0.069 0.91694,0.097 z m -0.91694,0.389 q -0.72244,0.083 -1.47266,0.5418 l -0.0973,0.07 q 0.13893,-0.028 0.389,-0.097 0.48626,-0.1389 0.90305,-0.3473 0.1945,-0.1111 0.27786,-0.1667 z" style="font-style:normal;font-variant:normal;font-weight:normal;font-stretch:normal;font-size:13.89303207px;font-family:'The Doctor';-inkscape-font-specification:'The Doctor';fill:#000000;stroke-width:0.21707863" id="path1721"/>
      <path inkscape:connector-curvature="0" d="m 497.35276,1061.9866 q 0.0417,0.083 0,0.1945 -0.0278,0.097 -0.12503,0.139 -0.84748,0.4168 -1.45877,0.6391 -0.6113,0.2222 -0.93084,0.2778 -0.31954,0.056 -0.54182,-0.042 -0.2084,-0.097 -0.26397,-0.1945 -0.0556,-0.097 -0.13893,-0.2917 -0.0278,-0.097 -0.0834,-0.1112 -0.0417,-0.028 -0.26397,0.042 -0.22229,0.07 -0.65297,0.3057 -0.1945,0.097 -0.69465,0.4168 -0.15283,0.097 -0.2084,0.1389 -0.0695,0.042 -0.16671,0.083 -0.0973,0.042 -0.16672,0.028 -0.0695,0 -0.13893,-0.042 -0.13893,-0.1111 -0.0417,-0.3751 0.0834,-0.2639 0.45847,-0.8613 l 0.22229,-0.3335 q 0.0139,-0.042 0.0417,-0.083 2.55632,-3.904 3.90394,-4.9182 0.76412,-0.5557 1.0003,-0.028 0.13893,0.3334 -0.22229,1.0836 -0.50015,1.0003 -1.63938,2.1951 -1.12533,1.1809 -2.68135,2.0284 l -0.2084,0.3334 q -0.0139,0.014 -0.0556,0.056 -0.0278,0.042 -0.0417,0.07 0.1945,-0.1112 0.4029,-0.2223 0.41679,-0.2223 0.70854,-0.3196 0.29176,-0.1111 0.45847,-0.125 0.16672,-0.028 0.27786,0.056 0.11115,0.083 0.15283,0.1667 0.0417,0.083 0.11114,0.2362 0.0139,0.056 0.0278,0.083 0.0139,0.028 0.0556,0.083 0.0417,0.042 0.0973,0.056 0.0556,0 0.15282,0.014 0.0973,0 0.22229,-0.028 0.13893,-0.042 0.33343,-0.097 0.19451,-0.056 0.44458,-0.1528 0.25008,-0.1112 0.58351,-0.264 0.33343,-0.1528 0.72244,-0.3473 0.22229,-0.1111 0.34732,0.1111 z m -0.94472,-4.5847 q -1.08366,0.8058 -3.1954,3.904 1.15312,-0.7919 1.9867,-1.7366 0.84748,-0.9448 1.23648,-1.7228 0.26397,-0.5418 0.2084,-0.6807 0,-0.014 -0.0278,0.014 -0.0139,0.028 -0.0834,0.097 -0.0556,0.069 -0.12503,0.125 z" style="font-style:normal;font-variant:normal;font-weight:normal;font-stretch:normal;font-size:13.89303207px;font-family:'The Doctor';-inkscape-font-specification:'The Doctor';fill:#000000;stroke-width:0.21707863" id="path1723"/>
    </g>
  </g>
</svg>
