<?xml version="1.0" encoding="UTF-8" standalone="no"?>
<!-- Created with Inkscape (http://www.inkscape.org/) -->
<svg xmlns:dc="http://purl.org/dc/elements/1.1/" xmlns:cc="http://creativecommons.org/ns#" xmlns:rdf="http://www.w3.org/1999/02/22-rdf-syntax-ns#" xmlns:svg="http://www.w3.org/2000/svg" xmlns="http://www.w3.org/2000/svg" xmlns:sodipodi="http://sodipodi.sourceforge.net/DTD/sodipodi-0.dtd" xmlns:inkscape="http://www.inkscape.org/namespaces/inkscape" width="200mm" height="200mm" viewBox="0 0 200 200.00001" version="1.1" id="svg1161" inkscape:version="0.92.3 (2405546, 2018-03-11)" sodipodi:docname="knobby.svg">
  <defs id="defs1155"/>
  <sodipodi:namedview id="base" pagecolor="#ffffff" bordercolor="#666666" borderopacity="1.0" inkscape:pageopacity="0.0" inkscape:pageshadow="2" inkscape:zoom="0.48562392" inkscape:cx="329.0861" inkscape:cy="380" inkscape:document-units="mm" inkscape:current-layer="layer2" showgrid="false" inkscape:pagecheckerboard="true" gridtolerance="1" guidetolerance="1" inkscape:window-width="1920" inkscape:window-height="1043" inkscape:window-x="0" inkscape:window-y="0" inkscape:window-maximized="1" units="mm" objecttolerance="1"/>
  <metadata id="metadata1158">
    <rdf:RDF>
      <cc:Work rdf:about="">
        <dc:format>image/svg+xml</dc:format>
        <dc:type rdf:resource="http://purl.org/dc/dcmitype/StillImage"/>
        <dc:title>@@title@@</dc:title>
        <dc:creator>
          <cc:Agent>
            <dc:title>x3300 &lt;x3300x@gmail.com&gt;</dc:title>
          </cc:Agent>
        </dc:creator>
        <dc:description>
Fabricators Design License draft v10.11.20

Copyright x3300 &lt;x3300x@gmail.com&gt;

Permission is hereby granted, free of charge, to any person obtaining
a copy of this design and associated documentation (the _Design_), to
deal in the Design without restriction, including without limitation
the rights to use, copy, modify, merge, publish, distribute,
sublicense, and/or sell copies of the Design, and to permit persons to
whom the Design is furnished to do so, subject to the following
conditions:

 The above copyright notice and this permission notice shall be
 included in all copies or substantial portions of the Design.

 If you modify the Design including creating additional or alternate
 documentation formats (images, drawings, text documents, etc.), you
 may copy and distribute your modified version of the Design in any
 form provided that you also do one of the following:

  Accompany the modified version of the Design with documentation
  which corresponds to and completely describes the modified version
  of the Design; or,

  Accompany the modified version of the Design with a written offer
  for documentation which corresponds to and completely describes the
  modified version of the Design.

THE DESIGN IS PROVIDED _AS IS_, WITHOUT WARRANTY OF ANY KIND,
EXPRESS OR IMPLIED, INCLUDING BUT NOT LIMITED TO THE WARRANTIES OF
MERCHANTABILITY, FITNESS FOR A PARTICULAR PURPOSE AND NONINFRINGEMENT.
IN NO EVENT SHALL THE AUTHORS OR COPYRIGHT HOLDERS BE LIABLE FOR ANY
CLAIM, DAMAGES OR OTHER LIABILITY, WHETHER IN AN ACTION OF CONTRACT,
TORT OR OTHERWISE, ARISING FROM, OUT OF OR IN CONNECTION WITH THE
DESIGN OR THE USE OR OTHER DEALINGS IN THE DESIGN.
        </dc:description>
        <dc:date>@@date@@</dc:date>
        <dc:rights>
          <cc:Agent>
            <dc:title>All Rights Reserved</dc:title>
          </cc:Agent>
        </dc:rights>
        <dc:publisher>
          <cc:Agent>
            <dc:title>@@publisher@@</dc:title>
          </cc:Agent>
        </dc:publisher>
        <dc:identifier>@@identifier@@</dc:identifier>
        <dc:source>@@source@@</dc:source>
        <dc:relation>@@relation@@</dc:relation>
        <dc:language>@@language@@</dc:language>
        <dc:subject>
          <rdf:Bag>
            <rdf:li>@@keywords@@</rdf:li>
          </rdf:Bag>
        </dc:subject>
        <dc:coverage>@@coverage@@</dc:coverage>
        <dc:contributor>
          <cc:Agent>
            <dc:title>@@contributors@@</dc:title>
          </cc:Agent>
        </dc:contributor>
        <cc:license rdf:resource="Fabricators Design License"/>
      </cc:Work>
    </rdf:RDF>
  </metadata>
  <g inkscape:groupmode="layer" id="layer2" inkscape:label="print" transform="translate(0,-96.999988)">
    <g id="g3087" transform="translate(-58.208334,-1.5119054)">
      <g transform="translate(70.254021,-10.680975)" id="g2885">
        <path id="path2963" transform="matrix(0.26458333,0,0,0.26458333,-11.043478,108.04347)" d="m 381.67383,66.464844 c -7.40327,0.0011 -14.81066,0.264586 -22.19531,0.789062 -2.44442,0.17537 -4.4748,1.955053 -4.96875,4.355469 l -0.73047,3.558594 c -0.0618,0.296693 -0.0994,0.59765 -0.11133,0.90039 l -0.16992,4.658203 c -0.008,0.216567 -0.002,0.434316 0.0156,0.650391 l 0.47266,5.720703 -11.64844,1.416016 -0.9082,-5.667969 c -0.0348,-0.209386 -0.0819,-0.417301 -0.14063,-0.621094 l -1.26953,-4.488281 c -0.0853,-0.301984 -0.19634,-0.59616 -0.33203,-0.878906 l -1.57227,-3.277344 c -1.05541,-2.196397 -3.43671,-3.42912 -5.83984,-3.02539 -7.63246,1.284094 -15.21969,2.850487 -22.73633,4.695312 -2.36227,0.579515 -4.05919,2.648078 -4.16406,5.078125 l -0.1543,3.572266 c -0.0113,0.308409 0.004,0.618064 0.0449,0.923828 l 0.58204,4.626953 c 0.0268,0.213921 0.0673,0.425644 0.11914,0.634766 l 1.38086,5.574218 -11.26563,3.261719 -1.81641,-5.455078 c -0.0672,-0.201071 -0.14618,-0.39773 -0.23632,-0.589844 l -1.97852,-4.222656 c -0.12956,-0.280819 -0.28202,-0.549872 -0.45703,-0.804688 l -2.13281,-3.070312 c -1.37727,-1.982211 -3.8901,-2.828337 -6.18555,-2.082031 -7.32156,2.379855 -14.55491,5.031535 -21.68164,7.943359 -2.27675,0.92965 -3.65282,3.26271 -3.36523,5.705078 l 0.47265,3.980467 c 0.0359,0.30728 0.0965,0.60937 0.1836,0.90625 l 1.32226,4.47461 c 0.0619,0.20599 0.13506,0.40822 0.2207,0.60547 l 2.25782,5.27734 -10.59961,5.02735 -2.65821,-5.08594 c -0.0997,-0.19087 -0.21052,-0.37675 -0.33203,-0.55469 L 246.4609,107.125 c -0.17386,-0.25474 -0.36977,-0.49498 -0.58399,-0.7168 l -2.98047,-3.08593 c -1.68941,-1.74807 -4.33062,-2.17219 -6.48242,-1.04102 -6.74659,3.5489 -13.36373,7.34425 -19.83398,11.375 -2.07104,1.2932 -3.03586,3.80323 -2.36328,6.15039 L 215.41992,124 c 0.0834,0.29896 0.19145,0.59046 0.32422,0.87109 l 2.02344,4.19922 c 0.0926,0.19049 0.19659,0.37637 0.31054,0.55469 l 3.07813,4.84961 -9.65625,6.66601 -3.44727,-4.5996 c -0.12842,-0.16782 -0.26518,-0.32873 -0.41211,-0.48047 l -3.21289,-3.38086 c -0.21093,-0.22564 -0.43961,-0.43221 -0.68554,-0.61914 l -3.53516,-2.64258 c -1.95121,-1.46007 -4.63364,-1.45536 -6.57812,0.0137 -6.06946,4.58173 -11.9669,9.38597 -17.6875,14.39648 -1.84032,1.60774 -2.39036,4.24019 -1.34961,6.45118 l 1.89648,4.02929 c 0.13228,0.27818 0.28763,0.54666 0.46484,0.79883 l 2.66407,3.82227 c 0.12295,0.17499 0.25783,0.34242 0.40039,0.50195 l 3.8164,4.29688 -8.46093,8.12695 -4.14063,-3.98633 c -0.1542,-0.14702 -0.31795,-0.2841 -0.48828,-0.41211 l -3.71289,-2.82031 c -0.24639,-0.18671 -0.50692,-0.3518 -0.78125,-0.49414 l -4.09766,-2.13281 c -2.13255,-1.11258 -4.74165,-0.70376 -6.42968,1.00976 -5.28985,5.38099 -10.38522,10.9568 -15.27344,16.70508 -1.60076,1.88368 -1.74022,4.60744 -0.33984,6.64453 l 2.82031,4.10352 c 0.1742,0.25209 0.37011,0.4895 0.58398,0.70898 l 3.24805,3.35156 c 0.1488,0.15421 0.30677,0.29971 0.47266,0.43555 l 4.45117,3.61719 -7.04297,9.38281 -4.72461,-3.26953 c -0.17768,-0.12397 -0.36163,-0.2378 -0.55274,-0.33984 l -4.11914,-2.18555 c -0.26989,-0.144 -0.55167,-0.26457 -0.84179,-0.36133 l -4.87891,-1.61719 c -2.33444,-0.77355 -4.89851,0.10538 -6.26758,2.14844 -4.17907,6.23637 -8.13437,12.62841 -11.85547,19.14844 -1.19735,2.10141 -0.87357,4.73923 0.79688,6.48828 l 3.40234,3.56641 c 0.21358,0.22337 0.44713,0.42707 0.69532,0.61132 l 3.74218,2.78321 c 0.17012,0.12812 0.34736,0.24775 0.53125,0.35547 l 4.97461,2.85546 -5.44726,10.39454 -5.18164,-2.47266 c -0.19435,-0.093 -0.39373,-0.17498 -0.59766,-0.24414 l -4.41406,-1.49805 c -0.29099,-0.0986 -0.59111,-0.17195 -0.89453,-0.2207 l -4.90821,-0.78321 c -2.40036,-0.38479 -4.767811,0.85867 -5.810544,3.05469 -3.22119,6.7821 -6.197357,13.6821 -8.923828,20.67774 -0.886568,2.28083 -0.151508,4.87224 1.800781,6.34765 l 4.052734,3.06446 c 0.246388,0.1867 0.508878,0.3518 0.783203,0.49414 l 4.140624,2.14843 c 0.18905,0.0998 0.38457,0.18853 0.58399,0.26563 l 5.37304,2.02148 -3.71289,11.125 -5.521482,-1.60937 c -0.206212,-0.059 -0.415232,-0.10623 -0.626954,-0.14063 l -4.599609,-0.76757 c -0.302513,-0.0503 -0.609371,-0.0734 -0.916016,-0.0723 l -5.210937,0.0137 c -2.421275,0.008 -4.550708,1.60499 -5.234375,3.92774 -2.102659,7.1585 -3.948039,14.39146 -5.535156,21.68164 -0.522091,2.4 0.617525,4.85238 2.789062,6 l 4.777344,2.52539 c 0.272277,0.14438 0.555007,0.26495 0.847656,0.36133 l 4.429688,1.45507 c 0.203187,0.0688 0.411254,0.12375 0.621093,0.16797 l 5.63086,1.13867 -1.88086,11.57422 -5.707031,-0.70117 c -0.210709,-0.0265 -0.422598,-0.0391 -0.634765,-0.0391 l -4.666016,-0.0215 c -0.309128,-0.002 -0.616928,0.0232 -0.921875,0.0742 l -5.248047,0.8711 c -2.419694,0.39976 -4.279519,2.35923 -4.548828,4.79687 -0.814324,7.42753 -1.362438,14.8868 -1.644531,22.35352 -0.08998,2.42196 1.422118,4.61447 3.71875,5.38867 l 4.888671,1.64648 c 0.29339,0.099 0.594468,0.17233 0.900391,0.22071 l 4.613281,0.72265 c 0.210142,0.034 0.422039,0.0566 0.634766,0.0664 l 5.742188,0.22266 v 11.73632 l -5.734376,0.21485 c -0.215206,0.0113 -0.429998,0.0301 -0.642578,0.0664 l -4.613281,0.72266 c -0.305922,0.0484 -0.607002,0.12363 -0.900391,0.22266 l -5.08789,1.71875 c -2.326426,0.78591 -3.844293,3.02643 -3.712891,5.47851 0.407783,7.45867 1.08448,14.9039 2.023438,22.31446 0.304361,2.39886 2.147777,4.31292 4.533203,4.70898 l 5.078125,0.8418 c 0.304932,0.0506 0.612766,0.0757 0.921875,0.0742 l 4.666016,-0.0234 c 0.214639,0 0.429427,-0.0107 0.642578,-0.0371 l 5.699218,-0.70899 1.88086,11.58204 -5.63086,1.13671 c -0.209839,0.0442 -0.417902,0.10114 -0.621093,0.16993 l -4.429688,1.45507 c -0.295181,0.096 -0.58081,0.21658 -0.855469,0.36133 l -4.546875,2.40625 c -2.137408,1.13223 -3.277526,3.53414 -2.804687,5.90625 1.457728,7.32575 3.175631,14.59577 5.152344,21.79883 0.65122,2.37128 2.802641,4.01731 5.261718,4.02344 l 5.359375,0.0137 c 0.306633,10e-4 0.613503,-0.0212 0.916016,-0.0723 l 4.599609,-0.76757 c 0.214224,-0.034 0.426117,-0.0813 0.634766,-0.14063 l 5.51367,-1.61719 3.71289,11.13282 -5.37304,2.02148 c -0.19941,0.0771 -0.39496,0.16585 -0.58399,0.26562 l -4.140624,2.14844 c -0.274053,0.14022 -0.536543,0.30223 -0.783203,0.48633 l -4.310547,3.25586 c -1.972301,1.49227 -2.698387,4.12305 -1.771484,6.41602 2.7973,6.93509 5.837496,13.77464 9.123047,20.49218 1.057334,2.15823 3.399871,3.37307 5.773441,2.9961 l 4.96679,-0.78907 c 0.30592,-0.0484 0.60896,-0.12363 0.90235,-0.22265 l 4.41406,-1.49805 c 0.20394,-0.0692 0.40331,-0.15116 0.59766,-0.24414 l 5.18164,-2.47266 5.44726,10.39454 -4.97461,2.85742 c -0.18391,0.10771 -0.36111,0.22539 -0.53125,0.35351 l -3.74218,2.78321 c -0.24821,0.18444 -0.48174,0.38788 -0.69532,0.61132 l -3.38086,3.53711 c -1.687,1.76799 -1.99673,4.43934 -0.75976,6.54688 3.81113,6.50128 7.85184,12.8661 12.12109,19.07617 1.37894,2.00727 3.91856,2.86102 6.23047,2.0957 l 4.5918,-1.52148 c 0.29011,-0.0968 0.57188,-0.21733 0.84179,-0.36133 l 4.11914,-2.18555 c 0.1911,-0.10204 0.37509,-0.21392 0.55274,-0.33789 l 4.72461,-3.27148 7.04297,9.375 -4.45117,3.625 c -0.16589,0.13568 -0.32386,0.28119 -0.47266,0.43555 l -3.24805,3.35156 c -0.21388,0.21959 -0.40978,0.45685 -0.58398,0.70898 l -2.7168,3.95703 c -1.3778,2.00504 -1.26621,4.6789 0.27344,6.5625 4.76735,5.839 9.7445,11.5038 14.91992,16.98438 1.68149,1.7797 4.33946,2.22712 6.50977,1.09375 l 4.34179,-2.26758 c 0.27179,-0.14286 0.5294,-0.30796 0.77344,-0.49414 l 3.71289,-2.82031 c 0.17031,-0.12813 0.33405,-0.26479 0.48828,-0.41211 l 4.14063,-3.98633 8.46093,8.12695 -3.8164,4.28907 c -0.14279,0.16176 -0.27768,0.33224 -0.40039,0.50976 l -2.66407,3.82422 c -0.17465,0.25247 -0.32711,0.51878 -0.45703,0.79688 l -1.97851,4.19335 c -1.05102,2.22868 -0.48398,4.88452 1.38672,6.48829 5.77087,4.94196 11.72162,9.67739 17.83593,14.1875 1.94228,1.43206 4.59312,1.42208 6.52539,-0.0234 l 3.47657,-2.59766 c 0.24593,-0.18708 0.47462,-0.39538 0.68554,-0.62109 l 3.21289,-3.38086 c 0.14695,-0.15194 0.2837,-0.31089 0.41211,-0.47852 l 3.44727,-4.59961 9.65625,6.66602 -3.07813,4.84961 c -0.11395,0.17839 -0.21798,0.36424 -0.31054,0.55469 l -2.02344,4.19922 c -0.13531,0.28044 -0.24627,0.57183 -0.33203,0.87109 l -1.15039,4.02344 c -0.6703,2.34319 0.28851,4.84812 2.35351,6.14258 6.47358,4.06665 13.09831,7.89544 19.85157,11.47851 2.15389,1.14055 4.80248,0.71944 6.49609,-1.0332 l 2.91602,-3.01953 c 0.21422,-0.22186 0.40816,-0.46214 0.58203,-0.7168 l 2.63476,-3.85352 c 0.12151,-0.17801 0.23229,-0.3619 0.33203,-0.55273 l 2.65821,-5.08594 10.59961,5.02735 -2.25782,5.27734 c -0.0856,0.19729 -0.15883,0.39952 -0.2207,0.60547 l -1.32226,4.47265 c -0.0875,0.29934 -0.14826,0.60621 -0.1836,0.91602 l -0.48828,4.14844 c -0.28649,2.44422 1.0934,4.77991 3.37305,5.70703 7.10521,2.89255 14.31716,5.51868 21.61523,7.88281 2.29325,0.74264 4.80145,-0.10314 6.17774,-2.08203 l 2.21484,-3.1875 c 0.17503,-0.25474 0.32749,-0.52402 0.45703,-0.80469 l 1.97852,-4.23047 c 0.0901,-0.192 0.16909,-0.38858 0.23632,-0.58984 l 1.81641,-5.45703 11.26563,3.26367 -1.38086,5.57422 c -0.0518,0.20901 -0.0923,0.42099 -0.11914,0.63477 l -0.58204,4.63476 c -0.0407,0.30576 -0.0562,0.61557 -0.0449,0.92383 l 0.15625,3.60937 c 0.1056,2.45277 1.83003,4.53529 4.22071,5.09375 7.55192,1.76905 15.1698,3.25235 22.83203,4.45703 2.38927,0.37645 4.74407,-0.85962 5.78906,-3.04101 l 1.47656,-3.08594 c 0.13278,-0.28082 0.24084,-0.5701 0.32422,-0.86914 l 1.26953,-4.48828 c 0.0587,-0.20372 0.10593,-0.41186 0.14063,-0.62109 l 0.9082,-5.66993 11.64844,1.41797 -0.47266,5.72071 c -0.0178,0.21619 -0.0236,0.43374 -0.0156,0.65039 l 0.16992,4.6582 c 0.0121,0.30274 0.0495,0.60377 0.11133,0.90039 l 0.66406,3.23242 c 0.48616,2.37581 2.47832,4.1485 4.89453,4.35547 7.40395,0.63405 14.82558,1.00054 22.25586,1.10742 0.0885,0.002 0.17707,0.002 0.26563,0 0.35062,-0.0113 0.70605,-0.022 1.05664,-0.0371 2.35184,-0.0907 4.38137,-1.67629 5.04101,-3.93554 l 0.9668,-3.29493 c 0.0867,-0.29442 0.14941,-0.59553 0.18555,-0.90039 l 0.53906,-4.63671 c 0.0249,-0.21317 0.0375,-0.42794 0.0371,-0.64258 l -0.008,-5.74219 11.72266,-0.47266 0.44922,5.72071 c 0.017,0.21316 0.046,0.42507 0.0879,0.63476 l 0.9082,4.57617 c 0.0606,0.30463 0.14846,0.60468 0.25977,0.89454 l 1.0918,2.84765 c 0.86988,2.27505 3.13915,3.70232 5.5664,3.5 7.80506,-0.65265 15.58401,-1.59929 23.31836,-2.83398 2.40692,-0.3837 4.2709,-2.31356 4.57031,-4.73242 l 0.37696,-3.01954 c 0.0386,-0.30614 0.0503,-0.61376 0.0371,-0.92187 l -0.20703,-4.6582 c -0.0113,-0.21544 -0.0383,-0.43013 -0.0742,-0.64258 l -0.92969,-5.66992 11.49414,-2.34766 1.36523,5.57422 c 0.0522,0.20787 0.11544,0.41297 0.19141,0.61328 l 1.63281,4.36914 c 0.10659,0.28838 0.2371,0.56741 0.39063,0.83399 l 1.35742,2.33984 c 1.23526,2.12825 3.74067,3.17042 6.12109,2.54687 7.65612,-2.00386 15.23019,-4.29425 22.71289,-6.87109 2.27959,-0.78304 3.77887,-2.96631 3.69141,-5.375 l -0.0879,-2.41406 c -0.0113,-0.3103 -0.0538,-0.61819 -0.11914,-0.92188 l -0.95899,-4.57031 c -0.0419,-0.20976 -0.096,-0.4158 -0.1621,-0.61914 l -1.83204,-5.44141 10.97852,-4.16211 2.22852,5.28516 c 0.0865,0.19994 0.18493,0.3937 0.29492,0.58203 l 2.31836,4.05274 c 0.15307,0.26759 0.32777,0.52349 0.52343,0.76171 l 1.43946,1.74805 c 1.5428,1.87506 4.1372,2.51028 6.37109,1.5586 7.31834,-3.12806 14.51876,-6.54148 21.57813,-10.2168 2.16083,-1.12335 3.319,-3.53957 2.84179,-5.92774 l -0.45117,-2.24414 c -0.0631,-0.30463 -0.15186,-0.60295 -0.26562,-0.89258 l -1.6836,-4.35546 c -0.0748,-0.19918 -0.1603,-0.39478 -0.25781,-0.58399 l -2.67969,-5.07812 10.16406,-5.86914 3.06446,4.85742 c 0.11301,0.17915 0.2361,0.35271 0.36914,0.51758 l 2.92969,3.63086 c 0.19653,0.24453 0.41477,0.47238 0.65039,0.67968 l 1.76367,1.55078 c 1.85223,1.62645 4.56471,1.81321 6.62304,0.45704 6.66516,-4.39302 13.16183,-9.04129 19.47266,-13.92969 1.89876,-1.47292 2.6138,-4.01212 1.76367,-6.25977 l -0.68554,-1.8164 c -0.10696,-0.28611 -0.23944,-0.56199 -0.39258,-0.82618 l -2.35352,-4.03125 c -0.10771,-0.18406 -0.22539,-0.36109 -0.35351,-0.53125 l -3.45508,-4.58398 9.08594,-7.41797 3.79492,4.29492 c 0.14097,0.16139 0.29228,0.31537 0.45117,0.45899 l 3.47656,3.11328 c 0.23207,0.20787 0.48011,0.39707 0.74414,0.5625 l 1.44727,0.9082 c 2.06778,1.2977 4.74504,1.06735 6.5625,-0.5625 6.00075,-5.38382 11.79486,-11.00019 17.36328,-16.83008 1.67044,-1.74909 1.99423,-4.38686 0.79688,-6.48828 l -0.79102,-1.38867 c -0.15458,-0.27326 -0.33233,-0.53274 -0.53125,-0.77539 l -2.97461,-3.60156 c -0.13833,-0.16592 -0.28658,-0.32412 -0.44336,-0.47266 l -4.14258,-3.96289 7.78125,-8.78516 4.44336,3.63868 c 0.16706,0.13833 0.34333,0.26737 0.52539,0.38476 l 3.92578,2.50977 c 0.25361,0.16176 0.52194,0.30192 0.79883,0.41992 l 1.46875,0.62695 c 2.23393,0.95169 4.82638,0.31842 6.36914,-1.55664 5.12323,-6.22484 10.00996,-12.64327 14.63867,-19.24414 1.40697,-2.00477 1.31037,-4.70055 -0.23632,-6.59961 l -1.0918,-1.34375 c -0.19313,-0.23622 -0.4052,-0.45533 -0.63477,-0.65625 l -3.50586,-3.07812 c -0.16176,-0.14287 -0.33224,-0.27767 -0.50976,-0.40039 l -4.73242,-3.25391 6.26758,-9.91406 4.96874,2.8789 c 0.18596,0.10734 0.37682,0.20245 0.57422,0.28711 l 4.28125,1.85352 c 0.28838,0.12623 0.58866,0.22752 0.89453,0.30273 l 1.38672,0.33203 c 2.3777,0.57102 4.84677,-0.5042 6.04688,-2.63476 3.98468,-7.07248 7.69282,-14.2981 11.11719,-21.6582 1.02179,-2.19617 0.47842,-4.80346 -1.33594,-6.40821 l -0.90039,-0.79687 c -0.22564,-0.20183 -0.46878,-0.38511 -0.72461,-0.54688 l -3.95703,-2.47265 c -0.18104,-0.11188 -0.36802,-0.21279 -0.56055,-0.30274 l -5.19727,-2.45898 4.59961,-10.79102 5.36719,2.04492 c 0.19805,0.0756 0.40017,0.13925 0.60547,0.19141 l 4.52344,1.14453 c 0.30274,0.0756 0.61258,0.12381 0.92383,0.14649 l 1.14453,0.0898 c 2.41602,0.18406 4.66582,-1.24384 5.52929,-3.50781 2.90302,-7.60305 5.51317,-15.31347 7.81641,-23.11914 0.69124,-2.33828 -0.24754,-4.852 -2.30273,-6.16407 l -1.04102,-0.66406 c -0.26494,-0.16894 -0.54394,-0.31445 -0.83398,-0.43555 l -4.30469,-1.80078 c -0.19502,-0.0805 -0.39455,-0.14958 -0.59766,-0.20703 l -5.52148,-1.5957 2.8125,-11.38867 5.625,1.1582 c 0.21203,0.0446 0.4268,0.0764 0.64258,0.0957 l 4.64257,0.39844 c 0.3069,0.0265 0.61682,0.0265 0.92383,0 l 1.41602,-0.11719 c 2.4469,-0.20598 4.45853,-2.01748 4.91797,-4.42968 1.52337,-7.98017 2.7391,-16.01944 3.63867,-24.09375 0.26608,-2.39422 -1.0642,-4.68143 -3.27735,-5.63282 l -1.04882,-0.45117 c -0.28385,-0.12321 -0.57829,-0.2216 -0.87891,-0.29492 l -4.53125,-1.0918 c -0.20939,-0.0495 -0.42118,-0.0868 -0.63476,-0.11133 l -5.70704,-0.67773 0.94532,-11.70117 5.73632,0.24414 c 0.2143,0.008 0.42705,0.002 0.64063,-0.0156 l 4.65039,-0.35351 c 0.30123,-0.0227 0.60116,-0.0692 0.89453,-0.14063 l 0.98828,-0.24414 c 2.30669,-0.56889 3.98259,-2.55969 4.14844,-4.92968 0.28498,-4.07747 0.49554,-8.16257 0.62109,-12.24805 0.002,-0.0862 0.002,-0.17164 0,-0.25781 -0.0661,-4.06931 -0.2113,-8.13949 -0.43554,-12.20313 -0.13115,-2.38949 -1.79946,-4.4157 -4.11914,-5.00391 l -1.16602,-0.29492 c -0.30765,-0.0763 -0.6213,-0.12651 -0.9375,-0.14844 l -4.65039,-0.34765 c -0.21128,-0.0189 -0.42304,-0.0212 -0.63477,-0.0137 l -5.73632,0.24218 -0.94532,-11.69921 5.70704,-0.67969 c 0.21354,-0.0227 0.42553,-0.0618 0.63476,-0.11133 l 4.53125,-1.0918 c 0.29821,-0.0737 0.58952,-0.17208 0.87109,-0.29492 l 0.93164,-0.39844 c 2.22743,-0.95542 3.56085,-3.26285 3.27735,-5.66992 -0.96231,-8.10206 -2.24127,-16.17335 -3.83203,-24.17578 -0.47751,-2.38454 -2.47171,-4.16738 -4.89453,-4.37695 l -1.10743,-0.0957 c -0.31181,-0.0302 -0.62534,-0.0305 -0.9375,-0.008 l -4.64257,0.39844 c -0.21581,0.0189 -0.43059,0.0511 -0.64258,0.0957 l -5.625,1.15821 -2.8125,-11.38868 5.52148,-1.5957 c 0.20296,-0.0575 0.40252,-0.12653 0.59766,-0.20703 l 4.30469,-1.80078 c 0.28989,-0.12095 0.56896,-0.26649 0.83398,-0.43555 l 1.12109,-0.71484 c 2.04514,-1.30628 2.98573,-3.80386 2.31055,-6.13477 -2.25966,-7.79112 -4.81921,-15.49918 -7.67578,-23.0918 -0.85667,-2.2755 -3.11269,-3.7117 -5.53711,-3.52734 l -1.35742,0.10352 c -0.31143,0.0227 -0.62101,0.0709 -0.92383,0.14648 l -4.52539,1.13672 c -0.20787,0.0518 -0.41101,0.11739 -0.61133,0.19336 l -5.36719,2.04492 -4.59961,-10.79297 5.19727,-2.45117 c 0.19276,-0.0899 0.37958,-0.19086 0.56055,-0.30273 l 3.95703,-2.47266 c 0.26116,-0.16328 0.50826,-0.34758 0.73828,-0.55273 l 0.94531,-0.8418 c 1.8189,-1.61968 2.34807,-4.24741 1.29883,-6.44531 -3.49255,-7.33784 -7.26479,-14.53936 -11.31641,-21.58399 -1.21651,-2.11389 -3.6847,-3.16788 -6.05273,-2.58398 l -1.23242,0.30273 c -0.29556,0.0741 -0.58604,0.17247 -0.86524,0.29492 l -4.28125,1.85352 c -0.19729,0.0847 -0.38811,0.17977 -0.57422,0.28711 l -4.96874,2.8789 -6.26758,-9.91992 4.73242,-3.25586 c 0.17461,-0.12056 0.34238,-0.25269 0.50195,-0.39257 l 3.50586,-3.07032 c 0.23849,-0.20938 0.45756,-0.4381 0.65625,-0.68554 l 0.89453,-1.10743 c 1.50562,-1.86761 1.61816,-4.49771 0.2793,-6.48828 -4.51177,-6.6969 -9.28396,-13.21985 -14.29883,-19.54882 -1.52886,-1.92802 -4.15616,-2.59841 -6.42187,-1.63868 l -1.60157,0.67969 c -0.28195,0.11717 -0.55405,0.25729 -0.8125,0.41992 l -3.92578,2.51172 c -0.18217,0.11754 -0.35845,0.24463 -0.52539,0.38281 l -4.44336,3.63868 -7.78125,-8.78321 4.14844,-3.97265 c 0.15118,-0.14438 0.29597,-0.29644 0.42969,-0.45704 l 2.97461,-3.5957 c 0.1988,-0.24038 0.37617,-0.497 0.53125,-0.76758 l 0.92187,-1.60937 c 1.21584,-2.12013 0.879,-4.78816 -0.82617,-6.53906 -5.60663,-5.76307 -11.43219,-11.30951 -17.46484,-16.625 -1.82068,-1.60362 -4.48013,-1.81627 -6.53321,-0.52344 l -1.47656,0.92969 c -0.25852,0.16138 -0.50249,0.34455 -0.73047,0.54687 l -3.47656,3.10742 c -0.16176,0.14589 -0.31578,0.301 -0.45899,0.46485 l -3.79296,4.30468 -9.08789,-7.41992 3.45507,-4.59179 c 0.12813,-0.17008 0.2458,-0.34746 0.35352,-0.53125 l 2.35547,-4.02344 c 0.15647,-0.26873 0.2897,-0.55047 0.39844,-0.8418 l 0.64257,-1.71094 c 0.84783,-2.26148 0.11296,-4.8121 -1.80859,-6.27539 -6.37894,-4.85703 -12.9417,-9.46408 -19.67383,-13.81836 -2.06158,-1.33466 -4.76,-1.1329 -6.59961,0.49414 l -1.51953,1.33594 c -0.22715,0.20372 -0.43669,0.4255 -0.62695,0.66406 l -2.93164,3.625 c -0.13569,0.16706 -0.26206,0.34138 -0.37696,0.52344 l -3.0625,4.85742 -10.16601,-5.86132 2.67969,-5.07813 c 0.0975,-0.18935 0.18493,-0.38473 0.25976,-0.58398 l 1.68164,-4.35547 c 0.11377,-0.28951 0.20446,-0.58784 0.26758,-0.89258 l 0.45703,-2.28125 c 0.47641,-2.37456 -0.66423,-4.77901 -2.80469,-5.91211 -7.01287,-3.720491 -14.1627,-7.171556 -21.4375,-10.349609 -2.24473,-0.981279 -4.8678,-0.350953 -6.42187,1.542968 l -1.58008,1.925782 c -0.19275,0.23622 -0.3667,0.488961 -0.51758,0.753906 l -2.3164,4.052733 c -0.10999,0.18822 -0.21033,0.38194 -0.29688,0.58203 l -2.22851,5.28711 -10.97657,-4.16406 1.83008,-5.441407 c 0.0661,-0.203338 0.12016,-0.409452 0.16211,-0.619141 l 0.96094,-4.570312 c 0.0658,-0.306142 0.10471,-0.616856 0.11719,-0.929688 l 0.0879,-2.501953 c 0.0847,-2.423206 -1.43461,-4.61267 -3.73438,-5.380859 -7.50788,-2.507641 -15.11111,-4.733165 -22.78711,-6.666016 -2.36353,-0.592894 -4.83435,0.446971 -6.06054,2.552735 l -1.29297,2.214843 c -0.15648,0.268725 -0.2897,0.550471 -0.39844,0.841797 l -1.63086,4.371094 c -0.076,0.200315 -0.14158,0.40353 -0.19336,0.611328 l -1.36523,5.582031 -11.49219,-2.347656 0.92969,-5.669922 c 0.0378,-0.212409 0.0625,-0.42722 0.0742,-0.642578 l 0.20507,-4.658203 c 0.0113,-0.305764 10e-4,-0.610529 -0.0371,-0.914062 l -0.33984,-2.753907 c -0.29631,-2.388132 -2.1178,-4.302334 -4.48828,-4.716796 -7.72959,-1.360441 -15.50854,-2.433754 -23.31836,-3.210938 -2.45407,-0.241512 -4.76775,1.188906 -5.64844,3.492188 l -1.1289,2.945312 c -0.11131,0.28989 -0.19719,0.588062 -0.25782,0.892578 l -0.9082,4.576172 c -0.0419,0.209764 -0.0708,0.4216 -0.0879,0.634766 l -0.45117,5.720703 -11.72266,-0.472657 0.008,-5.75 c 2.6e-4,-0.214677 -0.0122,-0.429412 -0.0371,-0.642578 l -0.53906,-4.626953 c -0.0359,-0.307275 -0.0965,-0.611283 -0.18359,-0.908203 l -0.9668,-3.285156 c -0.65059,-2.214047 -2.62028,-3.782196 -4.92383,-3.919922 -0.35055,-0.0189 -0.706,-0.03932 -1.05664,-0.05859 -0.10015,-0.0038 -0.20048,-0.0078 -0.30078,-0.0078 z m 1.83203,119.904296 A 193.88025,193.88025 0 0 1 577.38672,380.25 193.88025,193.88025 0 0 1 383.50586,574.13086 193.88025,193.88025 0 0 1 189.62695,380.25 193.88025,193.88025 0 0 1 383.50586,186.36914 Z" style="display:inline;fill:#ffffff;stroke:none;stroke-width:0.99999994" inkscape:connector-curvature="0"/>
        <path inkscape:connector-curvature="0" style="display:inline;fill:#000000;stroke:none;stroke-width:0.26458332" d="m 89.941654,127.07694 a 81.57505,81.57505 0 0 0 -5.76915,0.20464 l -0.19482,0.94051 -0.0434,1.23352 0.23926,2.90215 -5.8477,0.71003 -0.46199,-2.87528 -0.33745,-1.187 -0.41444,-0.86713 a 81.57505,81.57505 0 0 0 -5.91127,1.22008 l -0.0408,0.94671 0.15503,1.22473 0.70177,2.82617 -5.65805,1.63867 -0.91726,-2.76365 -0.52348,-1.11776 -0.56379,-0.81184 a 81.57505,81.57505 0 0 0 -5.63635,2.06449 l 0.12454,1.05161 0.34933,1.1839 1.14618,2.67685 -5.32163,2.52542 -1.34876,-2.58125 -0.69608,-1.01904 -0.78962,-0.81701 a 81.57505,81.57505 0 0 0 -5.15575,2.95743 l 0.31781,1.10847 0.53433,1.11258 1.56114,2.45827 -4.84776,3.34655 -1.74511,-2.33164 -0.8506,-0.89453 -0.93482,-0.69813 a 81.57505,81.57505 0 0 0 -4.60024,3.74291 l 0.50126,1.06505 0.70642,1.01235 1.93476,2.17662 -4.2478,4.08035 -2.09703,-2.02105 -0.98288,-0.74673 -1.08366,-0.5643 a 81.57505,81.57505 0 0 0 -3.97082,4.34184 l 0.74518,1.08677 0.85989,0.88572 2.25878,1.83761 -3.5388,4.70929 -2.393654,-1.65883 -1.089856,-0.57877 -1.291911,-0.42683 a 81.57505,81.57505 0 0 0 -3.081466,4.97591 l 0.900204,0.94308 0.990637,0.73639 2.524394,1.45161 -2.737301,5.21571 -2.62878,-1.25318 -1.168404,-0.39687 -1.299145,-0.20722 a 81.57505,81.57505 0 0 0 -2.319755,5.37538 l 1.071769,0.81029 1.09554,0.56792 2.724898,1.02786 -1.865519,5.58726 -2.795695,-0.81495 -1.21698,-0.20412 -1.379244,0.004 a 81.57505,81.57505 0 0 0 -1.439705,5.63687 l 1.263489,0.66818 1.173054,0.38496 2.85409,0.57725 -0.944645,5.81411 -2.890263,-0.35605 -1.23455,-0.006 -1.3890622,0.22998 a 81.57505,81.57505 0 0 0 -0.426848,5.81099 l 1.292944,0.43616 1.2195642,0.19172 2.9099,0.11213 v 5.8906 l -2.9099,0.11213 -1.2195642,0.19172 -1.346687,0.45424 a 81.57505,81.57505 0 0 0 0.526583,5.80067 l 1.3430702,0.22222 1.23455,-0.006 2.890263,-0.35605 0.944645,5.81412 -2.85409,0.57721 -1.173054,0.385 -1.202511,0.63613 a 81.57505,81.57505 0 0 0 1.33997,5.66942 l 1.418001,0.004 1.21698,-0.2041 2.795695,-0.81547 1.865519,5.58725 -2.724898,1.02786 -1.09554,0.56793 -1.139982,0.86196 a 81.57505,81.57505 0 0 0 2.373498,5.32577 l 1.313615,-0.20929 1.168404,-0.39687 2.62878,-1.25318 2.737301,5.21571 -2.524394,1.45161 -0.990637,0.73639 -0.893486,0.93586 a 81.57505,81.57505 0 0 0 3.151229,4.95834 l 1.21543,-0.40153 1.089856,-0.57928 2.393654,-1.65883 3.5388,4.70929 -2.25878,1.83761 -0.85989,0.88572 -0.7183,1.04801 a 81.57505,81.57505 0 0 0 3.87831,4.41524 l 1.14929,-0.59891 0.98288,-0.74673 2.09703,-2.02105 4.24781,4.08088 -1.93477,2.17609 -0.70642,1.01235 -0.52245,1.10898 a 81.57505,81.57505 0 0 0 4.63693,3.68763 l 0.91932,-0.68678 0.8506,-0.89453 1.74511,-2.33111 4.84777,3.34605 -1.56115,2.45824 -0.53433,1.11258 -0.30489,1.06352 a 81.57505,81.57505 0 0 0 5.15937,2.98585 l 0.77308,-0.79995 0.69608,-1.01957 1.34876,-2.58125 5.32164,2.52543 -1.14619,2.67684 -0.34933,1.1839 -0.12971,1.09763 a 81.57505,81.57505 0 0 0 5.61878,2.05102 l 0.58653,-0.84439 0.52348,-1.11776 0.91726,-2.76365 5.65805,1.63867 -0.70177,2.82617 -0.15503,1.22473 0.0413,0.95499 a 81.57505,81.57505 0 0 0 5.93504,1.16118 l 0.39016,-0.81651 0.33745,-1.187 0.46199,-2.87528 5.8477,0.71004 -0.23926,2.90213 0.0434,1.23354 0.17725,0.85524 a 81.57505,81.57505 0 0 0 5.78672,0.28991 81.57505,81.57505 0 0 0 0.27285,-0.0103 l 0.2558,-0.87384 0.14263,-1.22577 -0.005,-2.91248 5.88594,-0.23669 0.22893,2.90266 0.24081,1.21079 0.28836,0.75396 a 81.57505,81.57505 0 0 0 6.062676,-0.73586 l 0.0997,-0.80151 -0.0558,-1.23248 -0.47233,-2.87425 5.77123,-1.17821 0.69195,2.82876 0.43201,1.15652 0.36019,0.61908 a 81.57505,81.57505 0 0 0 5.90506,-1.78697 l -0.0238,-0.64027 -0.2527,-1.20769 -0.92707,-2.76056 5.50767,-2.08928 1.13637,2.6815 0.61185,1.07178 0.38085,0.46352 a 81.57505,81.57505 0 0 0 5.60948,-2.65512 l -0.11937,-0.59378 -0.4439,-1.15186 -1.35754,-2.57659 5.10098,-2.94503 1.55236,2.46393 0.77566,0.96015 0.46612,0.41032 a 81.57505,81.57505 0 0 0 5.06274,-3.62046 l -0.18087,-0.48112 -0.6227,-1.06608 -1.75338,-2.32492 4.56251,-3.72536 1.92754,2.18334 0.91932,0.8232 0.38292,0.24082 a 81.57505,81.57505 0 0 0 4.51394,-4.37544 l -0.21032,-0.36692 -0.78549,-0.9524 -2.10374,-2.01329 3.90622,-4.40904 2.25257,1.84589 1.03973,0.66455 0.38913,0.16434 a 81.57505,81.57505 0 0 0 3.80336,-5.00298 l -0.28887,-0.35605 -0.92759,-0.81392 -2.39985,-1.65002 3.14812,-4.9785 2.51975,1.46037 1.13275,0.48937 0.36638,0.0894 a 81.57505,81.57505 0 0 0 2.89233,-5.63068 l -0.23874,-0.21238 -1.04645,-0.65421 -2.63343,-1.24386 2.3089,-5.4193 2.72128,1.03764 1.19683,0.30181 0.30127,0.0233 a 81.57505,81.57505 0 0 0 2.03192,-6.01154 l -0.27544,-0.17518 -1.13791,-0.478 -2.7988,-0.80563 1.40973,-5.71905 2.85254,0.58756 1.22939,0.10544 0.37465,-0.0315 a 81.57505,81.57505 0 0 0 0.9462,-6.26266 l -0.27854,-0.11988 -1.19941,-0.2894 -2.89181,-0.34571 0.47387,-5.87147 2.9099,0.12247 1.23041,-0.093 0.26097,-0.0651 a 81.57505,81.57505 0 0 0 0.15917,-3.18378 81.57505,81.57505 0 0 0 -0.11214,-3.17241 l -0.308,-0.077 -1.23041,-0.093 -2.9099,0.12248 -0.47387,-5.87148 2.89181,-0.3457 1.19941,-0.2894 0.24598,-0.10541 a 81.57505,81.57505 0 0 0 -0.99477,-6.28386 l -0.29352,-0.0249 -1.22939,0.10544 -2.85254,0.58756 -1.40973,-5.71905 2.7988,-0.8051 1.13791,-0.47802 0.29662,-0.18863 a 81.57505,81.57505 0 0 0 -1.99522,-6.00323 l -0.35915,0.0279 -1.19683,0.30128 -2.72128,1.03767 -2.3089,-5.41931 2.63343,-1.24333 1.04645,-0.65476 0.24959,-0.22273 a 81.57505,81.57505 0 0 0 -2.94245,-5.61049 l -0.32711,0.0796 -1.13275,0.4894 -2.51975,1.46087 -3.14812,-4.979 2.39985,-1.65002 0.92759,-0.81341 0.2372,-0.29197 a 81.57505,81.57505 0 0 0 -3.71657,-5.08238 l -0.42427,0.17934 -1.03973,0.66455 -2.25257,1.84589 -3.90622,-4.40904 2.10374,-2.01332 0.78549,-0.9524 0.24391,-0.42529 a 81.57505,81.57505 0 0 0 -4.53926,-4.3217 l -0.39119,0.24545 -0.91932,0.82323 -1.92753,2.18331 -4.56252,-3.72536 1.75338,-2.32492 0.62271,-1.06608 0.17001,-0.45165 a 81.57505,81.57505 0 0 0 -5.11545,-3.5941 l -0.40256,0.35452 -0.77566,0.96014 -1.55236,2.46394 -5.10098,-2.94505 1.35754,-2.57607 0.4439,-1.15186 0.12144,-0.60359 a 81.57505,81.57505 0 0 0 -5.5733,-2.69235 l -0.4191,0.51006 -0.61185,1.07175 -1.13637,2.6815 -5.50767,-2.08875 0.92708,-2.76056 0.25269,-1.20819 0.0248,-0.66302 a 81.57505,81.57505 0 0 0 -5.92522,-1.73219 l -0.34107,0.58704 -0.43201,1.15652 -0.69195,2.82877 -5.77123,-1.17822 0.47233,-2.87373 0.0558,-1.233 -0.091,-0.72916 a 81.57505,81.57505 0 0 0 -6.061646,-0.83302 l -0.29817,0.77877 -0.24081,1.21077 -0.22893,2.90319 -5.88595,-0.2372 0.005,-2.91248 -0.14262,-1.22577 -0.25477,-0.86971 a 81.57505,81.57505 0 0 0 -0.27388,-0.0139 z m 0.52917,28.9574 a 52.986763,52.617645 0 0 1 52.986426,52.61748 52.986763,52.617645 0 0 1 -52.986426,52.61797 52.986763,52.617645 0 0 1 -52.98694,-52.61797 52.986763,52.617645 0 0 1 52.98694,-52.61748 z" id="path8692"/>
        <path inkscape:connector-curvature="0" style="display:inline;opacity:1;fill:#767676;fill-opacity:1;stroke:#000000;stroke-width:0.5;stroke-miterlimit:4;stroke-dasharray:none;stroke-opacity:1" d="m 90.004704,149.9789 a 58.668412,58.668412 0 0 0 -58.66877,58.66826 58.668412,58.668412 0 0 0 58.66877,58.66876 58.668412,58.668412 0 0 0 58.668256,-58.66876 58.668412,58.668412 0 0 0 -58.668256,-58.66826 z m 0.46612,6.05544 a 52.986763,52.617645 0 0 1 52.986426,52.61748 52.986763,52.617645 0 0 1 -52.986426,52.61797 52.986763,52.617645 0 0 1 -52.98694,-52.61797 52.986763,52.617645 0 0 1 52.98694,-52.61748 z" id="path2258"/>
        <path style="display:inline;fill:#363847;fill-opacity:1;stroke:none;stroke-width:0.26458332" d="m 90.004514,152.7076 a 55.939706,55.939706 0 0 0 -55.93974,55.93974 55.939706,55.939706 0 0 0 55.93974,55.93974 55.939706,55.939706 0 0 0 55.939746,-55.93974 55.939706,55.939706 0 0 0 -55.939746,-55.93974 z m 0,3.32226 a 52.986763,52.617645 0 0 1 52.986426,52.61748 52.986763,52.617645 0 0 1 -52.986426,52.61798 52.986763,52.617645 0 0 1 -52.98695,-52.61798 52.986763,52.617645 0 0 1 52.98695,-52.61748 z" id="ellipse8829" inkscape:connector-curvature="0"/>
        <g aria-label="moto-design" style="font-style:normal;font-variant:normal;font-weight:normal;font-stretch:normal;font-size:11.28888893px;line-height:1.25;font-family:serif;-inkscape-font-specification:serif;letter-spacing:0px;word-spacing:0px;display:inline;fill:#000000;fill-opacity:1;stroke:none;stroke-width:0.26458332" id="text2146" transform="translate(1.3831888,-6.61136)"/>
        <g id="text2181" style="font-style:normal;font-variant:normal;font-weight:normal;font-stretch:normal;font-size:11.28888893px;line-height:1.25;font-family:serif;-inkscape-font-specification:serif;letter-spacing:0px;word-spacing:0px;display:inline;fill:#000000;fill-opacity:1;stroke:none;stroke-width:0.26458332" aria-label="moto-design" transform="rotate(-154.84792,-121.20823,190.14309)">
          <path id="path2205" style="font-style:normal;font-variant:normal;font-weight:bold;font-stretch:normal;font-size:8.46666622px;font-family:serif;-inkscape-font-specification:'serif Bold';stroke-width:0.26458332;fill:#abacb2;fill-opacity:1" d="m -277.2779,311.27894 0.30253,0.39837 -0.49715,0.37754 2.05272,2.70303 0.49714,-0.37754 0.30253,0.39837 -1.66264,1.26263 -0.37504,-0.49385 q 0.0268,0.47279 -0.13814,0.81609 -0.16497,0.3433 -0.57651,0.65583 -0.58933,0.44755 -1.15396,0.32609 -0.56543,-0.11568 -1.07798,-0.79061 l -1.38765,-1.82726 -0.50043,0.38004 -0.30253,-0.39837 2.09064,-1.58767 0.30253,0.39838 -0.42471,0.32253 1.41265,1.86018 q 0.33753,0.44447 0.58278,0.52816 0.24445,0.0895 0.5243,-0.12303 0.35228,-0.26753 0.31938,-0.65264 -0.0304,-0.38182 -0.45795,-0.94481 l -1.19262,-1.57045 -0.42801,0.32503 -0.30253,-0.39837 z m 3.48319,2.11128 -2.61048,-2.81136 q -0.63012,-0.67861 -0.48859,-1.49829 0.13569,-0.8199 1.01727,-1.63849 0.32113,-0.29818 0.69916,-0.5533 0.37522,-0.25814 0.81644,-0.48167 l 0.71451,0.76949 -0.34233,0.31787 q -0.34081,-0.2759 -0.69331,-0.2363 -0.35553,0.0424 -0.74633,0.40529 -0.49684,0.46133 -0.47758,0.88913 0.0134,0.42759 0.5732,1.03046 l 0.34037,0.36657 q -0.0971,-0.37804 0.0208,-0.71885 0.11772,-0.33497 0.45702,-0.65003 0.68466,-0.63574 1.50045,-0.54701 0.81276,0.0915 1.54696,0.88224 0.73701,0.79373 0.76535,1.608 0.0253,0.81709 -0.65936,1.45283 -0.3393,0.31506 -0.68488,0.40464 -0.34579,0.0954 -0.7156,-0.0294 l 0.37976,0.40898 -1.52989,1.42058 -0.34038,-0.36657 z m 0.0654,-2.08036 q 0.52322,0.56348 0.90212,0.6799 0.3789,0.11643 0.69699,-0.17894 0.33325,-0.30943 0.22203,-0.70262 -0.11144,-0.38733 -0.75562,-1.08109 -0.64418,-0.69375 -1.02806,-0.83376 -0.38387,-0.14001 -0.71408,0.16661 -0.3181,0.29537 -0.23003,0.68184 0.0881,0.38648 0.61128,0.94996 z m 6.78502,-2.23987 q 0.24556,0.22767 0.2549,0.55203 0.0124,0.32717 -0.2153,0.57273 -0.22205,0.2395 -0.54641,0.24883 -0.32414,0.0152 -0.5697,-0.21249 -0.2395,-0.22205 -0.25187,-0.54922 -0.0121,-0.32133 0.2099,-0.56082 0.22767,-0.24556 0.55181,-0.26074 0.32414,-0.0152 0.56667,0.20968 z m -4.85604,-2.32052 -0.42723,0.4608 -0.36683,-0.3401 1.84666,-1.99176 0.36682,0.3401 -0.42442,0.45777 2.48895,2.30762 0.42442,-0.45778 0.36682,0.3401 -1.41942,1.53096 z m 4.12138,-5.37553 0.95301,0.77417 -0.29455,0.36259 q -0.41834,-0.26527 -0.81599,-0.18883 -0.39444,0.0791 -0.7307,0.49299 -0.28152,0.34655 -0.31137,0.62589 -0.0292,0.28516 0.19536,0.46763 0.20537,0.16682 0.41412,0.13933 0.20615,-0.0243 0.56327,-0.29343 l 0.4993,-0.37204 q 0.56165,-0.42258 0.99841,-0.46192 0.43997,-0.0367 0.85711,0.30212 0.55512,0.45095 0.51187,1.05496 -0.04,0.60662 -0.69171,1.40882 -0.24503,0.30162 -0.57267,0.60005 -0.32705,0.30424 -0.76919,0.63215 l -0.85996,-0.69857 0.29455,-0.3626 q 0.37322,0.25525 0.72956,0.17721 0.35374,-0.0748 0.68739,-0.48556 0.28151,-0.34655 0.31518,-0.61748 0.0343,-0.2651 -0.17752,-0.43714 -0.17327,-0.14076 -0.35615,-0.11889 -0.18289,0.0219 -0.46663,0.23347 l -0.49668,0.36883 q -0.71486,0.53248 -1.17367,0.58587 -0.45882,0.0534 -0.90484,-0.30894 -0.57758,-0.4692 -0.51728,-1.1073 0.0609,-0.63229 0.7673,-1.50187 0.25806,-0.31767 0.59553,-0.63475 0.33746,-0.31707 0.75695,-0.63676 z m 3.33755,-0.63411 q 0.71705,0.48944 1.09476,0.55205 0.38113,0.0649 0.60022,-0.25603 0.21209,-0.31072 0.0219,-0.64074 -0.19251,-0.32661 -0.85834,-0.78109 l -0.0615,-0.042 z m -1.31296,1.05089 1.70372,-2.49601 -0.0273,-0.0186 q -0.70339,-0.48012 -1.16203,-0.48284 -0.45522,-3.9e-4 -0.77685,0.47081 -0.26803,0.39267 -0.22522,0.77727 0.0428,0.3846 0.39228,0.72325 l -0.3869,0.56681 q -0.5178,-0.56868 -0.50971,-1.20384 0.008,-0.63517 0.54415,-1.4205 0.64326,-0.94241 1.4833,-1.10981 0.84113,-0.16165 1.76305,0.46763 0.90143,0.61529 1.05485,1.47582 0.15341,0.86053 -0.47354,1.77904 -0.6153,0.90143 -1.47658,1.01929 -0.85788,0.12019 -1.90321,-0.54828 z m 4.0306,-6.28986 0.37972,0.21033 q 0.67265,0.37259 1.06896,0.36526 0.39632,-0.007 0.60665,-0.38705 0.22034,-0.3978 -0.008,-0.73681 -0.22649,-0.3334 -1.05464,-0.79212 -0.82816,-0.45872 -1.23654,-0.47226 -0.40838,-0.0135 -0.62673,0.38065 -0.21033,0.37972 -0.006,0.71957 0.20401,0.33985 0.87666,0.71243 z m -2.00378,0.56308 -0.30248,0.54607 -0.43758,-0.24238 1.01159,-1.82628 0.48821,0.27043 q -0.21002,-0.329 -0.20405,-0.68959 0.008,-0.35497 0.23194,-0.76001 0.45271,-0.8173 1.25558,-0.98696 0.80086,-0.16605 1.74474,0.35677 0.9475,0.52483 1.22793,1.28981 0.27844,0.7686 -0.17427,1.58591 -0.22436,0.40503 -0.52487,0.59775 -0.29889,0.19834 -0.6892,0.19481 l 1.83713,1.0176 0.30448,-0.54969 0.43397,0.24038 -1.0136,1.82989 z m 5.83564,-6.33853 -1.07719,2.36221 -1.01561,-0.46312 1.0772,-2.36222 z m -1.0436,-4.11232 q -0.15955,0.43466 0.14891,0.74606 0.30704,0.31528 1.30055,0.67997 0.99352,0.36468 1.42631,0.32537 0.43668,-0.0379 0.59765,-0.47642 0.16098,-0.43855 -0.14994,-0.75525 -0.30704,-0.31528 -1.2928,-0.67712 -0.98575,-0.36184 -1.42773,-0.3215 -0.44198,0.0403 -0.60295,0.47889 z m -0.43855,-0.16098 q 0.4003,-1.09053 1.20649,-1.49922 0.80864,-0.40339 1.82544,-0.0301 1.02069,0.37466 1.36856,1.20256 0.35032,0.8332 -0.05,1.92374 -0.40172,1.09442 -1.20648,1.49923 -0.80088,0.40623 -1.82156,0.0316 -1.01681,-0.37323 -1.37101,-1.20786 -0.35176,-0.82933 0.0485,-1.91987 z m 5.63423,-4.54489 0.17126,-0.61318 0.48179,0.13456 -0.17127,0.61319 1.31397,0.367 -0.39369,1.40953 -1.31397,-0.367 -0.32808,1.1746 -0.48178,-0.13456 0.32807,-1.17461 -2.5921,-0.72399 q -0.55345,-0.15459 -0.7133,-0.10481 -0.15984,0.0498 -0.22435,0.28073 -0.0712,0.25483 0.0656,0.42608 0.13674,0.17126 0.49287,0.27931 l -0.16571,0.59328 q -0.62706,-0.21378 -0.79801,-0.60062 -0.16809,-0.38175 0.0454,-1.14624 0.24356,-0.872 0.60106,-1.10694 0.36148,-0.23384 1.09014,-0.0303 z m -2.60778,-4.55905 q -0.0888,0.45442 0.26499,0.71314 0.35302,0.26278 1.39169,0.46581 1.03868,0.20304 1.45981,0.0958 0.42519,-0.10644 0.51482,-0.56492 0.0896,-0.45847 -0.26746,-0.72204 -0.35302,-0.26278 -1.38358,-0.46423 -1.03056,-0.20145 -1.46061,-0.0917 -0.43004,0.10971 -0.51966,0.56818 z m -0.45848,-0.0896 q 0.22287,-1.14011 0.9543,-1.67111 0.73471,-0.52614 1.79773,-0.31835 1.06707,0.20859 1.54145,0.97108 0.47765,0.76735 0.25478,1.90746 -0.22365,1.14416 -0.9543,1.6711 -0.72659,0.52774 -1.79366,0.31915 -1.06302,-0.20779 -1.54472,-0.97593 -0.47844,-0.76329 -0.25558,-1.9034 z m 4.70214,-6.29429 q 0.41478,0.33702 0.5868,0.70606 0.17615,0.36934 0.14153,0.8435 -0.0551,0.75454 -0.51098,1.09431 -0.45208,0.34421 -1.31381,0.28129 l -2.28835,-0.16706 -0.0457,0.62672 -0.4989,-0.0364 0.19054,-2.60995 0.4989,0.0364 -0.0382,0.52364 2.06982,0.15111 q 0.8205,0.0599 1.04424,-0.0523 0.22343,-0.10804 0.24842,-0.45026 0.0283,-0.38757 -0.25705,-0.62395 -0.28121,-0.23608 -0.83371,-0.27641 l -2.16877,-0.15833 -0.0382,0.52364 -0.4989,-0.0364 0.18301,-2.50687 0.4989,0.0364 -0.0382,0.52363 2.06982,0.15111 q 0.82051,0.0599 1.04424,-0.0523 0.22374,-0.11217 0.24842,-0.45026 0.0286,-0.3917 -0.25674,-0.62808 -0.28122,-0.23608 -0.83372,-0.27641 l -2.16877,-0.15833 -0.0382,0.52364 -0.4989,-0.0364 0.19024,-2.60582 0.4989,0.0364 -0.0454,0.6226 3.3851,0.24713 0.0454,-0.6226 0.4989,0.0364 -0.15201,2.08219 -0.61847,-0.0451 q 0.36479,0.28363 0.518,0.62642 0.15322,0.3428 0.12011,0.79634 -0.0391,0.53601 -0.26967,0.85493 -0.22642,0.31923 -0.66847,0.46934 z" inkscape:connector-curvature="0"/>
        </g>
      </g>
      <g transform="matrix(0.59660544,0,0,0.59660544,132.29842,61.747255)" id="g2130">
        <path inkscape:connector-curvature="0" d="m 59.411416,267.78542 a 0.37425714,0.37425714 0 0 0 -0.375,0.375 v 0.82617 a 0.37425714,0.37425714 0 0 0 0.375,0.375 h 0.671875 v 2.16016 c -0.09713,-0.0725 -0.184451,-0.15847 -0.292969,-0.21485 -0.415674,-0.22284 -0.910656,-0.32617 -1.46875,-0.32617 -1.120532,0 -2.066654,0.39094 -2.734375,1.15625 a 0.37425714,0.37425714 0 0 0 -0.002,0.002 c -0.663644,0.76653 -0.980469,1.8113 -0.980469,3.07618 0,1.26051 0.317908,2.30575 0.980469,3.07617 0.66751,0.7702 1.615493,1.16406 2.736328,1.16406 0.558912,0 1.054051,-0.0991 1.470703,-0.31836 a 0.37425714,0.37425714 0 0 0 0.002,-0.002 c 0.107949,-0.0575 0.1943,-0.14366 0.291015,-0.2168 a 0.37425714,0.37425714 0 0 0 0.373047,0.33789 h 3.478516 a 0.37425714,0.37425714 0 0 0 0.375,-0.375 v -0.83398 a 0.37425714,0.37425714 0 0 0 -0.375,-0.375 h -0.664063 v -9.51172 a 0.37425714,0.37425714 0 0 0 -0.375,-0.375 z m 24.404297,0 c -0.457581,0 -0.885838,0.17489 -1.207031,0.49609 -0.3206,0.31654 -0.498047,0.74378 -0.498047,1.20118 0,0.45538 0.178529,0.88153 0.5,1.19726 0.321398,0.31566 0.748342,0.48633 1.205078,0.48633 0.449693,0 0.871305,-0.17404 1.1875,-0.49024 0.319654,-0.31965 0.496094,-0.7428 0.496094,-1.19335 0,-0.45609 -0.174843,-0.88398 -0.496094,-1.20118 -0.315632,-0.31969 -0.738423,-0.49609 -1.1875,-0.49609 z m -49.84375,1.12305 a 0.37425714,0.37425714 0 0 0 -0.375,0.375 v 1.89843 h -0.685547 a 0.37425714,0.37425714 0 0 0 -0.375,0.375 v 0.83399 a 0.37425714,0.37425714 0 0 0 0.375,0.375 h 0.685547 v 4.10937 c 0,0.89367 0.182719,1.59177 0.664062,2.01758 a 0.37425714,0.37425714 0 0 0 0.002,0 c 0.489118,0.42642 1.248216,0.5625 2.292968,0.5625 0.923647,0 1.624798,-0.13774 2.09961,-0.52734 0.4736,-0.38967 0.69562,-1.02326 0.740234,-1.81641 a 0.37425714,0.37425714 0 0 0 -0.373047,-0.39648 h -1.027344 a 0.37425714,0.37425714 0 0 0 -0.375,0.36718 c -0.0083,0.37229 -0.08235,0.60529 -0.154297,0.70508 -0.07061,0.0979 -0.140236,0.13867 -0.351562,0.13867 -0.195029,0 -0.217221,-0.031 -0.236328,-0.0605 0.01268,0.0196 -0.03437,-0.0856 -0.05664,-0.25977 -0.02227,-0.17411 -0.03516,-0.42124 -0.03516,-0.73047 v -4.10937 h 1.658203 a 0.37425714,0.37425714 0 0 0 0.375,-0.375 v -0.83399 a 0.37425714,0.37425714 0 0 0 -0.375,-0.375 h -1.658203 v -1.89843 a 0.37425714,0.37425714 0 0 0 -0.375,-0.375 z m -19.513672,2.07226 c -0.554339,0 -1.056262,0.11064 -1.486328,0.3418 -0.152625,0.082 -0.288344,0.19914 -0.425781,0.3125 v -0.0781 a 0.37425714,0.37425714 0 0 0 -0.375,-0.375 H 8.6926662 a 0.37425714,0.37425714 0 0 0 -0.375,0.375 v 0.83399 a 0.37425714,0.37425714 0 0 0 0.375,0.375 h 0.664063 v 4.90625 h -0.664063 a 0.37425714,0.37425714 0 0 0 -0.375,0.375 v 0.83398 a 0.37425714,0.37425714 0 0 0 0.375,0.375 h 4.3535158 a 0.37425714,0.37425714 0 0 0 0.30664,-0.16211 0.37425714,0.37425714 0 0 0 0.306641,0.16211 h 4.189453 a 0.37425714,0.37425714 0 0 0 0.302734,-0.1582 0.37425714,0.37425714 0 0 0 0.304688,0.1582 h 4.361328 a 0.37425714,0.37425714 0 0 0 0.375,-0.375 v -0.83398 a 0.37425714,0.37425714 0 0 0 -0.375,-0.375 h -0.673828 v -3.44922 c 0,-1.01243 -0.219459,-1.82727 -0.71875,-2.39453 -0.49547,-0.57254 -1.252503,-0.84766 -2.164063,-0.84766 -0.579932,0 -1.110028,0.12765 -1.566406,0.38672 -4.4e-4,2.5e-4 -0.0015,-2.5e-4 -0.002,0 -7.3e-4,4.2e-4 -0.0012,0.002 -0.002,0.002 -0.314528,0.17619 -0.595415,0.44202 -0.863281,0.7461 -0.197813,-0.29494 -0.426166,-0.55584 -0.716797,-0.73242 l -0.0039,-0.002 c -0.447426,-0.27501 -1.004546,-0.40039 -1.648438,-0.40039 z m 13.402344,0 c -1.357043,0 -2.480044,0.37005 -3.294922,1.12891 -0.811281,0.75515 -1.214844,1.82194 -1.214844,3.10547 0,1.27921 0.40551,2.34585 1.214844,3.10937 a 0.37425714,0.37425714 0 0 0 0,0.002 c 0.814878,0.75885 1.937879,1.12891 3.294922,1.12891 1.357042,0 2.476636,-0.36941 3.287109,-1.12891 0.814016,-0.76314 1.222656,-1.83144 1.222656,-3.11132 0,-1.28353 -0.403561,-2.35032 -1.214843,-3.10547 -0.810873,-0.75988 -1.933521,-1.12891 -3.294922,-1.12891 z m 15.957031,0 c -1.357043,0 -2.478333,0.37027 -3.292969,1.12891 -0.811282,0.75515 -1.214844,1.82194 -1.214844,3.10547 0,1.27921 0.405509,2.34585 1.214844,3.10937 a 0.37425714,0.37425714 0 0 0 0,0.002 c 0.814636,0.75863 1.935926,1.12891 3.292969,1.12891 1.357042,0 2.478346,-0.36918 3.289063,-1.12891 0.814256,-0.76336 1.220703,-1.83185 1.220703,-3.11132 0,-1.28353 -0.403564,-2.35032 -1.214844,-3.10547 -0.810874,-0.75988 -1.933522,-1.12891 -3.294922,-1.12891 z m 24.962891,0 c -1.304622,0 -2.381745,0.3717 -3.154297,1.12891 -0.772861,0.7575 -1.154297,1.82132 -1.154297,3.10547 0,1.3083 0.367916,2.38088 1.125,3.13281 a 0.37425714,0.37425714 0 0 0 0.002,0.002 c 0.762837,0.74739 1.848516,1.10547 3.181641,1.10547 1.102658,0 1.999863,-0.20087 2.673828,-0.64844 0.673425,-0.44719 1.122055,-1.15829 1.335937,-2.05859 a 0.37425714,0.37425714 0 0 0 -0.363281,-0.46094 h -1.144531 a 0.37425714,0.37425714 0 0 0 -0.369141,0.31055 c -0.08113,0.47056 -0.251324,0.78467 -0.501953,1 -0.250348,0.21509 -0.574843,0.32812 -1.037109,0.32812 -0.551667,0 -0.858471,-0.15195 -1.070313,-0.46289 -0.181989,-0.27119 -0.297544,-0.81091 -0.332031,-1.52148 h 4.632812 a 0.37425714,0.37425714 0 0 0 0.375,-0.38672 c -0.04301,-1.43387 -0.405713,-2.57514 -1.130859,-3.37305 -0.725495,-0.80267 -1.781708,-1.20117 -3.068359,-1.20117 z m 8.455078,0 c -1.189646,0 -2.112698,0.1941 -2.763672,0.6543 -0.65004,0.45503 -0.988281,1.19652 -0.988281,2.07812 0,0.66893 0.204955,1.2566 0.617187,1.68555 a 0.37425714,0.37425714 0 0 0 0.002,0.002 c 0.412904,0.42408 1.02533,0.70995 1.822266,0.90821 l 1.005859,0.25586 a 0.37425714,0.37425714 0 0 0 0.002,0 c 0.454055,0.11243 0.730411,0.25769 0.798829,0.32421 a 0.37425714,0.37425714 0 0 0 0.0039,0.004 c 0.088,0.0832 0.138672,0.18908 0.138672,0.41016 0,0.21642 -0.05223,0.31352 -0.228516,0.42969 -3.43e-4,2.2e-4 -0.0016,-2.3e-4 -0.002,0 -0.170973,0.11051 -0.47867,0.19335 -0.931641,0.19335 -0.531909,0 -0.903468,-0.12174 -1.166015,-0.33789 l -0.002,-0.002 c -0.263244,-0.22204 -0.424479,-0.53188 -0.480469,-1.00781 a 0.37425714,0.37425714 0 0 0 -0.371094,-0.33203 h -0.777344 a 0.37425714,0.37425714 0 0 0 -0.375,0.375 v 2.04492 a 0.37425714,0.37425714 0 0 0 0.28711,0.36328 c 0.580332,0.1404 1.13165,0.24747 1.65625,0.31836 0.524451,0.0709 1.024307,0.10742 1.498047,0.10742 1.284005,0 2.265977,-0.19082 2.955078,-0.64844 a 0.37425714,0.37425714 0 0 0 0,-0.002 c 0.692659,-0.46178 1.05664,-1.22641 1.05664,-2.14258 0,-0.71011 -0.216695,-1.32749 -0.664062,-1.76367 -0.454064,-0.44271 -1.170826,-0.74666 -2.16211,-0.99805 l -0.998046,-0.2539 c -0.349346,-0.0884 -0.563496,-0.20604 -0.625,-0.26563 -0.06896,-0.0668 -0.105469,-0.1425 -0.105469,-0.3164 0,-0.19927 0.03974,-0.26935 0.201172,-0.36914 a 0.37425714,0.37425714 0 0 0 0.002,-0.002 c 0.165827,-0.10365 0.476487,-0.18359 0.93164,-0.18359 0.53439,0 0.891902,0.11428 1.115235,0.29492 a 0.37425714,0.37425714 0 0 0 0.002,0.002 c 0.229096,0.18262 0.36319,0.44225 0.398437,0.86914 a 0.37425714,0.37425714 0 0 0 0.373047,0.34375 h 0.777344 a 0.37425714,0.37425714 0 0 0 0.375,-0.375 v -1.84765 a 0.37425714,0.37425714 0 0 0 -0.283203,-0.36328 c -0.602075,-0.15402 -1.153043,-0.26468 -1.660156,-0.33594 -0.502581,-0.0759 -0.981906,-0.11719 -1.435547,-0.11719 z m 13.249996,0 c -1.120526,0 -2.06665,0.39094 -2.734371,1.15625 a 0.37425714,0.37425714 0 0 0 -0.002,0.002 c -0.663645,0.76653 -0.980469,1.8113 -0.980469,3.07618 0,1.26051 0.317906,2.30575 0.980469,3.07617 0.667509,0.7702 1.615495,1.16406 2.736321,1.16406 0.55892,0 1.05261,-0.0993 1.46875,-0.31836 a 0.37425714,0.37425714 0 0 0 0.002,-0.002 c 0.10179,-0.0542 0.18336,-0.13691 0.27539,-0.20508 -0.0209,0.77107 -0.16521,1.29487 -0.35938,1.51758 a 0.37425714,0.37425714 0 0 0 -0.004,0.004 c -0.21,0.24762 -0.61296,0.41016 -1.30664,0.41016 -0.541787,0 -0.91512,-0.10818 -1.148439,-0.27734 l -0.002,-0.002 c -0.228027,-0.16944 -0.371236,-0.41506 -0.429687,-0.82421 a 0.37425714,0.37425714 0 0 0 -0.37094,-0.32233 h -0.777344 a 0.37425714,0.37425714 0 0 0 -0.375,0.375 v 1.75 a 0.37425714,0.37425714 0 0 0 0.271484,0.35938 c 0.541384,0.15534 1.070455,0.2715 1.587891,0.34765 0.518842,0.0809 1.032115,0.12305 1.539065,0.12305 1.38868,0 2.51038,-0.29382 3.32812,-0.92578 0.82301,-0.62755 1.25,-1.56382 1.25,-2.68164 v -6.01758 h 0.66602 a 0.37425714,0.37425714 0 0 0 0.375,-0.375 v -0.83399 a 0.37425714,0.37425714 0 0 0 -0.375,-0.375 h -3.47852 a 0.37425714,0.37425714 0 0 0 -0.37304,0.34375 c -0.0986,-0.0738 -0.18686,-0.16159 -0.29688,-0.21875 -0.41515,-0.22257 -0.90871,-0.32617 -1.4668,-0.32617 z m 12.339849,0 c -0.61681,0 -1.15125,0.10438 -1.59571,0.33203 -0.16487,0.0845 -0.31309,0.20706 -0.46093,0.32813 v -0.084 a 0.37425714,0.37425714 0 0 0 -0.375,-0.375 h -3.480469 a 0.37425714,0.37425714 0 0 0 -0.375,0.375 v 0.83399 a 0.37425714,0.37425714 0 0 0 0.375,0.375 h 0.66601 v 4.90625 h -0.66601 a 0.37425714,0.37425714 0 0 0 -0.375,0.375 v 0.83398 a 0.37425714,0.37425714 0 0 0 0.375,0.375 h 4.376949 a 0.37425714,0.37425714 0 0 0 0.35156,-0.24414 0.37425714,0.37425714 0 0 0 0.34961,0.24414 h 4.37696 a 0.37425714,0.37425714 0 0 0 0.375,-0.375 v -0.83398 a 0.37425714,0.37425714 0 0 0 -0.375,-0.375 h -0.67383 v -3.44922 c 0,-0.99623 -0.22332,-1.80748 -0.72461,-2.38086 l -0.002,-0.002 c -0.49719,-0.57771 -1.24754,-0.85938 -2.14258,-0.85938 z m -21.152345,0.20117 a 0.37425714,0.37425714 0 0 0 -0.375,0.375 v 0.83399 a 0.37425714,0.37425714 0 0 0 0.375,0.375 h 0.666015 v 4.90625 h -0.666015 a 0.37425714,0.37425714 0 0 0 -0.375,0.375 v 0.83398 a 0.37425714,0.37425714 0 0 0 0.375,0.375 h 4.527344 a 0.37425714,0.37425714 0 0 0 0.375,-0.375 v -0.83398 a 0.37425714,0.37425714 0 0 0 -0.375,-0.375 H 85.52665 v -6.11524 a 0.37425714,0.37425714 0 0 0 -0.375,-0.375 z m -53.8125,1.32813 c 0.412778,0 0.594178,0.11288 0.75,0.44531 a 0.37425714,0.37425714 0 0 0 0,0.002 c 0.15118,0.31916 0.273437,1.10392 0.273437,2.25782 0,1.15362 -0.124158,1.9399 -0.279297,2.26367 a 0.37425714,0.37425714 0 0 0 0,0.004 c -0.155891,0.33256 -0.33596,0.44335 -0.74414,0.44335 -0.412168,0 -0.597416,-0.1149 -0.757813,-0.45312 -0.157054,-0.33118 -0.279297,-1.11355 -0.279297,-2.25781 0,-1.14427 0.123735,-1.92535 0.279297,-2.25 a 0.37425714,0.37425714 0 0 0 0,-0.002 c 0.160399,-0.33823 0.345645,-0.45312 0.757813,-0.45312 z m 15.957031,0 c 0.412778,0 0.596515,0.1137 0.751953,0.44531 a 0.37425714,0.37425714 0 0 0 0,0.002 c 0.150789,0.31834 0.271484,1.1035 0.271484,2.25782 0,1.15362 -0.124158,1.9399 -0.279296,2.26367 a 0.37425714,0.37425714 0 0 0 0,0.004 c -0.155891,0.33256 -0.335961,0.44335 -0.744141,0.44335 -0.412167,0 -0.597415,-0.1149 -0.757813,-0.45312 -0.157053,-0.33118 -0.279296,-1.11355 -0.279296,-2.25781 0,-1.14427 0.123735,-1.92535 0.279296,-2.25 a 0.37425714,0.37425714 0 0 0 0,-0.002 c 0.160399,-0.33823 0.345646,-0.45312 0.757813,-0.45312 z m 24.921875,0 c 0.191355,-0.39486 1.236447,1.32416 0.578125,0.36914 0.102902,0.22164 0.154712,0.83618 0.185547,1.49219 h -1.525391 c 0.02353,-0.67856 0.08556,-1.26277 0.197266,-1.50196 0.135659,-0.28149 0.260443,-0.35937 0.564453,-0.35937 z m -9.666016,0.29687 c 0.383513,0 0.569249,0.10599 0.730469,0.38477 0.159667,0.27608 0.279297,0.84363 0.279297,1.66602 v 0.72265 c 0,0.82239 -0.119624,1.38991 -0.279297,1.66602 -0.161218,0.27877 -0.346951,0.38476 -0.730469,0.38476 -0.399442,0 -0.575377,-0.10668 -0.726562,-0.40234 -0.146977,-0.28743 -0.269531,-0.9864 -0.269531,-2.01367 0,-1.02674 0.119663,-1.72576 0.261718,-2.00782 v -0.002 c 0.150082,-0.29263 0.329185,-0.39844 0.734375,-0.39844 z m 32.164066,0 c 0.3835,0 0.56681,0.10516 0.72851,0.38477 0.16015,0.27691 0.28125,0.84419 0.28125,1.66602 v 0.72265 c 0,0.82182 -0.12109,1.38909 -0.28125,1.66602 -0.1617,0.27961 -0.345,0.38476 -0.72851,0.38476 -0.39945,0 -0.57777,-0.10754 -0.72852,-0.40234 -0.14698,-0.28742 -0.26953,-0.9864 -0.26953,-2.01367 0,-1.02628 0.12117,-1.7249 0.26367,-2.00782 v -0.002 c 0.15008,-0.29262 0.32919,-0.39844 0.73438,-0.39844 z m -77.695316,0.0684 c 0.127055,-0.7136 1.765393,2.36331 0.56836,0.64063 0.03249,0.26414 0.04883,0.62483 0.04883,1.07226 v 3.08399 h -0.5 a 0.37425714,0.37425714 0 0 0 -0.306641,0.16211 0.37425714,0.37425714 0 0 0 -0.30664,-0.16211 h -0.5 v -3.25 c 0,-0.56669 0.112153,-0.95697 0.287109,-1.19922 a 0.37425714,0.37425714 0 0 0 0.002,-0.002 c 0.176895,-0.24834 0.367032,-0.34571 0.707031,-0.34571 z m 4.796875,0 c 0.143485,-0.032 0.529828,0.32888 0.455079,0.17578 0.0178,0.0299 0.07841,0.20277 0.111328,0.4668 0.03292,0.26404 0.05078,0.62315 0.05078,1.07031 v 3.08399 h -0.5 a 0.37425714,0.37425714 0 0 0 -0.302735,0.1582 0.37425714,0.37425714 0 0 0 -0.304687,-0.1582 h -0.5 v -3.25 c 0,-0.56669 0.112153,-0.95697 0.287109,-1.19922 a 0.37425714,0.37425714 0 0 0 0.002,-0.002 c 0.177257,-0.24885 0.36679,-0.34571 0.701171,-0.34571 z m 83.48047,0 c 0.15333,-0.0213 0.59194,0.3713 0.50976,0.19922 0.0765,0.11363 0.17578,0.49193 0.17579,1.08008 v 3.51758 h -0.51368 a 0.37425714,0.37425714 0 0 0 -0.35156,0.24414 0.37425714,0.37425714 0 0 0 -0.34961,-0.24414 h -0.52148 v -2.91211 c 0,-0.74926 0.12064,-1.2601 0.2832,-1.51367 a 0.37425714,0.37425714 0 0 0 0.002,-0.002 c 0.16519,-0.261 0.36653,-0.36914 0.76563,-0.36914 z m -52.523438,0.91797 a 0.37425714,0.37425714 0 0 0 -0.375,0.375 v 1.85938 a 0.37425714,0.37425714 0 0 0 0.375,0.375 h 4.326171 a 0.37425714,0.37425714 0 0 0 0.375,-0.375 v -1.85938 a 0.37425714,0.37425714 0 0 0 -0.375,-0.375 z" style="font-style:normal;font-variant:normal;font-weight:bold;font-stretch:normal;font-size:14.11111069px;line-height:1.25;font-family:serif;-inkscape-font-specification:'serif Bold';letter-spacing:0px;word-spacing:0px;fill:#ffffff;fill-opacity:1;stroke:none;stroke-width:0.26458332" id="path2066"/>
        <path inkscape:connector-curvature="0" d="m 96.914181,278.88074 v -0.83371 h 1.04042 v -5.65685 h -1.04042 v -0.83371 h 3.479549 V 272.59 q 0.44097,-0.65457 1.00597,-0.94396 0.56499,-0.28939 1.42627,-0.28939 1.23334,0 1.86035,0.73036 0.6339,0.72347 0.6339,2.13596 v 3.82406 h 1.0473 v 0.83371 h -4.37527 v -0.83371 h 0.88884 v -3.89296 q 0,-0.93018 -0.24116,-1.28847 -0.23427,-0.36518 -0.81993,-0.36518 -0.73725,0 -1.08176,0.54433 -0.34451,0.53743 -0.34451,1.71566 v 3.28662 h 0.89572 v 0.83371 z m -1.85347,-6.49056 v 6.3941 q 0,1.5434 -1.10243,2.384 -1.09554,0.8475 -3.10058,0.8475 -0.73036,0 -1.481393,-0.11714 -0.751031,-0.11024 -1.543403,-0.33761 v -1.75011 h 0.778592 q 0.103353,0.72347 0.578776,1.07487 0.482313,0.3514 1.371148,0.3514 1.12999,0 1.59163,-0.54433 0.46854,-0.53743 0.46854,-1.90858 v -0.83371 q -0.31006,0.57188 -0.84061,0.85438 -0.52365,0.27561 -1.29535,0.27561 -1.557185,0 -2.45291,-1.03353 -0.888835,-1.03353 -0.888835,-2.83187 0,-1.80523 0.888835,-2.83187 0.895725,-1.02664 2.45291,-1.02664 0.7717,0 1.29535,0.2825 0.53055,0.27561 0.84061,0.84749 v -0.93017 h 3.47954 v 0.83371 z m -2.43912,2.46669 q 0,-1.28158 -0.33073,-1.85346 -0.33073,-0.57189 -1.0542,-0.57189 -0.75792,0 -1.06798,0.60634 -0.303169,0.59945 -0.303169,2.1773 0,1.57785 0.310059,2.18419 0.31006,0.60634 1.06109,0.60634 0.72347,0 1.0542,-0.57189 0.33073,-0.57188 0.33073,-1.85346 z m -10.135469,-5.37435 q 0,-0.5581 0.385851,-0.93707 0.385851,-0.38585 0.943956,-0.38585 0.544325,0 0.923286,0.38585 0.38585,0.37897 0.38585,0.93707 0,0.54433 -0.38585,0.93018 -0.378961,0.37896 -0.923286,0.37896 -0.558105,0 -0.943956,-0.37896 -0.385851,-0.37896 -0.385851,-0.93018 z m 2.666504,8.56451 h 1.047309 v 0.83371 H 81.67308 v -0.83371 h 1.040418 v -5.65685 H 81.67308 v -0.83371 h 3.479546 z m -11.237901,0.62012 v -2.04639 h 0.778591 q 0.09646,0.81993 0.613227,1.25401 0.516764,0.4272 1.405599,0.4272 0.744141,0 1.136882,-0.25494 0.399631,-0.26183 0.399631,-0.74414 0,-0.44097 -0.254937,-0.68213 -0.248047,-0.24116 -0.971517,-0.4203 l -1.005968,-0.25494 q -1.136882,-0.2825 -1.646756,-0.80615 -0.509874,-0.53055 -0.509874,-1.42627 0,-1.19201 0.826823,-1.77078 0.826823,-0.58567 2.549371,-0.58567 0.647677,0 1.378038,0.11025 0.73725,0.10335 1.626085,0.33072 v 1.84658 h -0.778592 q -0.06201,-0.75103 -0.537435,-1.13 -0.468533,-0.37896 -1.350477,-0.37896 -0.744141,0 -1.129991,0.24116 -0.378961,0.23427 -0.378961,0.68902 0,0.37207 0.220486,0.58567 0.220486,0.21359 0.792372,0.35829 l 0.999078,0.25493 q 1.44005,0.36518 1.991265,0.90262 0.551215,0.53743 0.551215,1.49517 0,1.24023 -0.888834,1.83279 -0.881945,0.58567 -2.749187,0.58567 -0.682128,0 -1.44694,-0.10336 -0.764811,-0.10335 -1.619194,-0.31005 z m -3.989422,-3.92052 q 0,-1.44694 -0.268717,-2.02572 -0.268718,-0.58567 -0.916396,-0.58567 -0.627007,0 -0.902615,0.57189 -0.268717,0.57189 -0.268717,1.91547 v 0.12403 z m 2.680284,0.81993 h -5.036729 v 0.0551 q 0,1.41938 0.427192,2.05328 0.427191,0.62701 1.378038,0.62701 0.792372,0 1.281575,-0.42031 0.489204,-0.4203 0.627008,-1.21956 h 1.143771 q -0.296278,1.24712 -1.178222,1.83279 -0.881945,0.58567 -2.466689,0.58567 -1.901692,0 -2.921441,-0.99908 -1.012858,-1.00597 -1.012858,-2.86632 0,-1.81901 1.040419,-2.83876 1.040419,-1.01975 2.89388,-1.01975 1.819011,0 2.790528,1.07487 0.971517,1.06798 1.033528,3.13504 z m -12.147406,0.0138 v -0.72347 q 0,-1.28158 -0.330729,-1.85346 -0.330729,-0.57189 -1.054199,-0.57189 -0.757921,0 -1.067979,0.60634 -0.303169,0.59945 -0.303169,2.1773 0,1.57785 0.310059,2.18419 0.310058,0.60634 1.061089,0.60634 0.72347,0 1.054199,-0.57189 0.330729,-0.57188 0.330729,-1.85346 z m 2.439128,2.46669 h 1.040419 v 0.83371 h -3.479547 v -0.93017 q -0.310058,0.57188 -0.840603,0.85438 -0.523654,0.27561 -1.295356,0.27561 -1.557183,0 -2.452908,-1.03353 -0.888834,-1.03353 -0.888834,-2.83187 0,-1.80523 0.888834,-2.83187 0.895725,-1.02664 2.452908,-1.02664 0.771702,0 1.295356,0.2825 0.530545,0.27561 0.840603,0.84749 v -3.50021 h -1.047309 v -0.82683 h 3.486437 z M 49.29607,274.16787 h 4.32704 v 1.86035 h -4.32704 z m -5.4777,4.13412 q 0.771701,0 1.08176,-0.66146 0.316948,-0.66146 0.316948,-2.42535 0,-1.76389 -0.310058,-2.41846 -0.310059,-0.66146 -1.08865,-0.66146 -0.778592,0 -1.095541,0.66835 -0.316948,0.66146 -0.316948,2.41157 0,1.75011 0.316948,2.41846 0.316949,0.66835 1.095541,0.66835 z m 0,0.77859 q -1.936144,0 -3.038574,-1.02664 -1.095541,-1.03353 -1.095541,-2.83876 0,-1.81212 1.095541,-2.83187 1.10243,-1.02664 3.038574,-1.02664 1.943033,0 3.038574,1.02664 1.09554,1.01975 1.09554,2.83187 0,1.80523 -1.10243,2.83876 -1.095541,1.02664 -3.031684,1.02664 z m -9.846082,-6.69038 h -1.06109 v -0.83371 h 1.06109 v -2.27376 h 2.439127 v 2.27376 h 2.032606 v 0.83371 h -2.032606 v 4.48552 q 0,0.95773 0.151584,1.192 0.151584,0.23427 0.551215,0.23427 0.440973,0 0.654569,-0.29628 0.213596,-0.29628 0.227376,-0.9164 h 1.026638 q -0.06201,1.10243 -0.606336,1.55029 -0.537435,0.44098 -1.860352,0.44098 -1.508952,0 -2.046387,-0.46854 -0.537434,-0.47542 -0.537434,-1.73632 z m -6.111601,5.91179 q 0.771701,0 1.08176,-0.66146 0.316949,-0.66146 0.316949,-2.42535 0,-1.76389 -0.310059,-2.41846 -0.310058,-0.66146 -1.08865,-0.66146 -0.778591,0 -1.09554,0.66835 -0.316949,0.66146 -0.316949,2.41157 0,1.75011 0.316949,2.41846 0.316949,0.66835 1.09554,0.66835 z m 0,0.77859 q -1.936144,0 -3.038574,-1.02664 -1.09554,-1.03353 -1.09554,-2.83876 0,-1.81212 1.09554,-2.83187 1.10243,-1.02664 3.038574,-1.02664 1.943034,0 3.038574,1.02664 1.095541,1.01975 1.095541,2.83187 0,1.80523 -1.102431,2.83876 -1.09554,1.02664 -3.031684,1.02664 z m -11.086317,-6.3252 q 0.509874,-0.73036 1.10243,-1.06109 0.592557,-0.33762 1.384929,-0.33762 1.260905,0 1.881022,0.71658 0.627007,0.70969 0.627007,2.14974 v 3.82406 h 1.047309 v 0.83371 h -4.361491 v -0.83371 h 0.875055 v -3.45888 q 0,-1.37115 -0.213596,-1.72944 -0.206706,-0.35829 -0.778592,-0.35829 -0.647678,0 -1.005968,0.50299 -0.35829,0.49609 -0.35829,1.41938 v 3.62424 h 0.875055 v 0.83371 h -4.189236 v -0.83371 h 0.875054 v -3.45888 q 0,-1.37115 -0.213596,-1.72944 -0.213596,-0.35829 -0.778592,-0.35829 -0.654568,0 -1.012858,0.50299 -0.35829,0.49609 -0.35829,1.41938 v 3.62424 h 0.875055 v 0.83371 H 8.6921762 v -0.83371 h 1.040419 v -5.65685 h -1.040419 v -0.83371 h 3.4795458 v 1.03353 q 0.427192,-0.64079 0.978407,-0.93707 0.551216,-0.29628 1.309137,-0.29628 0.895724,0 1.45383,0.34451 0.558105,0.33762 0.861274,1.0542 z" style="font-style:normal;font-variant:normal;font-weight:bold;font-stretch:normal;font-size:14.11111069px;line-height:1.25;font-family:serif;-inkscape-font-specification:'serif Bold';letter-spacing:0px;word-spacing:0px;fill:#000000;fill-opacity:1;stroke:none;stroke-width:0.26458332" id="path2062"/>
      </g>
    </g>
  </g>
</svg>
