<?xml version="1.0" encoding="UTF-8" standalone="no"?>
<!-- Created with Inkscape (http://www.inkscape.org/) -->
<svg xmlns:dc="http://purl.org/dc/elements/1.1/" xmlns:cc="http://creativecommons.org/ns#" xmlns:rdf="http://www.w3.org/1999/02/22-rdf-syntax-ns#" xmlns:svg="http://www.w3.org/2000/svg" xmlns="http://www.w3.org/2000/svg" xmlns:sodipodi="http://sodipodi.sourceforge.net/DTD/sodipodi-0.dtd" xmlns:inkscape="http://www.inkscape.org/namespaces/inkscape" version="1.1" id="svg228" width="74.506668mm" height="79.247993mm" viewBox="0 0 281.60001 299.51999" sodipodi:docname="skull.svg" inkscape:version="0.92.3 (2405546, 2018-03-11)">
  <metadata id="metadata234">
    <rdf:RDF>
      <cc:Work rdf:about="">
        <dc:format>image/svg+xml</dc:format>
        <dc:type rdf:resource="http://purl.org/dc/dcmitype/StillImage"/>
        <dc:title>@@title@@</dc:title>
        <dc:creator>
          <cc:Agent>
            <dc:title>x3300 &lt;x3300x@gmail.com&gt;</dc:title>
          </cc:Agent>
        </dc:creator>
        <dc:description>
Fabricators Design License draft v10.11.20

Copyright x3300 &lt;x3300x@gmail.com&gt;

Permission is hereby granted, free of charge, to any person obtaining
a copy of this design and associated documentation (the _Design_), to
deal in the Design without restriction, including without limitation
the rights to use, copy, modify, merge, publish, distribute,
sublicense, and/or sell copies of the Design, and to permit persons to
whom the Design is furnished to do so, subject to the following
conditions:

 The above copyright notice and this permission notice shall be
 included in all copies or substantial portions of the Design.

 If you modify the Design including creating additional or alternate
 documentation formats (images, drawings, text documents, etc.), you
 may copy and distribute your modified version of the Design in any
 form provided that you also do one of the following:

  Accompany the modified version of the Design with documentation
  which corresponds to and completely describes the modified version
  of the Design; or,

  Accompany the modified version of the Design with a written offer
  for documentation which corresponds to and completely describes the
  modified version of the Design.

THE DESIGN IS PROVIDED _AS IS_, WITHOUT WARRANTY OF ANY KIND,
EXPRESS OR IMPLIED, INCLUDING BUT NOT LIMITED TO THE WARRANTIES OF
MERCHANTABILITY, FITNESS FOR A PARTICULAR PURPOSE AND NONINFRINGEMENT.
IN NO EVENT SHALL THE AUTHORS OR COPYRIGHT HOLDERS BE LIABLE FOR ANY
CLAIM, DAMAGES OR OTHER LIABILITY, WHETHER IN AN ACTION OF CONTRACT,
TORT OR OTHERWISE, ARISING FROM, OUT OF OR IN CONNECTION WITH THE
DESIGN OR THE USE OR OTHER DEALINGS IN THE DESIGN.
        </dc:description>
        <dc:date>@@date@@</dc:date>
        <dc:rights>
          <cc:Agent>
            <dc:title>All Rights Reserved</dc:title>
          </cc:Agent>
        </dc:rights>
        <dc:publisher>
          <cc:Agent>
            <dc:title>@@publisher@@</dc:title>
          </cc:Agent>
        </dc:publisher>
        <dc:identifier>@@identifier@@</dc:identifier>
        <dc:source>@@source@@</dc:source>
        <dc:relation>@@relation@@</dc:relation>
        <dc:language>@@language@@</dc:language>
        <dc:subject>
          <rdf:Bag>
            <rdf:li>@@keywords@@</rdf:li>
          </rdf:Bag>
        </dc:subject>
        <dc:coverage>@@coverage@@</dc:coverage>
        <dc:contributor>
          <cc:Agent>
            <dc:title>@@contributors@@</dc:title>
          </cc:Agent>
        </dc:contributor>
        <cc:license rdf:resource="Fabricators Design License"/>
      </cc:Work>
    </rdf:RDF>
  </metadata>
  <defs id="defs232"/>
  <sodipodi:namedview pagecolor="#ffffff" bordercolor="#666666" borderopacity="1" objecttolerance="1" gridtolerance="1" guidetolerance="1" inkscape:pageopacity="0" inkscape:pageshadow="2" inkscape:window-width="1920" inkscape:window-height="1043" id="namedview230" showgrid="false" inkscape:zoom="2.2285952" inkscape:cx="19.162809" inkscape:cy="153.57673" inkscape:window-x="0" inkscape:window-y="0" inkscape:window-maximized="1" inkscape:current-layer="layer7" units="mm" inkscape:pagecheckerboard="true"/>
  <g inkscape:groupmode="layer" id="layer2" inkscape:label="background" style="display:inline">
    <path style="display:inline;opacity:1;fill:#ffffff;fill-opacity:1;stroke:none;stroke-width:3;stroke-miterlimit:8.30000019;stroke-dasharray:none;stroke-dashoffset:0;stroke-opacity:1" d="m 74.20886,278.66646 c -3.798167,-2.31576 -6.91712,-8.68506 -9.321775,-19.03627 -1.972267,-8.48993 -0.790746,-29.69014 2.530846,-45.41135 0.399731,-1.89195 0.296068,-1.99563 -3.953353,-3.95432 -10.461013,-4.82179 -13.585815,-5.4243 -28.427678,-5.48131 -10.073867,-0.0387 -11.846991,-0.2046 -15.019059,-1.40531 -7.458022,-2.82307 -12.5941466,-7.97115 -13.5403885,-13.57191 -0.6243966,-3.69577 0.7226542,-8.8748 3.5106028,-13.49729 l 2.4930897,-4.13359 -1.372319,-3.70704 c -1.1119613,-3.00373 -1.3800009,-5.15174 -1.4128109,-11.32194 -0.035808,-6.73411 0.1700918,-8.25779 1.7800989,-13.17282 1.730659,-5.28336 1.785473,-5.79401 1.109672,-10.33778 -0.391006,-2.62894 -0.710919,-6.15034 -0.710919,-7.82534 0,-3.85325 2.042597,-11.90566 4.189916,-16.51767 2.737338,-5.87925 2.95191,-7.0055 3.093741,-16.238594 0.170284,-11.085356 1.721244,-16.530566 6.81879,-23.93985 18.15011,-26.381181 49.722807,-45.663828 87.429756,-53.396679 13.72705,-2.815113 23.27465,-3.752806 38.39186,-3.770559 25.08369,-0.02946 46.84666,4.35632 65.52711,13.20533 20.39686,9.662081 35.61111,25.648221 40.46571,42.518708 1.46991,5.108181 2.83965,9.224162 6.33534,19.037287 5.3689,15.071677 6.31403,19.964097 6.31332,32.680677 l -6.2e-4,11.10508 -2.29978,6.66305 c -1.26488,3.66468 -2.64924,8.37641 -3.07637,10.47051 -0.42712,2.0941 -1.35874,4.62807 -2.07026,5.63103 -1.11548,1.57239 -1.19261,2.10304 -0.55999,3.85251 2.24207,6.20034 -0.74853,16.39382 -7.23392,24.65687 -2.39732,3.05444 -4.18331,4.32463 -13.51,9.60824 -10.45753,5.92425 -29.10121,15.22629 -33.88013,16.90409 l -2.37061,0.83228 0.46688,3.52461 c 0.80019,6.04095 0.55902,31.77787 -0.32499,34.68164 -1.71727,5.64081 -6.06091,9.77314 -10.27288,9.77314 -2.12309,0 -3.17091,-0.4112 -8.55616,-3.35769 -2.36269,-1.29273 -3.54559,-0.68463 -5.64852,2.90377 -0.88572,1.51136 -2.88996,3.92739 -4.45386,5.36894 -4.39497,4.05114 -8.28141,4.31305 -14.85186,1.00086 -3.15629,-1.5911 -3.3895,-1.62156 -4.52784,-0.59137 -0.66008,0.59736 -1.36854,1.92804 -1.57434,2.95705 -0.62884,3.14422 -4.95844,5.17183 -12.89546,6.03914 l -3.92263,0.42864 -3.43632,-3.24993 c -1.88997,-1.78745 -3.61709,-3.24992 -3.83803,-3.24992 -0.22095,0 -1.0164,1.20486 -1.76767,2.67748 -2.13889,4.19257 -3.84406,6.2074 -6.64781,7.85504 -3.4136,2.00604 -7.88989,2.04016 -11.30695,0.0862 -3.16942,-1.81236 -4.5413,-3.69828 -6.37173,-8.75916 -0.86164,-2.38233 -1.89594,-4.16478 -2.48524,-4.28293 -0.58752,-0.11778 -3.911879,2.5695 -7.954066,6.42976 -10.107861,9.65292 -15.997204,12.28379 -20.860394,9.3187 z" id="path71" inkscape:connector-curvature="0"/>
  </g>
  <g inkscape:groupmode="layer" id="layer6" inkscape:label="line" style="display:none" sodipodi:insensitive="true">
    <g id="g308">
      <path sodipodi:nodetypes="ccccccccccccsccsccccccccc" inkscape:connector-curvature="0" id="path269" d="m 22.435658,72.919839 c 52.521837,-86.087218 222.653822,-79.5507625 237.817982,0.897426 9.16147,22.702186 16.99523,46.449235 6.94378,67.800795 l -2.17243,10.58581 c -2.4226,2.87995 -3.07241,3.11954 -0.99578,6.30664 1.22602,10.6489 -5.54267,22.23968 -11.7482,27.80234 -16.65329,9.75709 -31.74865,17.92239 -45.87295,23.46451 0.77502,11.31302 2.36363,22.70797 0.42149,35.18549 -2.12169,13.59028 -12.39065,16.07184 -20.27204,9.31351 -1.76692,-0.9819 -3.275,-0.79903 -4.19877,2.01319 -3.54483,6.04279 -9.92437,14.15984 -21.31673,7.33639 -2.89722,-2.50522 -3.56657,-0.55471 -4.41857,1.03052 -0.16729,6.42042 -10.62153,7.45302 -16.64838,7.75015 -2.59113,0.12775 -4.71862,-3.12625 -5.82596,-3.74362 -3.1539,-3.61534 -1.76801,-3.41575 -4.26258,1.35081 -7.63371,13.71456 -21.93453,8.97541 -24.80342,-1.33163 -1.85043,-6.64808 -1.98497,-6.05949 -6.108025,-1.80936 -21.675891,23.06416 -30.521818,15.95796 -35.706518,-10.878 -0.356323,-14.35882 0.164516,-28.71764 3.589705,-43.07646 -10.469272,-5.60026 -19.88753,-8.39782 -27.820216,-7.23385 -21.518616,3.33436 -44.9747051,-9.99279 -27.371504,-33.59905 -4.917826,-10.99101 -3.9039377,-22.23991 0.897427,-33.65349 -1.278667,-8.03038 -3.5154548,-15.25004 2.692279,-29.61507 2.324443,-3.95754 3.795137,-8.76883 3.140992,-15.704958 -0.895954,-6.0901 0.750895,-12.906714 4.038418,-20.192093 z" style="fill:none;stroke:#000000;stroke-width:1px;stroke-linecap:butt;stroke-linejoin:miter;stroke-opacity:1"/>
      <path sodipodi:nodetypes="ccccccccccccccccccccccccccccccscccccccc" inkscape:connector-curvature="0" id="path289" d="M 33.315253,73.928133 C 69.650174,19.960467 155.16364,13.949801 208.4583,32.0461 c 20.91408,12.971516 31.72687,23.406173 39.66101,42.833897 1.53091,5.212796 3.33659,10.013419 5.71119,13.960677 l 3.17288,8.884068 c 0.11763,4.230508 0.14383,8.461018 1.90373,12.691528 1.87689,3.94006 2.12696,9.50694 1.90373,15.54712 -4.7904,12.17479 -11.03966,24.91693 -8.56678,34.26711 0.14128,9.63431 -4.87875,13.6381 -9.20136,18.40271 -16.51265,8.54301 -33.07456,17.38161 -49.17966,23.47932 2.95957,8.57214 3.31028,24.97087 3.80746,40.93017 0.49276,2.91241 -0.91932,3.74681 -5.07661,1.58644 -14.75631,-14.46602 -19.0072,-0.35626 -18.40271,5.71119 -2.58115,5.15023 -4.81807,3.76027 -6.98034,0.95186 -2.09185,-4.67696 -2.90358,-10.63405 -7.29763,-13.00881 -5.34027,-0.94377 -7.32597,0.50857 -9.83593,1.58644 -1.72578,3.94931 -2.17675,8.53603 -2.22101,13.3261 1.0697,1.90373 2.25242,3.80746 1.26915,5.71119 -5.4611,3.13047 -5.44686,0.23805 -6.98034,-0.95187 -11.75435,-23.47833 -17.17337,-1.69473 -19.03729,1.26916 0.15251,8.07312 -7.43068,9.46995 -7.9322,0.63457 l -2.22102,-10.78779 c -6.55397,-5.85375 -9.574,-2.62023 -13.326099,-1.26916 -5.110021,4.48098 -9.695613,10.01081 -13.960677,16.1817 -4.165076,4.99369 -7.255926,5.15336 -8.884068,-1.26915 -2.179273,-14.06644 -0.191503,-28.13288 0.317288,-42.19932 -0.195102,-3.34266 0.840704,-5.31764 4.442034,-4.44204 1.639307,-1.8773 2.969067,-3.90937 5.393898,-5.3939 -6.532593,-3.91322 -11.638411,-7.82644 -16.498982,-11.73966 -4.653559,-3.99609 -9.307119,-4.34144 -13.960678,-5.07661 -2.100343,-0.65155 -4.264036,-0.009 -6.033409,-0.61205 -9.927936,-3.38551 -19.246372,-1.13 -24.426251,-1.92625 -5.534235,-3.35543 -11.041489,-6.72659 -6.66305,-15.86441 1.905062,-2.7485 8.193367,-1.11375 2.855593,-11.10508 -5.647749,-8.68125 -1.20244,-16.7688 -0.317288,-25.06576 1.205479,-2.91927 2.034172,-6.21532 0.317288,-12.05695 -0.979892,-4.29957 -1.887107,-8.58461 1.269152,-12.05695 2.702886,-4.82469 5.276223,-9.87146 5.07661,-19.671865 -0.437465,-9.583752 0.559137,-17.472698 4.759322,-21.575592 z" style="fill:none;stroke:#000000;stroke-width:1px;stroke-linecap:butt;stroke-linejoin:miter;stroke-opacity:1"/>
      <path sodipodi:nodetypes="ccccccccccccccccccsc" inkscape:connector-curvature="0" id="path291" d="m 60.968902,112.07006 c 3.462986,0.23544 7.258223,1.42582 11.946988,1.90704 3.900356,0.581 7.690585,2.04302 11.442186,3.81406 6.724582,1.20865 9.713556,-0.39376 17.051104,2.24356 1.98324,-1.96785 4.44934,-2.36638 7.62812,-0.44871 1.84989,1.32905 2.81465,2.26471 7.17941,4.71149 11.09121,12.24131 21.31228,24.29578 8.52555,31.40992 -3.88792,2.08319 -5.94969,4.98815 -5.60891,8.97426 -0.86099,4.62946 -0.92094,9.94731 -8.3012,8.97427 -2.62971,-0.64864 -5.35535,-1.10542 -8.30119,-1.12179 -4.739048,-0.84474 -3.725712,0.52297 -4.711489,1.12179 -1.103453,0.96726 -2.392646,1.79522 -2.692279,3.36534 -1.870908,2.73404 -3.86122,2.36361 -5.833271,2.46793 -3.492248,-0.51788 -7.313394,1.70573 -10.993473,-1.34614 -2.017712,-1.93097 -4.660783,-2.54173 -7.628124,-2.46793 -1.756223,-0.58445 -3.573568,-0.80216 -5.435494,-0.75239 -2.14517,0.16938 -3.942036,-0.01 -5.782335,-0.14503 -4.038419,0.74341 -8.076837,-0.6063 -12.115256,-5.83327 -2.384234,-5.77907 -6.006865,-6.69525 -7.446075,-12.0435 -5.112858,-18.99989 -1.873267,-38.62392 21.075738,-44.8309 z" style="fill:none;stroke:#000000;stroke-width:1px;stroke-linecap:butt;stroke-linejoin:miter;stroke-opacity:1"/>
      <path sodipodi:nodetypes="ccccccccc" inkscape:connector-curvature="0" id="path293" d="m 172.53021,118.46423 c -38.28958,25.74842 -18.80332,52.51982 9.19862,55.52825 7.4723,1.17439 13.77283,2.46575 30.5125,-5.04802 5.8179,-2.79455 11.09729,-6.72994 16.0415,-13.34921 2.1216,-0.96222 4.53425,-6.51649 5.38455,-13.12487 -1.19964,-1.78028 0.56001,-15.40165 0.56089,-22.88437 -0.0137,-9.95627 -6.79199,-14.68539 -19.96774,-14.471 -7.77769,0.89271 -15.33103,-0.11824 -23.10872,3.25317 -5.47887,3.04668 -12.03974,8.15235 -18.6216,10.09605 z" style="fill:none;stroke:#000000;stroke-width:1px;stroke-linecap:butt;stroke-linejoin:miter;stroke-opacity:1"/>
      <path sodipodi:nodetypes="ccccccccc" inkscape:connector-curvature="0" id="path295" d="m 108.21919,205.36954 c 4.51009,-6.45242 7.87502,-12.56344 20.11278,-22.06626 5.33665,-3.46249 12.16621,-3.78143 15.14971,0.50081 2.76133,7.55782 4.57173,16.63142 5.01516,27.10866 -1.14439,5.93621 -3.91854,9.28728 -11.16572,5.5432 -2.56444,-3.36891 -5.32811,-3.61659 -7.23152,-7.65534 -1.67625,-2.14447 -2.78309,-3.04889 -5.93515,-0.97675 -0.9415,2.01088 -4.87654,3.30695 -7.94774,4.19706 -4.2808,-0.22927 -11.59492,2.10878 -7.99752,-6.65138 z" style="fill:none;stroke:#000000;stroke-width:1px;stroke-linecap:butt;stroke-linejoin:miter;stroke-opacity:1"/>
    </g>
  </g>
  <g inkscape:groupmode="layer" id="layer7" inkscape:label="block" style="display:inline">
    <path style="opacity:1;fill:#000000;fill-opacity:1;stroke:#a3a3a3;stroke-width:3;stroke-miterlimit:4;stroke-dasharray:none;stroke-dashoffset:0;stroke-opacity:1" d="m 180.26037,172.96464 c -22.22955,-3.73386 -33.55585,-19.19303 -25.57784,-34.91097 3.64229,-7.1759 14.86839,-17.83565 20.91301,-19.85797 1.22156,-0.40869 5.50495,-2.72453 9.51864,-5.1463 4.34222,-2.62 8.80372,-4.79118 11.01652,-5.36118 2.04539,-0.52688 8.18574,-1.14893 13.64523,-1.38233 12.32229,-0.52681 16.01073,0.28403 20.15812,4.43142 3.46232,3.46232 3.64581,4.86112 2.92454,22.29492 -0.67301,16.26698 -1.01437,17.45668 -6.94251,24.19545 -4.66098,5.29833 -10.20353,9.2752 -16.8572,12.09528 -10.78441,4.57085 -17.90557,5.47135 -28.79851,3.64168 z" id="path372" inkscape:connector-curvature="0"/>
    <path style="opacity:1;fill:#000000;fill-opacity:1;stroke:#a3a3a3;stroke-width:3;stroke-miterlimit:4;stroke-dasharray:none;stroke-dashoffset:0;stroke-opacity:1" d="m 78.903841,177.46669 c -3.110822,-2.11106 -10.323809,-3.50333 -18.166603,-3.50656 -8.331608,-0.003 -8.318051,0.006 -16.185365,-10.76605 -4.289248,-5.87268 -5.679863,-10.99921 -5.685718,-20.9605 -0.0059,-10.09917 2.76728,-16.87444 9.346494,-22.8345 2.495554,-2.2607 9.224204,-5.68142 12.049057,-6.12551 2.86909,-0.45104 15.527301,1.94467 20.306879,3.84331 2.455908,0.97558 5.897645,1.71761 9.041872,1.94938 2.792136,0.20582 6.733501,0.69035 8.75859,1.07672 2.745423,0.52382 3.867233,0.51725 4.410303,-0.0258 3.57122,-3.57121 16.6221,6.73356 24.0837,19.0161 4.50401,7.41406 3.79449,11.5565 -2.71907,15.87485 -4.00834,2.65746 -5.4508,5.09556 -5.98259,10.11206 -0.20593,1.94261 -0.95133,4.48066 -1.65644,5.64012 l -1.28201,2.1081 -5.19133,-0.41857 c -2.85523,-0.23021 -6.50983,-0.58694 -8.12134,-0.79273 -2.728986,-0.34849 -3.077289,-0.22264 -5.076608,1.83422 -1.180627,1.21461 -2.574934,2.7921 -3.098459,3.50554 -0.789511,1.07591 -1.928768,1.36692 -6.67935,1.70616 -5.45253,0.38937 -5.843878,0.33002 -8.152012,-1.23632 z" id="path374" inkscape:connector-curvature="0"/>
    <path style="opacity:1;fill:#000000;fill-opacity:1;stroke:#a3a3a3;stroke-width:3;stroke-miterlimit:8.30000019;stroke-dasharray:none;stroke-dashoffset:0;stroke-opacity:1" d="m 74.20886,278.66646 c -3.798167,-2.31576 -6.91712,-8.68506 -9.321775,-19.03627 -1.972267,-8.48993 -0.790746,-29.69014 2.530846,-45.41135 0.399731,-1.89195 0.296068,-1.99563 -3.953353,-3.95432 -10.461013,-4.82179 -13.585815,-5.4243 -28.427678,-5.48131 -10.073867,-0.0387 -11.846991,-0.2046 -15.019059,-1.40531 -7.458022,-2.82307 -12.5941466,-7.97115 -13.5403885,-13.57191 -0.6243966,-3.69577 0.7226542,-8.8748 3.5106028,-13.49729 l 2.4930897,-4.13359 -1.372319,-3.70704 c -1.1119613,-3.00373 -1.3800009,-5.15174 -1.4128109,-11.32194 -0.035808,-6.73411 0.1700918,-8.25779 1.7800989,-13.17282 1.730659,-5.28336 1.785473,-5.79401 1.109672,-10.33778 -0.391006,-2.62894 -0.710919,-6.15034 -0.710919,-7.82534 0,-3.85325 2.042597,-11.90566 4.189916,-16.51767 2.737338,-5.87925 2.95191,-7.0055 3.093741,-16.238594 0.170284,-11.085356 1.721244,-16.530566 6.81879,-23.93985 18.15011,-26.381181 49.722807,-45.663828 87.429756,-53.396679 13.72705,-2.815113 23.27465,-3.752806 38.39186,-3.770559 25.08369,-0.02946 46.84666,4.35632 65.52711,13.20533 20.39686,9.662081 35.61111,25.648221 40.46571,42.518708 1.46991,5.108181 2.83965,9.224162 6.33534,19.037287 5.3689,15.071677 6.31403,19.964097 6.31332,32.680677 l -6.2e-4,11.10508 -2.29978,6.66305 c -1.26488,3.66468 -2.64924,8.37641 -3.07637,10.47051 -0.42712,2.0941 -1.35874,4.62807 -2.07026,5.63103 -1.11548,1.57239 -1.19261,2.10304 -0.55999,3.85251 2.24207,6.20034 -0.74853,16.39382 -7.23392,24.65687 -2.39732,3.05444 -4.18331,4.32463 -13.51,9.60824 -10.45753,5.92425 -29.10121,15.22629 -33.88013,16.90409 l -2.37061,0.83228 0.46688,3.52461 c 0.80019,6.04095 0.55902,31.77787 -0.32499,34.68164 -1.71727,5.64081 -6.06091,9.77314 -10.27288,9.77314 -2.12309,0 -3.17091,-0.4112 -8.55616,-3.35769 -2.36269,-1.29273 -3.54559,-0.68463 -5.64852,2.90377 -0.88572,1.51136 -2.88996,3.92739 -4.45386,5.36894 -4.39497,4.05114 -8.28141,4.31305 -14.85186,1.00086 -3.15629,-1.5911 -3.3895,-1.62156 -4.52784,-0.59137 -0.66008,0.59736 -1.36854,1.92804 -1.57434,2.95705 -0.62884,3.14422 -4.95844,5.17183 -12.89546,6.03914 l -3.92263,0.42864 -3.43632,-3.24993 c -1.88997,-1.78745 -3.61709,-3.24992 -3.83803,-3.24992 -0.22095,0 -1.0164,1.20486 -1.76767,2.67748 -2.13889,4.19257 -3.84406,6.2074 -6.64781,7.85504 -3.4136,2.00604 -7.88989,2.04016 -11.30695,0.0862 -3.16942,-1.81236 -4.5413,-3.69828 -6.37173,-8.75916 -0.86164,-2.38233 -1.89594,-4.16478 -2.48524,-4.28293 -0.58752,-0.11778 -3.911879,2.5695 -7.954066,6.42976 -10.107861,9.65292 -15.997204,12.28379 -20.860394,9.3187 z m 8.664257,-11.06565 c 0.97153,-0.5024 3.43689,-3.14382 5.47857,-5.86983 9.105978,-12.15809 15.248173,-16.62554 20.080763,-14.60551 3.19313,1.33473 3.75978,2.40397 5.29815,9.99725 1.52748,7.53953 2.63381,9.48781 5.38765,9.48781 2.31802,0 3.64835,-1.66081 4.76532,-5.94911 1.79031,-6.87349 5.51538,-12.4536 8.31353,-12.4536 2.03788,0 4.67746,2.48117 7.18746,6.75611 1.19949,2.04292 2.60015,4.21413 3.11259,4.8249 1.17201,1.39694 4.427,1.43806 6.36528,0.0804 1.24356,-0.87102 1.40713,-1.38545 1.05926,-3.33152 -0.96913,-5.42154 -1.0724,-8.81212 -0.36473,-11.97433 0.88087,-3.93614 2.40189,-5.23477 6.69848,-5.71906 2.61603,-0.29486 3.02178,-0.14104 4.90881,1.86084 1.17709,1.24874 2.72062,4.06402 3.60825,6.58113 2.46247,6.98304 5.40854,8.93199 8.63086,5.70966 1.02105,-1.02104 1.55882,-2.27797 1.56114,-3.64881 0.006,-3.21866 1.11895,-6.50695 2.8278,-8.35083 2.67712,-2.88867 7.0338,-1.99261 12.32268,2.53448 3.01538,2.58106 5.70775,3.54048 7.35247,2.62006 1.0621,-0.59438 1.11017,-1.48276 0.69125,-12.77568 -0.24761,-6.67528 -0.89248,-15.70636 -1.43303,-20.06908 -0.54055,-4.36271 -1.0184,-8.58378 -1.0619,-9.38015 -0.0688,-1.26053 0.82447,-1.83155 6.90126,-4.41138 3.83919,-1.62989 14.54766,-6.75679 23.79661,-11.39311 14.99038,-7.51438 17.14952,-8.79239 19.88548,-11.77031 1.68806,-1.83735 3.81573,-4.76843 4.72816,-6.51352 1.51425,-2.89613 1.66561,-3.86474 1.73537,-11.10508 0.0916,-9.50984 1.25582,-14.03607 7.41786,-28.83944 1.73777,-4.17473 1.83463,-4.83866 1.43993,-9.86971 -0.23274,-2.96665 -1.00329,-7.10726 -1.71234,-9.20136 -0.70905,-2.0941 -1.42526,-5.80637 -1.59158,-8.24949 -0.3204,-4.706183 -2.1946,-10.858654 -5.21935,-17.133559 -1.00944,-2.094102 -2.44996,-5.663593 -3.20116,-7.932204 -2.85696,-8.627901 -7.6534,-17.127272 -13.87867,-24.59322 -7.67694,-9.206931 -23.53407,-20.565101 -32.44845,-23.242224 -16.95053,-5.090505 -33.73202,-7.372689 -54.21329,-7.372689 -13.98511,0 -22.48736,0.719191 -34.62738,2.929072 -34.575294,6.293838 -61.598237,21.33544 -78.865502,43.898384 -2.59267,3.387813 -5.149096,7.016339 -5.680946,8.063389 -1.621295,3.191836 -2.390499,8.27879 -2.390499,15.809027 0,9.577484 -0.705203,12.950404 -4.124537,19.727244 -3.229924,6.40145 -3.456603,8.26414 -1.960437,16.10951 0.740966,3.88537 0.754504,5.24224 0.07914,7.9322 -3.543923,14.1155 -3.663532,21.19238 -0.467609,27.6668 2.71372,5.49757 2.655134,7.0081 -0.347163,8.95096 -2.79097,1.8061 -4.233714,5.30676 -3.745876,9.08897 0.40664,3.1527 1.937978,5.23184 5.7659,7.82851 l 3.040281,2.06237 8.653707,0.0276 c 4.759539,0.0152 9.938724,0.30666 11.5093,0.64768 1.570577,0.34101 4.997288,0.89715 7.614915,1.23586 9.703308,1.25555 11.716288,2.10608 20.705678,8.74868 4.582287,3.38603 8.860461,6.46981 9.50705,6.85284 1.108014,0.65639 1.066817,0.82706 -0.716526,2.96843 -1.251879,1.5032 -2.456343,2.2875 -3.559522,2.31781 -3.14911,0.0865 -3.257458,0.64497 -4.32385,22.28565 -0.57973,11.76473 0.04575,25.00705 1.295309,27.42356 1.905074,3.6842 3.231326,4.2669 6.208079,2.72756 z" id="path376" inkscape:connector-curvature="0"/>
    <path style="opacity:1;fill:#000000;fill-opacity:1;stroke:#a3a3a3;stroke-width:3;stroke-miterlimit:4;stroke-dasharray:none;stroke-dashoffset:0;stroke-opacity:1" d="m 138.47283,215.92792 c -1.04705,-0.66782 -2.94088,-2.31621 -4.20852,-3.66309 -1.26763,-1.34688 -3.20234,-3.4061 -4.29936,-4.57603 -1.64929,-1.75892 -2.2939,-2.05318 -3.72369,-1.69983 -0.95101,0.23504 -2.44301,1.07811 -3.31555,1.87349 -3.07021,2.79873 -10.20414,4.4546 -13.59149,3.15476 -3.403,-1.30586 1.43234,-9.65252 11.37047,-19.6275 8.94491,-8.97807 14.77139,-11.55876 19.99631,-8.85684 1.46248,0.75628 2.11343,1.81535 3.1212,5.07813 1.92961,6.24735 3.34523,14.63196 3.44509,20.40496 0.0753,4.3555 -0.12252,5.46696 -1.24259,6.98034 -1.68185,2.27243 -4.83899,2.6619 -7.55187,0.93161 z" id="path378" inkscape:connector-curvature="0"/>
  </g>
</svg>
