<?xml version="1.0" encoding="UTF-8" standalone="no"?>
<!-- Created with Inkscape (http://www.inkscape.org/) -->
<svg xmlns:dc="http://purl.org/dc/elements/1.1/" xmlns:cc="http://creativecommons.org/ns#" xmlns:rdf="http://www.w3.org/1999/02/22-rdf-syntax-ns#" xmlns:svg="http://www.w3.org/2000/svg" xmlns="http://www.w3.org/2000/svg" xmlns:sodipodi="http://sodipodi.sourceforge.net/DTD/sodipodi-0.dtd" xmlns:inkscape="http://www.inkscape.org/namespaces/inkscape" width="150mm" height="50mm" viewBox="0 0 150 50.000002" version="1.1" id="svg1161" inkscape:version="0.92.3 (2405546, 2018-03-11)" sodipodi:docname="yz-emblem.svg">
  <defs id="defs1155"/>
  <sodipodi:namedview id="base" pagecolor="#ffffff" bordercolor="#666666" borderopacity="1.0" inkscape:pageopacity="0.0" inkscape:pageshadow="2" inkscape:zoom="1.6412694" inkscape:cx="247.52366" inkscape:cy="107.20755" inkscape:document-units="mm" inkscape:current-layer="layer2" showgrid="false" inkscape:pagecheckerboard="true" gridtolerance="1" guidetolerance="1" inkscape:window-width="1920" inkscape:window-height="1043" inkscape:window-x="0" inkscape:window-y="0" inkscape:window-maximized="1" units="mm" objecttolerance="1" showguides="true" inkscape:guide-bbox="true">
    <sodipodi:guide position="91.081685,28.049936" orientation="0,1" id="guide6344" inkscape:locked="false"/>
    <sodipodi:guide position="75.444652,25.309425" orientation="1,0" id="guide6346" inkscape:locked="false"/>
  </sodipodi:namedview>
  <metadata id="metadata1158">
    <rdf:RDF>
      <cc:Work rdf:about="">
        <dc:format>image/svg+xml</dc:format>
        <dc:type rdf:resource="http://purl.org/dc/dcmitype/StillImage"/>
        <dc:title>@@title@@</dc:title>
        <dc:creator>
          <cc:Agent>
            <dc:title>x3300 &lt;x3300x@gmail.com&gt;</dc:title>
          </cc:Agent>
        </dc:creator>
        <dc:description>
Fabricators Design License draft v10.11.20

Copyright x3300 &lt;x3300x@gmail.com&gt;

Permission is hereby granted, free of charge, to any person obtaining
a copy of this design and associated documentation (the _Design_), to
deal in the Design without restriction, including without limitation
the rights to use, copy, modify, merge, publish, distribute,
sublicense, and/or sell copies of the Design, and to permit persons to
whom the Design is furnished to do so, subject to the following
conditions:

 The above copyright notice and this permission notice shall be
 included in all copies or substantial portions of the Design.

 If you modify the Design including creating additional or alternate
 documentation formats (images, drawings, text documents, etc.), you
 may copy and distribute your modified version of the Design in any
 form provided that you also do one of the following:

  Accompany the modified version of the Design with documentation
  which corresponds to and completely describes the modified version
  of the Design; or,

  Accompany the modified version of the Design with a written offer
  for documentation which corresponds to and completely describes the
  modified version of the Design.

THE DESIGN IS PROVIDED _AS IS_, WITHOUT WARRANTY OF ANY KIND,
EXPRESS OR IMPLIED, INCLUDING BUT NOT LIMITED TO THE WARRANTIES OF
MERCHANTABILITY, FITNESS FOR A PARTICULAR PURPOSE AND NONINFRINGEMENT.
IN NO EVENT SHALL THE AUTHORS OR COPYRIGHT HOLDERS BE LIABLE FOR ANY
CLAIM, DAMAGES OR OTHER LIABILITY, WHETHER IN AN ACTION OF CONTRACT,
TORT OR OTHERWISE, ARISING FROM, OUT OF OR IN CONNECTION WITH THE
DESIGN OR THE USE OR OTHER DEALINGS IN THE DESIGN.
        </dc:description>
        <dc:date>@@date@@</dc:date>
        <dc:rights>
          <cc:Agent>
            <dc:title>All Rights Reserved</dc:title>
          </cc:Agent>
        </dc:rights>
        <dc:publisher>
          <cc:Agent>
            <dc:title>@@publisher@@</dc:title>
          </cc:Agent>
        </dc:publisher>
        <dc:identifier>@@identifier@@</dc:identifier>
        <dc:source>@@source@@</dc:source>
        <dc:relation>@@relation@@</dc:relation>
        <dc:language>@@language@@</dc:language>
        <dc:subject>
          <rdf:Bag>
            <rdf:li>@@keywords@@</rdf:li>
          </rdf:Bag>
        </dc:subject>
        <dc:coverage>@@coverage@@</dc:coverage>
        <dc:contributor>
          <cc:Agent>
            <dc:title>@@contributors@@</dc:title>
          </cc:Agent>
        </dc:contributor>
        <cc:license rdf:resource="Fabricators Design License"/>
      </cc:Work>
    </rdf:RDF>
  </metadata>
  <g inkscape:groupmode="layer" id="layer2" inkscape:label="print" transform="translate(0,-246.99998)">
    <g transform="translate(-17.780462,113.88675)" style="opacity:1" id="g1788">
      <path sodipodi:nodetypes="csssssssssssssssscssc" inkscape:connector-curvature="0" id="path1736" d="m 37.407094,154.79663 c 2.627332,-2.04836 3.6249,-3.86153 6.864377,-5.6739 7.288868,-4.07786 18.289538,-7.32096 23.781709,-8.16891 0.137205,-0.0212 0.248826,-0.24845 -0.06494,-0.25242 -6.758988,-0.0855 -8.477897,0.0312 -14.97595,0.0766 -0.354523,0.002 -0.488604,0.004 -0.771313,0.0919 -5.467827,1.69863 -7.951586,2.77181 -14.026633,6.14863 -0.220788,0.12272 -0.492346,0.11263 -0.435739,-0.17429 0.532887,-2.70101 0.807291,-3.45814 1.903914,-5.89208 0.05956,-0.1322 0.05994,-0.23348 -0.08667,-0.23534 -5.812065,-0.0737 -7.099318,-0.0351 -13.752171,-0.007 -0.145969,6.2e-4 -0.2548,0.18606 -0.140031,0.23423 1.065801,0.44734 1.344408,0.57524 2.456907,0.97151 0.153448,0.0547 0.190357,0.10111 0.15567,0.33597 -0.366469,2.48131 -0.24879,3.80682 -0.150951,6.15393 0.01997,0.47907 0.01412,0.66599 -0.367781,0.98972 -2.022436,1.71436 -3.335763,2.82287 -5.916446,5.21094 -0.138524,0.12818 -0.07757,0.28232 0.07369,0.28238 5.504624,-0.0551 9.917481,0.11713 14.872364,0.0359 0.214355,-0.004 0.423871,-0.006 0.579994,-0.12774 z" style="opacity:1;fill:none;fill-opacity:1;stroke:#000000;stroke-width:0.25;stroke-miterlimit:4;stroke-dasharray:none;stroke-opacity:1"/>
      <path sodipodi:nodetypes="cscsssssscssssc" inkscape:connector-curvature="0" id="path1757" d="m 102.19542,140.71133 c 0.12157,5.7e-4 0.10444,0.13743 0.035,0.17801 -10.162392,5.9386 -16.037933,7.28664 -28.736356,11.50389 9.179352,-0.0254 14.802726,-0.0532 19.053396,-0.77136 0.0731,-0.0124 0.09333,0.16491 -0.0031,0.22238 -2.349339,1.40035 -2.991029,1.67848 -5.135936,2.97699 -0.109034,0.066 -0.25591,0.0818 -0.37354,0.0817 -13.771218,-0.008 -16.830218,-0.0439 -36.505783,0 -0.162495,3.6e-4 -0.190125,-0.29007 -0.03502,-0.33852 16.020401,-5.00416 22.96725,-7.52794 31.964931,-11.69648 -4.610383,-0.14998 -12.711861,0.004 -17.579749,0.84046 -0.07037,0.0121 -0.232639,-0.12098 -0.105057,-0.18676 2.54752,-1.31352 2.964533,-1.55576 4.955247,-2.68482 0.189055,-0.10723 0.356963,-0.12669 0.556703,-0.12888 10.82358,-0.11848 22.624247,-0.0322 31.909264,0.003 z" style="opacity:1;fill:none;fill-opacity:1;stroke:#000000;stroke-width:0.25;stroke-miterlimit:4;stroke-dasharray:none;stroke-opacity:1"/>
      <path sodipodi:nodetypes="sssssscssssssssss" inkscape:connector-curvature="0" id="path1761" d="m 116.92649,146.33781 c 3.98844,-2.25753 4.24749,-2.54232 7.62654,-4.07022 0.17063,-0.0772 0.15496,-0.11952 0.56169,-0.12616 5.99586,-0.0979 6.98807,-0.0344 11.16777,-0.0333 0.67047,1.8e-4 2.14956,0.32574 2.4774,0.79038 0.27851,0.39472 0.12337,1.09517 -0.42665,1.4571 -5.37267,3.53548 -10.90793,4.1196 -17.03236,8.09757 3.52456,-0.0252 5.77188,-0.0829 9.37685,0.004 0.21793,0.005 0.26443,0.21957 0.0659,0.30965 -1.73602,0.78782 -2.32449,1.0702 -4.04409,1.82305 -0.11587,0.0507 -0.15779,0.11363 -0.36364,0.10842 -6.36483,-0.16104 -9.10516,-0.0497 -17.51531,-0.0165 -0.25008,9.9e-4 -0.26179,-0.23079 -0.0513,-0.36584 7.36662,-4.72681 14.11311,-7.39562 21.44608,-10.29854 0.17154,-0.0679 0.0841,-0.31905 -0.099,-0.29714 -4.43767,0.53081 -8.71231,1.73302 -13.02738,2.90276 -0.29713,0.0805 -0.43041,-0.13359 -0.16249,-0.28523 z" style="opacity:1;fill:none;fill-opacity:1;stroke:#000000;stroke-width:0.25;stroke-miterlimit:4;stroke-dasharray:none;stroke-opacity:1"/>
      <path sodipodi:nodetypes="csssssscssssssssssc" inkscape:connector-curvature="0" id="path1763" d="m 143.12253,142.14036 c 5.21811,-0.0256 11.6276,-0.009 16.29556,-0.008 0.18934,5e-5 0.35059,0.0894 0.2718,0.15873 -0.9996,0.87899 -1.22284,1.07547 -2.2108,1.91199 -0.10273,0.087 -0.25322,0.15889 -0.39517,0.15873 -4.29659,-0.005 -5.487,-0.057 -9.95271,-0.062 -0.18093,-2e-4 -0.22061,0.004 -0.34115,0.093 -1.03445,0.76599 -1.24988,0.95302 -2.50961,2.05104 2.91182,-0.0444 5.42058,-0.13612 7.17898,0.035 1.70368,0.16578 2.47867,1.7197 1.23425,3.26733 -4.78983,5.9569 -15.85727,6.89927 -21.78496,6.37153 -0.17676,-0.0157 -0.16989,-0.25974 -0.0495,-0.28065 3.86654,-0.67165 10.07011,-2.00519 14.52731,-5.18361 1.09801,-0.78299 0.78708,-2.02934 -0.28064,-2.04703 -3.7598,-0.0623 -6.72944,-0.0995 -10.02055,-0.0661 -0.17744,0.002 -0.24002,-0.17286 -0.099,-0.28064 4.37138,-3.34179 5.03609,-3.88489 7.7294,-5.98036 0.14972,-0.11649 0.17953,-0.13828 0.40685,-0.13939 z" style="opacity:1;fill:none;fill-opacity:1;stroke:#000000;stroke-width:0.25;stroke-miterlimit:4;stroke-dasharray:none;stroke-opacity:1"/>
      <path sodipodi:nodetypes="csssssssscssc" inkscape:connector-curvature="0" id="path1773" d="m 95.332899,154.72285 c 3.746087,-0.03 4.629894,-0.0365 8.795391,-0.0477 0.13688,-3.7e-4 0.22935,-0.0214 0.33193,-0.11206 5.2583,-4.64616 9.15355,-6.92941 14.94705,-12.13349 0.0594,-0.0533 0.051,-0.26815 -0.0293,-0.26953 -3.71087,-0.0641 -5.05106,-0.0317 -7.65694,-0.0248 -0.10135,2.7e-4 -0.17266,0.0316 -0.24494,0.0519 -4.22389,1.18831 -4.97736,1.40873 -10.99259,3.28375 -0.0955,0.0298 -0.0483,0.18878 0.0517,0.18908 2.58922,0.008 3.40517,0 5.77228,0.022 -4.08949,3.09133 -5.50705,4.57521 -11.040932,8.883 -0.07029,0.0547 -0.02276,0.15854 0.06631,0.15783 z" style="opacity:1;fill:none;fill-opacity:1;stroke:#000000;stroke-width:0.25;stroke-miterlimit:4;stroke-dasharray:none;stroke-opacity:1"/>
    </g>
    <g transform="translate(-2.3530232,-23.379487)" id="g2604">
      <path style="opacity:1;fill:none;fill-opacity:1;stroke:#000000;stroke-width:0.25;stroke-miterlimit:4;stroke-dasharray:none;stroke-opacity:1" d="m 21.985109,313.66283 c 2.627332,-2.04836 3.6249,-3.86153 6.864377,-5.6739 7.288868,-4.07786 18.289538,-7.32096 23.781709,-8.16891 0.137205,-0.0212 0.248826,-0.24845 -0.06494,-0.25242 -6.758988,-0.0855 -8.477897,0.0312 -14.97595,0.0766 -0.354523,0.002 -0.488604,0.004 -0.771313,0.0919 -5.467827,1.69863 -7.951586,2.77181 -14.026633,6.14863 -0.220788,0.12272 -0.492346,0.11263 -0.435739,-0.17429 0.532887,-2.70101 0.807291,-3.45814 1.903914,-5.89208 0.05956,-0.1322 0.05994,-0.23348 -0.08667,-0.23534 -5.812065,-0.0737 -7.099318,-0.0351 -13.752171,-0.007 -0.145969,6.2e-4 -0.2548,0.18606 -0.140031,0.23423 1.065801,0.44734 1.344408,0.57524 2.456907,0.97151 0.153448,0.0547 0.190357,0.10111 0.15567,0.33597 -0.366469,2.48131 -0.24879,3.80682 -0.150951,6.15393 0.01997,0.47907 0.01412,0.66599 -0.367781,0.98972 -2.022436,1.71436 -3.335763,2.82287 -5.916446,5.21094 -0.138524,0.12818 -0.07757,0.28232 0.07369,0.28238 5.504624,-0.0551 9.917481,0.11713 14.872364,0.0359 0.214355,-0.004 0.423871,-0.006 0.579994,-0.12774 z" id="path1759" inkscape:connector-curvature="0" sodipodi:nodetypes="csssssssssssssssscssc"/>
      <path style="opacity:1;fill:none;fill-opacity:1;stroke:#000000;stroke-width:0.25;stroke-miterlimit:4;stroke-dasharray:none;stroke-opacity:1" d="m 86.773435,299.57753 c 0.12157,5.7e-4 0.10444,0.13743 0.035,0.17801 -10.162392,5.9386 -16.037933,7.28664 -28.736356,11.50389 9.179352,-0.0254 14.802726,-0.0532 19.053396,-0.77136 0.0731,-0.0124 0.09333,0.16491 -0.0031,0.22238 -2.349339,1.40035 -2.991029,1.67848 -5.135936,2.97699 -0.109034,0.066 -0.25591,0.0818 -0.37354,0.0817 -13.771218,-0.008 -16.830218,-0.0439 -36.505783,0 -0.162495,3.6e-4 -0.190125,-0.29007 -0.03502,-0.33852 16.020401,-5.00416 22.96725,-7.52794 31.964931,-11.69648 -4.610383,-0.14998 -12.711861,0.004 -17.579749,0.84046 -0.07037,0.0121 -0.232639,-0.12098 -0.105057,-0.18676 2.54752,-1.31352 2.964533,-1.55576 4.955247,-2.68482 0.189055,-0.10723 0.356963,-0.12669 0.556703,-0.12888 10.82358,-0.11848 22.624247,-0.0322 31.909264,0.003 z" id="path1762" inkscape:connector-curvature="0" sodipodi:nodetypes="cscsssssscssssc"/>
      <path style="opacity:1;fill:none;fill-opacity:1;stroke:#000000;stroke-width:0.25;stroke-miterlimit:4;stroke-dasharray:none;stroke-opacity:1" d="m 87.216984,305.20401 c 3.988417,-2.25753 4.247467,-2.54232 7.626496,-4.07022 0.17064,-0.0772 0.15497,-0.11952 0.561687,-0.12616 5.995833,-0.0979 6.988043,-0.0344 11.167743,-0.0333 0.67047,1.8e-4 2.14956,0.32574 2.4774,0.79038 0.27851,0.39472 0.12337,1.09517 -0.42665,1.4571 -5.37267,3.53548 -10.907915,4.1196 -17.032312,8.09757 3.524542,-0.0252 5.771847,-0.0829 9.376802,0.004 0.21793,0.005 0.26443,0.21957 0.0659,0.30965 -1.736014,0.78782 -2.324481,1.0702 -4.044062,1.82305 -0.11587,0.0507 -0.15779,0.11363 -0.363637,0.10842 -6.364804,-0.16104 -9.105117,-0.0497 -17.515267,-0.0165 -0.25008,9.9e-4 -0.26179,-0.23079 -0.0513,-0.36584 7.36662,-4.72681 14.113085,-7.39562 21.446006,-10.29854 0.17154,-0.0679 0.0841,-0.31905 -0.099,-0.29714 -4.437646,0.53081 -8.712262,1.73302 -13.027316,2.90276 -0.29713,0.0805 -0.43041,-0.13359 -0.16249,-0.28523 z" id="path1764" inkscape:connector-curvature="0" sodipodi:nodetypes="sssssscssssssssss"/>
      <path style="opacity:1;fill:none;fill-opacity:1;stroke:#000000;stroke-width:0.25;stroke-miterlimit:4;stroke-dasharray:none;stroke-opacity:1" d="m 113.41296,301.00656 c 5.2181,-0.0256 11.62759,-0.009 16.29555,-0.008 0.18934,5e-5 0.35059,0.0894 0.2718,0.15873 -0.99959,0.87899 -1.22283,1.07547 -2.2108,1.91199 -0.10273,0.087 -0.25322,0.15889 -0.39517,0.15873 -4.29659,-0.005 -5.487,-0.057 -9.95271,-0.062 -0.18093,-2e-4 -0.22061,0.004 -0.34115,0.093 -1.03445,0.76599 -1.24988,0.95302 -2.50961,2.05104 2.91182,-0.0444 5.42058,-0.13612 7.17898,0.035 1.70368,0.16578 2.47867,1.7197 1.23425,3.26733 -4.78983,5.9569 -15.85727,6.89927 -21.78496,6.37153 -0.17676,-0.0157 -0.16989,-0.25974 -0.0495,-0.28065 3.86654,-0.67165 10.07011,-2.00519 14.52731,-5.18361 1.09801,-0.78299 0.78708,-2.02934 -0.28064,-2.04703 -3.7598,-0.0623 -6.72944,-0.0995 -10.02055,-0.0661 -0.17743,0.002 -0.24001,-0.17286 -0.099,-0.28064 4.37137,-3.34179 5.03609,-3.88489 7.7294,-5.98036 0.14972,-0.11649 0.17953,-0.13828 0.40684,-0.13939 z" id="path1766" inkscape:connector-curvature="0" sodipodi:nodetypes="csssssscssssssssssc"/>
      <path sodipodi:nodetypes="sssss" inkscape:connector-curvature="0" id="path1781" d="m 137.1495,304.43405 c 2.11601,-1.6422 7.18191,-1.83876 3.74542,0.9236 -3.33683,2.68226 -4.02429,3.46716 -6.86788,5.17053 -2.54126,1.52226 -5.79296,0.87665 -3.85687,-0.85696 2.746,-2.45883 4.96975,-3.67759 6.97933,-5.23717 z" style="opacity:1;fill:none;fill-opacity:1;stroke:#000000;stroke-width:0.25;stroke-miterlimit:4;stroke-dasharray:none;stroke-dashoffset:0;stroke-opacity:1;paint-order:fill markers stroke"/>
      <path style="opacity:1;fill:none;fill-opacity:1;stroke:#000000;stroke-width:0.25;stroke-miterlimit:4;stroke-dasharray:none;stroke-dashoffset:0;stroke-opacity:1;paint-order:fill markers stroke" d="m 131.25786,313.74928 c -1.60847,-0.01 -3.07235,-0.0138 -4.79866,-0.0556 -2.90028,-0.0702 -4.16938,-2.78053 -1.79752,-5.11886 0.97095,-0.95723 2.41274,-2.304 4.3169,-3.85462 3.50941,-2.85785 7.8758,-3.76109 11.17971,-3.74118 1.60847,0.01 3.07235,0.0138 4.79866,0.0556 2.90028,0.0702 4.16938,2.78053 1.79752,5.11886 -0.97095,0.95723 -3.06627,2.8683 -4.58105,4.23 -3.07315,2.76261 -7.61165,3.38571 -10.91556,3.3658 z" id="path1789" inkscape:connector-curvature="0" sodipodi:nodetypes="sssssssss"/>
    </g>
  </g>
</svg>
