<?xml version="1.0" encoding="UTF-8" standalone="no"?>
<!-- Created with Inkscape (http://www.inkscape.org/) -->
<svg xmlns:dc="http://purl.org/dc/elements/1.1/" xmlns:cc="http://creativecommons.org/ns#" xmlns:rdf="http://www.w3.org/1999/02/22-rdf-syntax-ns#" xmlns:svg="http://www.w3.org/2000/svg" xmlns="http://www.w3.org/2000/svg" xmlns:sodipodi="http://sodipodi.sourceforge.net/DTD/sodipodi-0.dtd" xmlns:inkscape="http://www.inkscape.org/namespaces/inkscape" width="300mm" height="260mm" viewBox="0 0 300.00001 260.00001" version="1.1" id="svg1161" inkscape:version="0.92.3 (2405546, 2018-03-11)" sodipodi:docname="rm-front-fender.svg">
  <defs id="defs1155"/>
  <sodipodi:namedview id="base" pagecolor="#ffffff" bordercolor="#666666" borderopacity="1.0" inkscape:pageopacity="0.0" inkscape:pageshadow="2" inkscape:zoom="0.35" inkscape:cx="-65.142903" inkscape:cy="608.57143" inkscape:document-units="mm" inkscape:current-layer="layer2" showgrid="false" inkscape:pagecheckerboard="true" gridtolerance="1" guidetolerance="1" inkscape:window-width="1215" inkscape:window-height="963" inkscape:window-x="542" inkscape:window-y="44" inkscape:window-maximized="0" units="mm" objecttolerance="1"/>
  <metadata id="metadata1158">
    <rdf:RDF>
      <cc:Work rdf:about="">
        <dc:format>image/svg+xml</dc:format>
        <dc:type rdf:resource="http://purl.org/dc/dcmitype/StillImage"/>
        <dc:title>@@title@@</dc:title>
        <dc:creator>
          <cc:Agent>
            <dc:title>x3300 &lt;x3300x@gmail.com&gt;</dc:title>
          </cc:Agent>
        </dc:creator>
        <dc:description>
Fabricators Design License draft v10.11.20

Copyright x3300 &lt;x3300x@gmail.com&gt;

Permission is hereby granted, free of charge, to any person obtaining
a copy of this design and associated documentation (the _Design_), to
deal in the Design without restriction, including without limitation
the rights to use, copy, modify, merge, publish, distribute,
sublicense, and/or sell copies of the Design, and to permit persons to
whom the Design is furnished to do so, subject to the following
conditions:

 The above copyright notice and this permission notice shall be
 included in all copies or substantial portions of the Design.

 If you modify the Design including creating additional or alternate
 documentation formats (images, drawings, text documents, etc.), you
 may copy and distribute your modified version of the Design in any
 form provided that you also do one of the following:

  Accompany the modified version of the Design with documentation
  which corresponds to and completely describes the modified version
  of the Design; or,

  Accompany the modified version of the Design with a written offer
  for documentation which corresponds to and completely describes the
  modified version of the Design.

THE DESIGN IS PROVIDED _AS IS_, WITHOUT WARRANTY OF ANY KIND,
EXPRESS OR IMPLIED, INCLUDING BUT NOT LIMITED TO THE WARRANTIES OF
MERCHANTABILITY, FITNESS FOR A PARTICULAR PURPOSE AND NONINFRINGEMENT.
IN NO EVENT SHALL THE AUTHORS OR COPYRIGHT HOLDERS BE LIABLE FOR ANY
CLAIM, DAMAGES OR OTHER LIABILITY, WHETHER IN AN ACTION OF CONTRACT,
TORT OR OTHERWISE, ARISING FROM, OUT OF OR IN CONNECTION WITH THE
DESIGN OR THE USE OR OTHER DEALINGS IN THE DESIGN.
        </dc:description>
        <dc:date>@@date@@</dc:date>
        <dc:rights>
          <cc:Agent>
            <dc:title>All Rights Reserved</dc:title>
          </cc:Agent>
        </dc:rights>
        <dc:publisher>
          <cc:Agent>
            <dc:title>@@publisher@@</dc:title>
          </cc:Agent>
        </dc:publisher>
        <dc:identifier>@@identifier@@</dc:identifier>
        <dc:source>@@source@@</dc:source>
        <dc:relation>@@relation@@</dc:relation>
        <dc:language>@@language@@</dc:language>
        <dc:subject>
          <rdf:Bag>
            <rdf:li>@@keywords@@</rdf:li>
          </rdf:Bag>
        </dc:subject>
        <dc:coverage>@@coverage@@</dc:coverage>
        <dc:contributor>
          <cc:Agent>
            <dc:title>@@contributors@@</dc:title>
          </cc:Agent>
        </dc:contributor>
        <cc:license rdf:resource="Fabricators Design License"/>
      </cc:Work>
    </rdf:RDF>
  </metadata>
  <g inkscape:groupmode="layer" id="layer2" inkscape:label="print" transform="translate(0,-36.999988)" style="display:inline">
    <path style="display:inline;fill:#ffff00;fill-opacity:1;stroke:none;stroke-width:0.26458332px;stroke-linecap:butt;stroke-linejoin:miter;stroke-opacity:1" d="m 252.47539,56.140556 c -1.99987,-7e-5 -4.36331,0.23494 -7.39903,0.68575 -42.63551,6.33137 -59.2894,12.40871 -84.71783,16.51733 -23.23848,3.75478 -44.04339,8.63074 -69.161144,14.43995 -18.619037,4.255221 -37.929948,11.383366 -52.747689,24.148404 -14.81762,12.76494 -24.944911,31.33545 -24.849641,57.29418 -0.0953,25.95873 10.032021,44.52923 24.849641,57.29417 14.819932,12.76692 34.134372,19.89546 52.755959,24.15046 25.113884,5.80833 45.917064,10.68353 69.152874,14.43788 25.42843,4.10862 42.08232,10.18597 84.71783,16.51734 6.07165,0.90164 9.583,1.08521 12.58734,-0.18862 3.00434,-1.27383 4.27378,-3.74354 5.71283,-5.98155 1.25391,-1.95006 3.96097,-6.79238 7.08485,-12.37495 3.12388,-5.58258 6.56611,-11.76075 8.87904,-15.7608 0.189,-0.32686 0.54018,-0.75696 0.99116,-1.48414 0.45096,-0.72719 1.07979,-2.02826 0.83611,-3.57085 -0.24368,-1.54258 -1.18012,-2.68869 -2.26706,-3.62716 -1.0869,-0.93848 -2.47417,-1.81767 -4.42504,-2.87683 -12.52141,-6.79817 -38.05879,-11.83497 -55.45242,-14.29887 -47.00862,-6.65903 -69.44774,-8.95422 -93.37467,-12.07058 17.57103,-4.29908 36.85822,-9.0074 44.66963,-10.99209 5.01413,-1.27397 10.3849,-4.53872 14.64717,-9.50278 4.25056,-4.95043 7.3308,-11.7015 7.1825,-19.67063 0.1483,-7.96914 -2.93196,-14.72008 -7.1825,-19.67063 -4.26225,-4.96419 -9.63299,-8.22931 -14.64717,-9.5033 -7.81141,-1.9847 -27.0986,-6.69302 -44.66963,-10.9921 23.9269,-3.11626 46.36603,-5.41103 93.37467,-12.07006 17.39369,-2.46391 42.93106,-7.50125 55.45242,-14.2994 1.95087,-1.05915 3.33814,-1.93833 4.42504,-2.876818 1.08694,-0.93847 2.02338,-2.08458 2.26706,-3.62716 0.24368,-1.542596 -0.38515,-2.843666 -0.83611,-3.570844 -0.45098,-0.727191 -0.80216,-1.15729 -0.99116,-1.484151 -2.31293,-4.000051 -5.75516,-10.178231 -8.87904,-15.760801 -3.12388,-5.58257 -5.83094,-10.42489 -7.08485,-12.37495 -1.07932,-1.67855 -1.91635,-3.33479 -3.68557,-4.76612 -1.7692,-1.43133 -4.21606,-2.08918 -7.21557,-2.08928 z" id="path6477" inkscape:connector-curvature="0"/>
  </g>
  <g inkscape:label="cut" inkscape:groupmode="layer" id="layer1" transform="translate(0,-36.999988)" style="display:inline">
    <path style="display:inline;fill:none;stroke:#ff00ff;stroke-width:0.08819444;stroke-miterlimit:4;stroke-dasharray:none;stroke-opacity:1" d="m 169.55472,143.05727 c -9.43289,-2.39668 -33.47322,-8.26352 -54.19122,-13.3351 -1.27297,-0.31161 -1.46868,-2.396 0.30173,-2.48811 28.16402,-3.90587 49.73851,-5.77987 102.92314,-13.31376 17.20128,-2.43665 42.94936,-7.73346 54.40769,-13.954447 7.38457,-4.00926 5.02037,-4.93017 3.66043,-7.282075 -4.676,-8.086841 -13.76275,-24.706021 -15.88767,-28.010751 -3.01057,-4.68205 -3.4178,-6.53511 -15.23723,-4.77993 -42.46591,6.30619 -58.98818,12.36018 -84.67858,16.51113 -23.10882,3.73383 -43.83437,8.58933 -68.956844,14.39964 -36.67618,8.380436 -75.386249,28.084513 -75.19538,78.422103 -0.190869,50.33758 38.5192,70.04166 75.19538,78.4221 25.122474,5.8103 45.848024,10.66581 68.956844,14.39963 25.6904,4.15095 42.21267,10.20494 84.67858,16.51113 11.81943,1.75518 12.22666,-0.0979 15.23723,-4.77993 2.12492,-3.30472 11.21167,-19.92391 15.88767,-28.01075 1.35994,-2.35189 3.72414,-3.2728 -3.66043,-7.28206 -11.45833,-6.22099 -37.20641,-11.5178 -54.40769,-13.95446 -53.18463,-7.53389 -74.75912,-9.40789 -102.92314,-13.31375 -1.77041,-0.0921 -1.5747,-2.1765 -0.30173,-2.48812 20.718,-5.07158 44.75833,-10.93841 54.19122,-13.33509 8.52913,-2.16705 19.79427,-11.8242 19.49553,-26.1687 0.29874,-14.34449 -10.9664,-24.00165 -19.49553,-26.1687 z" id="path84" inkscape:connector-curvature="0" sodipodi:nodetypes="sscsssssscccsssssscsscs"/>
  </g>
</svg>
