<?xml version="1.0" encoding="UTF-8" standalone="no"?>
<!-- Created with Inkscape (http://www.inkscape.org/) -->
<svg xmlns:dc="http://purl.org/dc/elements/1.1/" xmlns:cc="http://creativecommons.org/ns#" xmlns:rdf="http://www.w3.org/1999/02/22-rdf-syntax-ns#" xmlns:svg="http://www.w3.org/2000/svg" xmlns="http://www.w3.org/2000/svg" xmlns:sodipodi="http://sodipodi.sourceforge.net/DTD/sodipodi-0.dtd" xmlns:inkscape="http://www.inkscape.org/namespaces/inkscape" width="360mm" height="390mm" viewBox="0 0 360 390" version="1.1" id="svg1161" inkscape:version="0.92.3 (2405546, 2018-03-11)" sodipodi:docname="rm-fork-guard-acerbis-07.svg">
  <sodipodi:namedview pagecolor="#ffffff" bordercolor="#666666" borderopacity="1" objecttolerance="10" gridtolerance="10" guidetolerance="10" inkscape:pageopacity="0" inkscape:pageshadow="2" inkscape:window-width="640" inkscape:window-height="480" id="namedview15" showgrid="false" inkscape:pagecheckerboard="true" inkscape:zoom="0.48574786" inkscape:cx="680.31496" inkscape:cy="737.00787" inkscape:current-layer="layer1"/>
  <defs id="defs2109"/>
  <metadata id="metadata1158">
    <rdf:RDF>
      <cc:Work rdf:about="">
        <dc:format>image/svg+xml</dc:format>
        <dc:type rdf:resource="http://purl.org/dc/dcmitype/StillImage"/>
        <dc:title>@@title@@</dc:title>
        <dc:creator>
          <cc:Agent>
            <dc:title>x3300 &lt;x3300x@gmail.com&gt;</dc:title>
          </cc:Agent>
        </dc:creator>
        <dc:description>
Fabricators Design License draft v10.11.20

Copyright x3300 &lt;x3300x@gmail.com&gt;

Permission is hereby granted, free of charge, to any person obtaining
a copy of this design and associated documentation (the _Design_), to
deal in the Design without restriction, including without limitation
the rights to use, copy, modify, merge, publish, distribute,
sublicense, and/or sell copies of the Design, and to permit persons to
whom the Design is furnished to do so, subject to the following
conditions:

 The above copyright notice and this permission notice shall be
 included in all copies or substantial portions of the Design.

 If you modify the Design including creating additional or alternate
 documentation formats (images, drawings, text documents, etc.), you
 may copy and distribute your modified version of the Design in any
 form provided that you also do one of the following:

  Accompany the modified version of the Design with documentation
  which corresponds to and completely describes the modified version
  of the Design; or,

  Accompany the modified version of the Design with a written offer
  for documentation which corresponds to and completely describes the
  modified version of the Design.

THE DESIGN IS PROVIDED _AS IS_, WITHOUT WARRANTY OF ANY KIND,
EXPRESS OR IMPLIED, INCLUDING BUT NOT LIMITED TO THE WARRANTIES OF
MERCHANTABILITY, FITNESS FOR A PARTICULAR PURPOSE AND NONINFRINGEMENT.
IN NO EVENT SHALL THE AUTHORS OR COPYRIGHT HOLDERS BE LIABLE FOR ANY
CLAIM, DAMAGES OR OTHER LIABILITY, WHETHER IN AN ACTION OF CONTRACT,
TORT OR OTHERWISE, ARISING FROM, OUT OF OR IN CONNECTION WITH THE
DESIGN OR THE USE OR OTHER DEALINGS IN THE DESIGN.
        </dc:description>
        <dc:date>@@date@@</dc:date>
        <dc:rights>
          <cc:Agent>
            <dc:title>All Rights Reserved</dc:title>
          </cc:Agent>
        </dc:rights>
        <dc:publisher>
          <cc:Agent>
            <dc:title>@@publisher@@</dc:title>
          </cc:Agent>
        </dc:publisher>
        <dc:identifier>@@identifier@@</dc:identifier>
        <dc:source>@@source@@</dc:source>
        <dc:relation>@@relation@@</dc:relation>
        <dc:language>@@language@@</dc:language>
        <dc:subject>
          <rdf:Bag>
            <rdf:li>@@keywords@@</rdf:li>
          </rdf:Bag>
        </dc:subject>
        <dc:coverage>@@coverage@@</dc:coverage>
        <dc:contributor>
          <cc:Agent>
            <dc:title>@@contributors@@</dc:title>
          </cc:Agent>
        </dc:contributor>
        <cc:license rdf:resource="Fabricators Design License"/>
      </cc:Work>
    </rdf:RDF>
  </metadata>
  <g inkscape:groupmode="layer" id="layer2" inkscape:label="print" transform="translate(0,5)" sodipodi:insensitive="true">
    <g id="g1659" transform="translate(-385.95981,50.288067)">
      <path inkscape:connector-curvature="0" style="display:inline;opacity:1;fill:#ffff00;fill-opacity:1;stroke:none;stroke-width:0.26458332px;stroke-linecap:butt;stroke-linejoin:miter;stroke-opacity:1" d="m 640.66415,-134.90592 c -9.35868,0.26171 -18.30099,3.92557 -25.1256,9.41389 -6.82459,5.48833 -11.70316,12.93383 -11.97704,21.12274 -0.65499,19.584275 -0.24834,38.433795 -0.0506,52.026275 a 3.8014095,3.8014095 0 0 0 0,0.003 c 0.0769,4.99634 -1.67659,10.38496 -3.73053,15.80886 -3.22464,8.51543 -7.60257,17.33202 -12.77596,23.62905 -5.43169,6.6114304 -5.46665,9.0888204 -6.79132,12.07626036 -1.46192,3.29698004 -1.87435,7.65169004 -2.38125,13.86323964 -0.50689,6.21154 -0.82649,13.9125 -1.01389,22.22861 -0.3748,16.63223 -0.21568,35.70052 0.11472,49.76855 0.0695,2.95891 0.63991,5.52413 1.9973,7.63778 1.35739,2.11365 3.47003,3.50795 5.58674,4.23746 4.93466,1.70074 9.14656,1.28154 14.63941,1.55908 0.007,0.0103 0.0263,0.0267 0.094,0.11266 0.16157,0.20508 0.28443,0.65088 0.28474,0.66715 0.4599,24.143055 0.21733,53.053675 -5.3e-4,78.721315 -0.0206,2.42642 0.54472,4.68617 2.0159,6.38358 1.47118,1.69741 3.63914,2.41509 5.43481,2.47062 17.50428,0.5415 36.25322,0.0494 53.12907,0.70179 -0.0503,-0.003 0.61238,0.22092 1.23455,1.06971 0.62214,0.84878 0.98422,2.12092 0.97255,2.56727 -0.1756,6.72103 -0.0848,10.58821 -0.19793,16.83621 -0.0532,2.93957 1.14763,4.9376 2.41485,6.96029 1.2672,2.02268 2.2733,3.7534 4.855,5.00485 13.29317,6.4438 25.08197,10.36495 40.70191,17.31833 2.84157,1.26495 5.784,1.16748 8.6837,0.2563 1.44984,-0.45555 2.90693,-1.16937 4.14393,-2.4448 1.23701,-1.27542 2.13628,-3.28668 2.03708,-5.33921 -0.60182,-12.45404 -0.71974,-18.63487 -0.62372,-31.08595 -0.009,1.21947 0.0193,0.19518 0.80769,-0.66871 0.78843,-0.86389 1.97128,-1.85959 2.90163,-2.4851 -0.6469,0.43493 0.5856,-0.1072 2.06706,-0.34313 1.48148,-0.23593 3.31449,-0.38746 5.34749,-1.55806 1.01148,-0.58242 2.17668,-1.32289 3.17498,-2.59725 0.99832,-1.27437 1.62581,-3.07457 1.65885,-4.86431 1.3094,-70.93018 1.71244,-102.697705 0.1881,-156.723275 -0.21426,-7.59376 -2.47156,-14.88688 -5.33509,-21.4953296 -19.99324,-46.1400104 -44.29614,-96.5928904 -63.35839,-125.8548154 -8.02915,-12.32533 -19.89381,-17.29907 -31.12422,-16.98501 z" id="path1044" transform="translate(0,88)"/>
      <path style="display:inline;opacity:1;fill:#ffff00;fill-opacity:1;stroke:none;stroke-width:0.26458332px;stroke-linecap:butt;stroke-linejoin:miter;stroke-opacity:1" d="m 492.64811,-135.39336 c -11.56348,-0.32336 -23.87313,4.87233 -32.09468,17.49299 -19.14691,29.391885 -43.44109,79.849095 -63.44781,126.0202154 -2.89872,6.6896096 -5.20599,14.1118596 -5.42602,21.9097696 -1.52485,54.04346 -1.12186,85.843865 0.18759,156.775955 0.0367,1.9894 0.75642,4.07969 1.89653,5.53505 1.14009,1.45537 2.43639,2.26579 3.49848,2.87735 2.32124,1.33657 4.24215,1.45642 5.7304,1.69344 1.11096,0.17692 2.0506,0.57684 2.01745,0.47336 0.78727,0.57526 1.68915,1.33411 2.30013,2.00348 0.33366,0.36558 0.46106,0.75401 0.51107,0.89712 0.0797,11.67744 -0.0367,17.99577 -0.61908,30.04725 -0.11398,2.35884 0.93914,4.71715 2.35181,6.17379 1.41262,1.45664 3.03217,2.2371 4.61211,2.73367 3.15987,0.99314 6.2539,1.13303 9.4759,-0.30128 15.57235,-6.93219 27.36684,-10.85392 40.73447,-17.3338 3.06345,-1.48498 3.98484,-3.29335 5.31595,-5.41777 1.33111,-2.12442 2.64834,-4.15446 2.58641,-7.57576 -0.11276,-6.22904 -0.0223,-10.10354 -0.19844,-16.846 -0.003,-0.10938 0.26845,-1.21015 0.75603,-1.87534 0.36028,-0.49154 0.67824,-0.60012 0.60718,-0.61597 16.77048,-0.63347 58.02048,-0.15206 75.64087,-0.69713 a 4.9222069,4.9222069 0 0 0 5.3e-4,0 c 2.01672,-0.0624 4.54343,-0.89209 6.24664,-2.85718 1.7031,-1.96498 2.31178,-4.52546 2.28979,-7.12671 -0.25866,-38.71181 0.24244,-79.490195 0.16949,-112.411725 -0.0365,-16.46193 -0.21552,-30.95376 -0.71158,-42.3075 -0.49606,-11.35374 -0.9923,-19.0573096 -2.85874,-24.20471964 -1.28391,-3.54087996 -1.67096,-6.06944996 -7.07761,-12.65039036 -5.04814,-6.14459 -9.39706,-14.87053 -12.59457,-23.31434 -2.04448,-5.39894 -3.73053,-10.66105 -3.65766,-15.39493 a 4.9222069,4.9222069 0 0 0 0,-0.004 c 0.19759,-13.58544 0.60515,-32.45627 -0.0512,-52.080025 -0.28846,-8.62497 -5.38415,-16.32019 -12.39511,-21.95835 -7.01096,-5.63817 -16.16017,-9.39092 -25.79636,-9.66039 z" id="path17" inkscape:connector-curvature="0" transform="translate(0,88)"/>
    </g>
  </g>
  <g inkscape:label="cut" inkscape:groupmode="layer" id="layer1" transform="translate(0,93)" style="display:inline" sodipodi:insensitive="true">
    <g id="g893" transform="translate(99.455486,9.0236816)">
      <g transform="matrix(0.26458333,0,0,0.26458333,65.947864,-144.43953)" id="g412" style="display:inline">
        <path style="fill:none;stroke:#ff00ff;stroke-width:0.33333334;stroke-miterlimit:4;stroke-dasharray:none;stroke-opacity:1" d="m 182.63475,1060.0389 c 8.57271,0.4476 14.49111,9.5293 14.63354,17.0065 1.74416,91.5634 0.82337,200.9121 0,297.9243 -0.11759,13.855 6.33176,18.7395 14.23801,18.9841 65.56619,2.0282 136.44903,0.164 200.9142,2.656 12.01608,0.4645 22.46208,16.455 22.14803,28.476 -0.65645,25.1274 -0.31415,39.6608 -0.746,63.5181 -0.17881,9.8785 12.21981,28.5649 19.37952,32.0355 49.28672,23.8915 93.76285,38.7054 153.40915,65.2576 11.73152,5.2224 36.73102,0.69 35.99054,-14.6335 -2.28147,-47.2118 -2.73688,-71.106 -2.373,-118.295 0.0518,-6.7156 11.30878,-17.6389 20.36827,-23.73 5.66633,-3.8096 20.89403,-3.1188 28.87152,-7.7122 6.34872,-3.6556 10.91877,-7.6086 11.074,-16.0178 4.94848,-268.0579 6.4683,-387.709 0.71348,-591.67047 C 700.52014,787.75737 692.64565,761.84208 682.272,737.90196 606.87959,563.91278 514.91281,373.29187 443.95173,264.36149 369.60282,150.23053 215.19498,227.06775 212.4809,308.21836 c -2.4586,73.51208 -0.93212,144.47963 -0.1836,195.94475 0.34254,22.25185 -7.14666,44.24457 -15.02901,65.05981 -12.53455,33.10046 -29.46445,67.5827 -50.62407,93.3381 -19.61158,23.87113 -17.62865,28.80304 -23.63404,42.34665 -13.55664,30.57348 -13.65823,212.40367 -11.16999,318.34973 0.44677,19.0228 7.29528,27.6115 18.98402,31.64 15.48733,5.3377 29.91713,3.9983 51.81054,5.1415 z" id="path16" inkscape:connector-curvature="0" sodipodi:nodetypes="sssssssssssssssssscasssss"/>
        <rect style="fill:none;stroke:#ff00ff;stroke-width:0.33333334;stroke-miterlimit:4;stroke-dasharray:none;stroke-opacity:1" id="rect117" width="60.907059" height="170.8562" x="319.04919" y="357.8327" ry="12.260513"/>
      </g>
      <path style="fill:none;stroke:#ff00ff;stroke-width:0.08819444;stroke-miterlimit:4;stroke-dasharray:none;stroke-opacity:1" d="m 67.341733,220.44235 c 0.0311,3.66581 -1.67528,4.95816 -3.76714,5.02288 -17.34772,0.53663 -58.8563097,0.0434 -75.91272,0.70273 -3.17925,0.1229 -5.94309,4.35372 -5.86,7.53428 0.17369,6.64829 0.0831,10.49358 0.19738,16.80583 0.0473,2.61369 -3.23316,7.5578 -5.1275,8.47606 -13.04044,6.32129 -24.80808,10.2408 -40.5895,17.26607 -3.10396,1.38176 -9.71841,0.18256 -9.52251,-3.87178 0.60365,-12.49145 0.72414,-18.81346 0.62786,-31.29888 -0.0138,-1.77684 -2.9921,-4.66696 -5.38909,-6.27857 -1.49923,-1.00795 -5.52823,-0.82518 -7.63894,-2.04052 -1.67976,-0.96721 -2.88891,-2.0131 -2.93,-4.23804 -1.30926,-70.92363 -1.7114,-102.58132 -0.18875,-156.546137 0.19468,-6.90051 2.27814,-13.75726 5.02285,-20.09142 19.94757,-46.0346301 44.28045,-96.46975 63.05556,-125.29091 19.6714903,-30.197153 60.52523,-9.8673 61.24333,11.6038 0.6505,19.45007 0.24662,38.2269 0.0486,51.8437099 -0.0906,5.88747 1.89088,11.70638 3.97642,17.21374 3.31643,8.7578301 7.7958,17.8812601 13.39429,24.6957101 5.18889,6.3159 4.79521,7.18335 6.25317,11.20421 5.11152,14.09697 2.58827,99.727727 3.10671,177.287237 z" sodipodi:nodetypes="cssssssssssssssscassc" inkscape:connector-curvature="0" id="path16-3-6"/>
    </g>
  </g>
</svg>
