<?xml version="1.0" encoding="UTF-8" standalone="no"?>
<!-- Created with Inkscape (http://www.inkscape.org/) -->
<svg xmlns:dc="http://purl.org/dc/elements/1.1/" xmlns:cc="http://creativecommons.org/ns#" xmlns:rdf="http://www.w3.org/1999/02/22-rdf-syntax-ns#" xmlns:svg="http://www.w3.org/2000/svg" xmlns="http://www.w3.org/2000/svg" xmlns:sodipodi="http://sodipodi.sourceforge.net/DTD/sodipodi-0.dtd" xmlns:inkscape="http://www.inkscape.org/namespaces/inkscape" width="540mm" height="320mm" viewBox="0 0 540.00001 320.00001" version="1.1" id="svg1161" inkscape:version="0.92.3 (2405546, 2018-03-11)" sodipodi:docname="rm-side-plate-left.svg">
  <defs id="defs1155"/>
  <sodipodi:namedview id="base" pagecolor="#ffffff" bordercolor="#666666" borderopacity="1.0" inkscape:pageopacity="0.0" inkscape:pageshadow="2" inkscape:zoom="0.35" inkscape:cx="216.63943" inkscape:cy="571.5454" inkscape:document-units="mm" inkscape:current-layer="layer1" showgrid="false" inkscape:pagecheckerboard="true" gridtolerance="1" guidetolerance="1" inkscape:window-width="1215" inkscape:window-height="963" inkscape:window-x="542" inkscape:window-y="44" inkscape:window-maximized="0" units="mm" objecttolerance="1"/>
  <metadata id="metadata1158">
    <rdf:RDF>
      <cc:Work rdf:about="">
        <dc:format>image/svg+xml</dc:format>
        <dc:type rdf:resource="http://purl.org/dc/dcmitype/StillImage"/>
        <dc:title>@@title@@</dc:title>
        <dc:creator>
          <cc:Agent>
            <dc:title>x3300 &lt;x3300x@gmail.com&gt;</dc:title>
          </cc:Agent>
        </dc:creator>
        <dc:description>
Fabricators Design License draft v10.11.20

Copyright x3300 &lt;x3300x@gmail.com&gt;

Permission is hereby granted, free of charge, to any person obtaining
a copy of this design and associated documentation (the _Design_), to
deal in the Design without restriction, including without limitation
the rights to use, copy, modify, merge, publish, distribute,
sublicense, and/or sell copies of the Design, and to permit persons to
whom the Design is furnished to do so, subject to the following
conditions:

 The above copyright notice and this permission notice shall be
 included in all copies or substantial portions of the Design.

 If you modify the Design including creating additional or alternate
 documentation formats (images, drawings, text documents, etc.), you
 may copy and distribute your modified version of the Design in any
 form provided that you also do one of the following:

  Accompany the modified version of the Design with documentation
  which corresponds to and completely describes the modified version
  of the Design; or,

  Accompany the modified version of the Design with a written offer
  for documentation which corresponds to and completely describes the
  modified version of the Design.

THE DESIGN IS PROVIDED _AS IS_, WITHOUT WARRANTY OF ANY KIND,
EXPRESS OR IMPLIED, INCLUDING BUT NOT LIMITED TO THE WARRANTIES OF
MERCHANTABILITY, FITNESS FOR A PARTICULAR PURPOSE AND NONINFRINGEMENT.
IN NO EVENT SHALL THE AUTHORS OR COPYRIGHT HOLDERS BE LIABLE FOR ANY
CLAIM, DAMAGES OR OTHER LIABILITY, WHETHER IN AN ACTION OF CONTRACT,
TORT OR OTHERWISE, ARISING FROM, OUT OF OR IN CONNECTION WITH THE
DESIGN OR THE USE OR OTHER DEALINGS IN THE DESIGN.
        </dc:description>
        <dc:date>@@date@@</dc:date>
        <dc:rights>
          <cc:Agent>
            <dc:title>All Rights Reserved</dc:title>
          </cc:Agent>
        </dc:rights>
        <dc:publisher>
          <cc:Agent>
            <dc:title>@@publisher@@</dc:title>
          </cc:Agent>
        </dc:publisher>
        <dc:identifier>@@identifier@@</dc:identifier>
        <dc:source>@@source@@</dc:source>
        <dc:relation>@@relation@@</dc:relation>
        <dc:language>@@language@@</dc:language>
        <dc:subject>
          <rdf:Bag>
            <rdf:li>@@keywords@@</rdf:li>
          </rdf:Bag>
        </dc:subject>
        <dc:coverage>@@coverage@@</dc:coverage>
        <dc:contributor>
          <cc:Agent>
            <dc:title>@@contributors@@</dc:title>
          </cc:Agent>
        </dc:contributor>
        <cc:license rdf:resource="Fabricators Design License"/>
      </cc:Work>
      <cc:Work rdf:about="">
        <dc:format>image/svg+xml</dc:format>
        <dc:type rdf:resource="http://purl.org/dc/dcmitype/StillImage"/>
        <dc:title>@@title@@</dc:title>
        <dc:creator>
          <cc:Agent>
            <dc:title>x3300 &lt;x3300x@gmail.com&gt;</dc:title>
          </cc:Agent>
        </dc:creator>
        <dc:description>
Fabricators Design License draft v10.11.20

Copyright x3300 &lt;x3300x@gmail.com&gt;

Permission is hereby granted, free of charge, to any person obtaining
a copy of this design and associated documentation (the _Design_), to
deal in the Design without restriction, including without limitation
the rights to use, copy, modify, merge, publish, distribute,
sublicense, and/or sell copies of the Design, and to permit persons to
whom the Design is furnished to do so, subject to the following
conditions:

 The above copyright notice and this permission notice shall be
 included in all copies or substantial portions of the Design.

 If you modify the Design including creating additional or alternate
 documentation formats (images, drawings, text documents, etc.), you
 may copy and distribute your modified version of the Design in any
 form provided that you also do one of the following:

  Accompany the modified version of the Design with documentation
  which corresponds to and completely describes the modified version
  of the Design; or,

  Accompany the modified version of the Design with a written offer
  for documentation which corresponds to and completely describes the
  modified version of the Design.

THE DESIGN IS PROVIDED _AS IS_, WITHOUT WARRANTY OF ANY KIND,
EXPRESS OR IMPLIED, INCLUDING BUT NOT LIMITED TO THE WARRANTIES OF
MERCHANTABILITY, FITNESS FOR A PARTICULAR PURPOSE AND NONINFRINGEMENT.
IN NO EVENT SHALL THE AUTHORS OR COPYRIGHT HOLDERS BE LIABLE FOR ANY
CLAIM, DAMAGES OR OTHER LIABILITY, WHETHER IN AN ACTION OF CONTRACT,
TORT OR OTHERWISE, ARISING FROM, OUT OF OR IN CONNECTION WITH THE
DESIGN OR THE USE OR OTHER DEALINGS IN THE DESIGN.
        </dc:description>
        <dc:date>@@date@@</dc:date>
        <dc:rights>
          <cc:Agent>
            <dc:title>All Rights Reserved</dc:title>
          </cc:Agent>
        </dc:rights>
        <dc:publisher>
          <cc:Agent>
            <dc:title>@@publisher@@</dc:title>
          </cc:Agent>
        </dc:publisher>
        <dc:identifier>@@identifier@@</dc:identifier>
        <dc:source>@@source@@</dc:source>
        <dc:relation>@@relation@@</dc:relation>
        <dc:language>@@language@@</dc:language>
        <dc:subject>
          <rdf:Bag>
            <rdf:li>@@keywords@@</rdf:li>
          </rdf:Bag>
        </dc:subject>
        <dc:coverage>@@coverage@@</dc:coverage>
        <dc:contributor>
          <cc:Agent>
            <dc:title>@@contributors@@</dc:title>
          </cc:Agent>
        </dc:contributor>
        <cc:license rdf:resource="Fabricators Design License"/>
      </cc:Work>
    </rdf:RDF>
  </metadata>
  <g inkscape:groupmode="layer" id="layer2" inkscape:label="print" transform="translate(0,23.000012)" style="display:inline">
    <g id="g34">
      <path inkscape:connector-curvature="0" id="path102-6-3" d="m 19.601633,105.83019 c -2.901501,1.16678 -4.879802,3.49731 -5.867602,5.89531 -1.129101,2.74056 -1.279901,5.5776 -0.259901,8.06786 7.671003,18.72885 8.859703,21.93938 14.557103,35.81747 0.9507,2.31587 1.3715,2.89208 3.4612,5.08103 12.1091,12.68428 7.7405,8.40354 26.473,28.85673 1.4565,1.5903 2.4674,2.54857 3.1063,3.31986 0.6388,0.77126 1.0209,1.37456 1.5528,2.83104 8.409,23.02359 6.7431,18.29789 17.7798,46.85384 2.2076,5.71188 6.5267,9.03304 11.0821,9.40824 4.5555,0.37521 8.977997,-1.98985 11.745317,-5.98286 35.73383,-51.56216 31.21023,-44.21098 65.88323,-98.35301 4.4037,-6.87633 0.5425,-18.10834 -9.9869,-20.24618 a 2.9237834,2.9237834 0 0 0 -0.076,-0.0143 c -28.42,-4.98871 -83.882747,-14.04601 -132.596347,-22.11903 -2.0165,-0.33417 -3.8862,-0.2699 -5.5545,0.15814 -0.452,0.11594 -0.8854,0.25916 -1.2999,0.42582 z" style="display:inline;opacity:1;fill:#ffff00;fill-opacity:1;stroke:none;stroke-width:0.26458332px;stroke-linecap:butt;stroke-linejoin:miter;stroke-opacity:1"/>
      <path inkscape:connector-curvature="0" id="path4714-3" d="m 85.145133,99.793353 c -1.6112,0.448037 -2.9683,1.076457 -4.0683,2.169847 -1.1001,1.09339 -1.8116,2.88949 -1.5553,4.50344 0.5127,3.22792 3.1684,4.63021 5.7929,5.10794 36.507647,6.64515 45.297447,8.44701 76.880447,17.92224 2.3331,0.69996 4.8953,3.80019 6.1216,7.81466 1.2263,4.01447 0.9335,8.529 -0.4635,10.78068 -21.6912,34.9635 -45.0384,70.81732 -73.009247,113.39283 -1.276,1.9422 -2.4768,3.92369 -3.3176,6.00212 -0.8408,2.0784 -1.4147,4.38279 -0.7192,6.83109 0.6953,2.44827 2.8314,4.43986 5.4825,5.45573 2.6512,1.01592 5.949607,1.41804 10.364637,1.38856 95.92471,-0.64008 191.11181,-2.5228 287.91171,-6.86805 14.93398,-0.67038 33.4458,-6.5395 40.7084,-21.00609 35.86211,-71.43564 56.40452,-120.6202 87.55801,-188.736728 1.98128,-4.33205 2.4275,-9.38668 1.1044,-14.01884 -1.32321,-4.63214 -4.72101,-8.929 -10.04012,-10.57638 -53.76187,-16.65099 -64.0252,-19.07804 -119.2888,-34.6216773 -1.70749,-0.4802997 -6.58181,-3.6981894 -12.22791,-1.8957894 -5.34479,1.7062197 -7.27358,2.5472791 -15.09268,5.0532976 -1.13972,0.36547 -2.6321,0.8930497 -4.07522,2.1106591 -1.44298,1.21762 -2.76989,3.78254 -2.17879,6.28693 0.7634,3.23434 1.65211,7.43177 1.62251,9.46377 a 3.3683789,3.3683789 0 0 0 0.022,0.44233 c 0.88197,7.49538 -3.71453,14.96949 -10.14292,18.36709 -6.4284,3.39759 -14.16252,3.23072 -21.27991,-5.28508 a 3.3683789,3.3683789 0 0 0 -0.4775,-0.46742 c -1.81321,-1.45412 -3.23241,-1.15554 -4.5421,-0.85748 -1.30979,0.29805 -3.02551,0.82989 -3.8214,3.1591 -1.80671,5.28806 -4.7357,8.82941 -8.8432,11.15962 -25.47651,14.45286 -47.3825,26.50164 -73.05199,40.95469 13.18518,-8.49876 25.01339,-16.25507 36.51079,-23.82054 0.79819,-0.52522 1.35778,-0.82301 2.11039,-1.7077 0.37632,-0.44236 0.99081,-1.20838 0.96311,-2.58561 -0.028,-1.37724 -1.0111,-2.53485 -1.61771,-2.95381 -1.21319,-0.83799 -1.71169,-0.75637 -2.36569,-0.90729 -0.6539,-0.15091 -1.3524,-0.29334 -2.1586,-0.49543 -6.0983,-1.52871 -7.0183,-5.23568 -9.10411,-8.92572 -0.55189,-0.97628 -0.98729,-2.0302 -2.43269,-3.01672 -1.4454,-0.9865 -3.5207,-0.93419 -4.88201,-0.50705 -67.82708,21.28237 -100.97368,31.02417 -172.397337,50.886781 z" style="display:inline;opacity:1;fill:#ffff00;fill-opacity:1;stroke:none;stroke-width:0.26458332px;stroke-linecap:butt;stroke-linejoin:miter;stroke-opacity:1"/>
    </g>
  </g>
  <g inkscape:label="cut" inkscape:groupmode="layer" id="layer1" transform="translate(0,23.000012)" style="display:inline">
    <g id="g38">
      <path style="display:inline;opacity:1;fill:none;stroke:#ff00ff;stroke-width:0.17638889;stroke-linecap:butt;stroke-linejoin:miter;stroke-miterlimit:4;stroke-dasharray:none;stroke-opacity:1" d="m 26.197633,108.09105 c -8.927401,-1.47947 -11.324602,6.82932 -9.798801,10.55455 7.675301,18.7393 8.864301,21.95174 14.555801,35.8154 0.9676,2.35702 0.7286,1.92733 2.8719,4.1724 12.1248,12.70077 7.7971,8.46542 26.514,28.90147 2.7741,3.02895 4.0147,3.74118 5.2496,7.12235 8.4074,23.01938 6.7207,18.23778 17.7609,46.80264 3.8214,9.88743 13.2,9.30384 17.697407,2.81427 35.74214,-51.5742 31.15354,-44.12628 65.82404,-98.26445 3.1202,-4.87209 0.5996,-14.03686 -8.1066,-15.80451 -28.3755,-4.98089 -83.849547,-14.04028 -132.568247,-22.11412 z" id="path6243-6" inkscape:connector-curvature="0" sodipodi:nodetypes="ssssssssscs"/>
      <path style="display:inline;opacity:1;fill:none;stroke:#ff00ff;stroke-width:0.17638889;stroke-linecap:butt;stroke-linejoin:miter;stroke-miterlimit:4;stroke-dasharray:none;stroke-opacity:1" d="m 86.647733,108.0615 c -3.3793,-0.6151 -4.8505,-3.83765 0.1296,-5.22261 C 158.21578,82.972202 191.43448,73.208632 259.28047,51.920312 c 1.8157,-0.56968 2.3271,0.11451 3.3747,1.96776 1.7787,3.14682 3.7416,8.66145 11.2169,10.53531 3.54791,0.88934 4.918,0.67296 2.0364,2.56913 -23.53529,15.48667 -48.24629,31.655197 -83.70949,53.661808 -2.2208,1.37818 -0.9541,5.45549 2.1897,3.62836 51.7212,-30.060098 81.67459,-46.045668 121.57439,-68.680908 4.82121,-2.73505 8.33851,-7.05908 10.3685,-13.00041 0.32879,-0.96231 2.33211,-1.35398 3.0694,-0.76274 15.90241,19.0268 39.48142,2.45819 37.35221,-15.63584 0.042,-2.85779 -0.9488,-7.05213 -1.7122,-10.28626 -0.6019,-2.54987 2.12839,-3.81545 4.0042,-4.41664 7.8739,-2.5236194 9.82711,-3.3724488 15.0888,-5.0521879 3.81629,-1.2182691 7.59798,1.1716594 10.29178,1.9293191 55.28033,15.5483188 65.46963,17.9544388 119.20433,34.5969688 8.3698,2.59225 10.13428,12.83933 6.8697,19.97736 -31.17559,68.164838 -51.69012,117.283778 -87.50553,188.626298 -6.34389,12.63681 -23.724,18.51826 -37.84968,19.15236 -96.74449,4.34274 -191.8876,6.22511 -287.78311,6.86498 -16.704537,0.11147 -13.863337,-7.01566 -8.972437,-14.46024 27.975047,-42.58191 51.337947,-78.4593 73.056147,-113.46624 4.3539,-7.01797 0.3579,-21.22408 -7.5526,-23.59732 -31.6364,-9.49124 -40.7245,-11.36224 -77.244847,-18.00968 z" id="path134-3-9" inkscape:connector-curvature="0" sodipodi:nodetypes="ssssssssssccsssssssssssss"/>
    </g>
  </g>
</svg>
