<?xml version="1.0" encoding="UTF-8" standalone="no"?>
<!-- Created with Inkscape (http://www.inkscape.org/) -->
<svg xmlns:dc="http://purl.org/dc/elements/1.1/" xmlns:cc="http://creativecommons.org/ns#" xmlns:rdf="http://www.w3.org/1999/02/22-rdf-syntax-ns#" xmlns:svg="http://www.w3.org/2000/svg" xmlns="http://www.w3.org/2000/svg" xmlns:sodipodi="http://sodipodi.sourceforge.net/DTD/sodipodi-0.dtd" xmlns:inkscape="http://www.inkscape.org/namespaces/inkscape" width="580mm" height="450mm" viewBox="0 0 580.00001 450.00001" version="1.1" id="svg1161" inkscape:version="0.92.3 (2405546, 2018-03-11)" sodipodi:docname="rm-tank-right.svg">
  <defs id="defs1155"/>
  <sodipodi:namedview id="base" pagecolor="#ffffff" bordercolor="#666666" borderopacity="1.0" inkscape:pageopacity="0.0" inkscape:pageshadow="2" inkscape:zoom="0.35" inkscape:cx="614.8571" inkscape:cy="866.94928" inkscape:document-units="mm" inkscape:current-layer="layer2" showgrid="false" inkscape:pagecheckerboard="true" gridtolerance="1" guidetolerance="1" inkscape:window-width="1215" inkscape:window-height="963" inkscape:window-x="542" inkscape:window-y="44" inkscape:window-maximized="0" units="mm" objecttolerance="1"/>
  <metadata id="metadata1158">
    <rdf:RDF>
      <cc:Work rdf:about="">
        <dc:format>image/svg+xml</dc:format>
        <dc:type rdf:resource="http://purl.org/dc/dcmitype/StillImage"/>
        <dc:title>@@title@@</dc:title>
        <dc:creator>
          <cc:Agent>
            <dc:title>x3300 &lt;x3300x@gmail.com&gt;</dc:title>
          </cc:Agent>
        </dc:creator>
        <dc:description>
Fabricators Design License draft v10.11.20

Copyright x3300 &lt;x3300x@gmail.com&gt;

Permission is hereby granted, free of charge, to any person obtaining
a copy of this design and associated documentation (the _Design_), to
deal in the Design without restriction, including without limitation
the rights to use, copy, modify, merge, publish, distribute,
sublicense, and/or sell copies of the Design, and to permit persons to
whom the Design is furnished to do so, subject to the following
conditions:

 The above copyright notice and this permission notice shall be
 included in all copies or substantial portions of the Design.

 If you modify the Design including creating additional or alternate
 documentation formats (images, drawings, text documents, etc.), you
 may copy and distribute your modified version of the Design in any
 form provided that you also do one of the following:

  Accompany the modified version of the Design with documentation
  which corresponds to and completely describes the modified version
  of the Design; or,

  Accompany the modified version of the Design with a written offer
  for documentation which corresponds to and completely describes the
  modified version of the Design.

THE DESIGN IS PROVIDED _AS IS_, WITHOUT WARRANTY OF ANY KIND,
EXPRESS OR IMPLIED, INCLUDING BUT NOT LIMITED TO THE WARRANTIES OF
MERCHANTABILITY, FITNESS FOR A PARTICULAR PURPOSE AND NONINFRINGEMENT.
IN NO EVENT SHALL THE AUTHORS OR COPYRIGHT HOLDERS BE LIABLE FOR ANY
CLAIM, DAMAGES OR OTHER LIABILITY, WHETHER IN AN ACTION OF CONTRACT,
TORT OR OTHERWISE, ARISING FROM, OUT OF OR IN CONNECTION WITH THE
DESIGN OR THE USE OR OTHER DEALINGS IN THE DESIGN.
        </dc:description>
        <dc:date>@@date@@</dc:date>
        <dc:rights>
          <cc:Agent>
            <dc:title>All Rights Reserved</dc:title>
          </cc:Agent>
        </dc:rights>
        <dc:publisher>
          <cc:Agent>
            <dc:title>@@publisher@@</dc:title>
          </cc:Agent>
        </dc:publisher>
        <dc:identifier>@@identifier@@</dc:identifier>
        <dc:source>@@source@@</dc:source>
        <dc:relation>@@relation@@</dc:relation>
        <dc:language>@@language@@</dc:language>
        <dc:subject>
          <rdf:Bag>
            <rdf:li>@@keywords@@</rdf:li>
          </rdf:Bag>
        </dc:subject>
        <dc:coverage>@@coverage@@</dc:coverage>
        <dc:contributor>
          <cc:Agent>
            <dc:title>@@contributors@@</dc:title>
          </cc:Agent>
        </dc:contributor>
        <cc:license rdf:resource="Fabricators Design License"/>
      </cc:Work>
    </rdf:RDF>
  </metadata>
  <g inkscape:groupmode="layer" id="layer2" inkscape:label="print" transform="translate(0,153.00001)" style="display:inline">
    <g id="g1181" transform="translate(3.0238095,-52.160714)">
      <path inkscape:connector-curvature="0" id="path7010" d="m 64.956594,1.43857 c -2.03179,-0.95369 -3.89041,-1.1112 -6.19451,-0.63918 -1.1521,0.23608 -2.43469,0.6967 -3.6082,1.73709 -1.1735,1.0404 -2.0642,2.77019 -2.18509,4.48598 -0.74239,10.53132 -0.387,13.105 -3.56621,27.68981 -1.02899,4.72052 -2.44269,8.30919 -5.85391,12.47201 -2.30187,2.80919 -3.14568,3.0769 -3.17957,3.08049 -0.034,0 -1.42621,-0.35171 -4.45122,-1.89791 -4.4659,-2.28258 -8.03241,-3.19309 -11.313,-2.64789 -3.2807,0.5452 -5.39808,2.2911 -7.268,3.5719 -101.44429,69.48382 -130.221094,95.6808 -197.092544,132.10902 -1.3007,0.70855 -4.2435,1.30651 -6.76379,4.20854 -1.26015,1.451 -2.12566,3.64855 -2.10663,5.8942 0.019,2.24568 0.70268,4.512 1.94183,7.111 1.81448,3.80582 2.22922,6.46491 0.23375,11.75729 -0.38496,1.02105 -1.17797,2.55759 -1.1049,4.82481 0.073,2.26719 1.166,4.4758 2.92712,6.62956 43.06715,52.6697 77.18266,87.0677 127.512574,134.88201 2.0745,1.97075 4.58029,3.7592 7.58159,4.70363 3.0013,0.94443 6.96071,0.78254 9.8961,-1.68288 3.47649,-2.91983 5.3027,-5.02552 9.9069,-7.51334 3.9316,-2.12437 8.6696,-3.29841 13.1903,-3.32574 16.75191,-0.10125 22.70921,0.41598 40.57581,-0.47678 5.9096,-0.29525 12.08321,-3.3039 14.89221,-9.22721 9.15228,-19.29918 6.90898,-13.74587 11.47439,-24.8421 2.519,-6.12317 5.23021,-10.14254 8.7661,-12.6732 3.53579,-2.53066 8.19989,-3.87135 15.5307,-3.76166 2.9668,0.0444 6.229404,-0.5207 8.240904,-3.4658 1.00581,-1.47254 1.3422,-3.36743 1.13559,-5.02777 -0.20648,-1.66031 -0.8355,-3.17288 -1.7349,-4.7063 -9.928284,-16.9267 -13.956194,-21.18427 -23.150704,-27.52879 -3.609,-2.49028 -3.32169,-1.10223 -8.05439,-6.11875 -26.3878,-27.97014 -41.12951,-41.49117 -75.00282,-77.24565 -3.65908,-3.86232 -3.45508,-13.02861 2.38102,-19.65039 47.95279,-54.40901 58.58999,-62.06219 77.40811,-75.23719 27.597184,-19.3216 45.755486,-25.78971 62.943596,-36.23011 2.4891,-1.51199 4.1813,-4.7788 3.5983,-7.4956 -0.5829,-2.71679 -2.3944,-4.3952 -4.403,-5.4674 C 89.049608,14.24779 84.810398,11.42249 65.057184,1.48767 a 4.1203872,4.1203872 0 0 0 -0.1007,-0.049 z" style="display:inline;opacity:1;fill:#ffff00;fill-opacity:1;stroke:#f8e348;stroke-width:0.26458332px;stroke-linecap:butt;stroke-linejoin:miter;stroke-opacity:1" transform="translate(201.08333,-78.619047)"/>
      <path inkscape:connector-curvature="0" id="path1179-4" d="m 143.0494,32.99518 c -5.0341,-2.0882 -9.3991,-2.62422 -13.1099,-1.93572 -3.9581,0.73441 -6.6382,2.51151 -8.7146,3.56542 -37.386502,18.97759 -34.938702,19.39359 -55.091816,30.7825 -6.22839,3.51989 -10.33848,5.9096 -18.2291,12.04439 -27.27769,21.2076 -27.71479,24.17792 -73.1329,73.88641 -2.87448,3.14597 -4.79869,7.23423 -5.4171,11.80948 -0.61839,4.57523 0.3044,9.95299 4.05291,14.04337 76.25911,83.21456 139.626706,143.68754 210.542506,212.60022 2.6983,2.62205 6.9727,7.53155 15.3086,8.49231 5.7023,0.65728 4.0514,-1.34162 10.4908,3.32412 4.5179,3.27348 10.3291,4.99829 16.5918,6.11581 6.2627,1.11753 12.9008,1.46 18.7837,0.85577 9.5087,-0.97663 16.7016,-8.72508 18.3746,-18.66241 6.8164,-40.49003 6.6324,-44.80459 11.4867,-99.37266 0.6657,-7.48334 2.9942,-13.40567 7.96749,-18.43381 26.5687,-26.86177 30.7079,-30.89801 68.3202,-70.13652 6.6934,-6.9828 11.1215,-15.533 13.539,-23.33873 1.2087,-3.90287 1.9165,-7.61766 2.0533,-11.02998 0.1369,-3.41236 -0.076,-6.58271 -2.0413,-9.66601 -7.7421,-12.14487 -11.2408,-15.40347 -17.9766,-23.16335 -3.0604,-3.5256 -6.9983,-5.8964 -10.6666,-7.86951 -3.66819,-1.97299 -7.1972,-3.49861 -8.7989,-4.30051 C 262.5999,90.16897 220.4311,67.66597 144.0654,33.43378 c -0.3416,-0.15311 -0.6804,-0.2994 -1.0159,-0.4387 z M 76.977384,98.26329 c 0.11109,0.041 0.22492,0.089 0.342,0.14229 0.53562,0.2436 1.165914,0.6432 1.873014,1.30871 37.574202,35.36587 51.999202,49.32009 84.554502,94.08808 -26.9768,-7.64244 -43.8713,-15.55058 -66.747202,-24.82846 2.6094,0.14617 5.347102,0.27935 8.319402,0.39024 4.5297,0.16899 8.5305,-1.05805 11.2203,-3.67679 2.6898,-2.61874 3.7077,-6.14618 3.8393,-9.39228 0.2627,-6.49241 -2.2889,-12.74172 -5.5743,-17.1543 -12.60161,-16.92471 -30.847812,-31.91291 -41.010516,-39.76849 -0.14859,-0.11491 -0.15269,-0.11742 -0.18309,-0.14042 0,0.0251 -0.0101,-0.098 0.2304,-0.3674 0.49199,-0.56369 1.47069,-1.22319 3.13629,-0.60071 z m 74.669416,151.1274 c 0.7822,0.31517 1.5605,0.63627 2.3342,0.96523 1.0207,0.43341 2.0158,0.90908 3.0207,1.36855 -0.018,0.005 -0.029,0.0101 -0.047,0.0156 -12.3779,3.74844 -20.3355,5.38139 -35.8761,10.58829 1.3885,-1.32152 2.4505,-3.2828 2.3089,-5.09038 -0.1716,-2.18908 -1.1009,-3.25421 -1.5396,-3.98512 -3.2783,-5.461 -5.0304,-8.67466 -10.0153,-14.2121 -1.9739,-2.19279 -4.2767,-3.87191 -6.8134,-5.19081 3.3253,1.08218 6.5993,2.06931 9.7318,3.16492 12.5044,4.37362 25.1602,7.65122 36.8953,12.3761 z" style="display:inline;opacity:1;fill:#ffff00;fill-opacity:1;stroke:none;stroke-width:0.26458332px;stroke-linecap:butt;stroke-linejoin:miter;stroke-opacity:1" transform="translate(201.08333,-78.619047)"/>
    </g>
  </g>
  <g inkscape:label="cut" inkscape:groupmode="layer" id="layer1" transform="translate(0,153.00001)" style="display:inline">
    <g id="g1175" transform="translate(204.10714,-130.77976)">
      <g id="g553" transform="rotate(-180,539.73742,-254.93976)">
        <path inkscape:connector-curvature="0" id="path3048-3" d="m 1028.9616,-568.79885 -12.6808,-2.86279" style="display:inline;opacity:1;fill:none;stroke:#ff00ff;stroke-width:0.17638889;stroke-linecap:butt;stroke-linejoin:miter;stroke-miterlimit:4;stroke-dasharray:none;stroke-opacity:1;image-rendering:auto"/>
        <path inkscape:connector-curvature="0" id="path3052" d="m 1055.1072,-569.34312 -12.6809,-2.86282" style="display:inline;opacity:1;fill:none;stroke:#ff00ff;stroke-width:0.17638889;stroke-linecap:butt;stroke-linejoin:miter;stroke-miterlimit:4;stroke-dasharray:none;stroke-opacity:1;image-rendering:auto"/>
        <path inkscape:connector-curvature="0" id="path3116-7" d="m 1086.6036,-590.79072 -12.681,-2.86282" style="display:inline;opacity:1;fill:none;stroke:#ff00ff;stroke-width:0.17638889;stroke-linecap:butt;stroke-linejoin:miter;stroke-miterlimit:4;stroke-dasharray:none;stroke-opacity:1;image-rendering:auto"/>
        <path style="display:inline;opacity:1;fill:none;stroke:#ff00ff;stroke-width:0.17638889;stroke-linecap:butt;stroke-linejoin:miter;stroke-miterlimit:4;stroke-dasharray:none;stroke-opacity:1;image-rendering:auto" d="m 1071.0598,-580.97264 -12.6807,-2.8629" id="path3146" inkscape:connector-curvature="0"/>
        <path style="display:inline;opacity:1;fill:none;stroke:#ff00ff;stroke-width:0.17638889;stroke-linecap:butt;stroke-linejoin:miter;stroke-miterlimit:4;stroke-dasharray:none;stroke-opacity:1;image-rendering:auto" d="m 1092.7381,-617.96393 -12.6809,-2.86279" id="path3178" inkscape:connector-curvature="0"/>
        <path inkscape:connector-curvature="0" id="path3180-6" d="m 1118.0999,-612.23832 -12.6808,-2.86282" style="display:inline;opacity:1;fill:none;stroke:#ff00ff;stroke-width:0.17638889;stroke-linecap:butt;stroke-linejoin:miter;stroke-miterlimit:4;stroke-dasharray:none;stroke-opacity:1;image-rendering:auto"/>
        <path inkscape:connector-curvature="0" id="path3208" d="m 1077.1945,-608.14593 -12.6808,-2.86279" style="display:inline;opacity:1;fill:none;stroke:#ff00ff;stroke-width:0.17638889;stroke-linecap:butt;stroke-linejoin:miter;stroke-miterlimit:4;stroke-dasharray:none;stroke-opacity:1;image-rendering:auto"/>
        <path style="display:inline;opacity:1;fill:none;stroke:#ff00ff;stroke-width:0.17638889;stroke-linecap:butt;stroke-linejoin:miter;stroke-miterlimit:4;stroke-dasharray:none;stroke-opacity:1;image-rendering:auto" d="m 1102.5561,-602.42024 -12.6808,-2.8629" id="path3210-5" inkscape:connector-curvature="0"/>
        <path style="display:inline;opacity:1;fill:none;stroke:#ff00ff;stroke-width:0.17638889;stroke-linecap:butt;stroke-linejoin:miter;stroke-miterlimit:4;stroke-dasharray:none;stroke-opacity:1;image-rendering:auto" d="m 1124.2346,-639.41153 -12.681,-2.8629" id="path3242" inkscape:connector-curvature="0"/>
        <path inkscape:connector-curvature="0" id="path3244" d="m 1149.5963,-633.68592 -12.6809,-2.86282" style="display:inline;opacity:1;fill:none;stroke:#ff00ff;stroke-width:0.17638889;stroke-linecap:butt;stroke-linejoin:miter;stroke-miterlimit:4;stroke-dasharray:none;stroke-opacity:1;image-rendering:auto"/>
        <path inkscape:connector-curvature="0" id="path3272" d="m 1108.6908,-629.59353 -12.6809,-2.8628" style="display:inline;opacity:1;fill:none;stroke:#ff00ff;stroke-width:0.17638889;stroke-linecap:butt;stroke-linejoin:miter;stroke-miterlimit:4;stroke-dasharray:none;stroke-opacity:1;image-rendering:auto"/>
        <path style="display:inline;opacity:1;fill:none;stroke:#ff00ff;stroke-width:0.17638889;stroke-linecap:butt;stroke-linejoin:miter;stroke-miterlimit:4;stroke-dasharray:none;stroke-opacity:1;image-rendering:auto" d="m 1134.0526,-623.86792 -12.681,-2.86282" id="path3274" inkscape:connector-curvature="0"/>
        <path inkscape:connector-curvature="0" id="path3304" d="m 1130.3691,-666.58488 -12.6809,-2.86281" style="display:inline;opacity:1;fill:none;stroke:#ff00ff;stroke-width:0.17638889;stroke-linecap:butt;stroke-linejoin:miter;stroke-miterlimit:4;stroke-dasharray:none;stroke-opacity:1;image-rendering:auto"/>
        <path style="display:inline;opacity:1;fill:none;stroke:#ff00ff;stroke-width:0.17638889;stroke-linecap:butt;stroke-linejoin:miter;stroke-miterlimit:4;stroke-dasharray:none;stroke-opacity:1;image-rendering:auto" d="m 1155.7309,-660.85924 -12.6808,-2.86282" id="path3306" inkscape:connector-curvature="0"/>
        <path inkscape:connector-curvature="0" id="path3308" d="m 1181.0925,-655.13352 -12.6807,-2.8629" style="display:inline;opacity:1;fill:none;stroke:#ff00ff;stroke-width:0.17638889;stroke-linecap:butt;stroke-linejoin:miter;stroke-miterlimit:4;stroke-dasharray:none;stroke-opacity:1;image-rendering:auto"/>
        <path inkscape:connector-curvature="0" id="path3336" d="m 1140.1871,-651.04113 -12.6808,-2.8629" style="display:inline;opacity:1;fill:none;stroke:#ff00ff;stroke-width:0.17638889;stroke-linecap:butt;stroke-linejoin:miter;stroke-miterlimit:4;stroke-dasharray:none;stroke-opacity:1;image-rendering:auto"/>
        <path style="display:inline;opacity:1;fill:none;stroke:#ff00ff;stroke-width:0.17638889;stroke-linecap:butt;stroke-linejoin:miter;stroke-miterlimit:4;stroke-dasharray:none;stroke-opacity:1;image-rendering:auto" d="m 1165.5489,-645.31553 -12.6808,-2.86281" id="path3338-7" inkscape:connector-curvature="0"/>
        <path inkscape:connector-curvature="0" id="path3364-5" d="m 1111.1421,-699.4838 -12.6809,-2.86282" style="display:inline;opacity:1;fill:none;stroke:#ff00ff;stroke-width:0.17638889;stroke-linecap:butt;stroke-linejoin:miter;stroke-miterlimit:4;stroke-dasharray:none;stroke-opacity:1;image-rendering:auto"/>
        <path style="display:inline;opacity:1;fill:none;stroke:#ff00ff;stroke-width:0.17638889;stroke-linecap:butt;stroke-linejoin:miter;stroke-miterlimit:4;stroke-dasharray:none;stroke-opacity:1;image-rendering:auto" d="m 1136.5037,-693.75817 -12.6808,-2.86282" id="path3366" inkscape:connector-curvature="0"/>
        <path inkscape:connector-curvature="0" id="path3368" d="m 1161.8655,-688.0325 -12.6809,-2.86282" style="display:inline;opacity:1;fill:none;stroke:#ff00ff;stroke-width:0.17638889;stroke-linecap:butt;stroke-linejoin:miter;stroke-miterlimit:4;stroke-dasharray:none;stroke-opacity:1;image-rendering:auto"/>
        <path style="display:inline;opacity:1;fill:none;stroke:#ff00ff;stroke-width:0.17638889;stroke-linecap:butt;stroke-linejoin:miter;stroke-miterlimit:4;stroke-dasharray:none;stroke-opacity:1;image-rendering:auto" d="m 1187.2273,-682.30687 -12.6809,-2.86282" id="path3370-3" inkscape:connector-curvature="0"/>
        <path inkscape:connector-curvature="0" id="path3372" d="m 1212.5889,-676.58121 -12.6809,-2.86281" style="display:inline;opacity:1;fill:none;stroke:#ff00ff;stroke-width:0.17638889;stroke-linecap:butt;stroke-linejoin:miter;stroke-miterlimit:4;stroke-dasharray:none;stroke-opacity:1;image-rendering:auto"/>
        <path style="display:inline;opacity:1;fill:none;stroke:#ff00ff;stroke-width:0.17638889;stroke-linecap:butt;stroke-linejoin:miter;stroke-miterlimit:4;stroke-dasharray:none;stroke-opacity:1;image-rendering:auto" d="m 1146.3217,-678.21448 -12.6808,-2.86282" id="path3398" inkscape:connector-curvature="0"/>
        <path inkscape:connector-curvature="0" id="path3400" d="m 1171.6836,-672.48882 -12.681,-2.86284" style="display:inline;opacity:1;fill:none;stroke:#ff00ff;stroke-width:0.17638889;stroke-linecap:butt;stroke-linejoin:miter;stroke-miterlimit:4;stroke-dasharray:none;stroke-opacity:1;image-rendering:auto"/>
        <path style="display:inline;opacity:1;fill:none;stroke:#ff00ff;stroke-width:0.17638889;stroke-linecap:butt;stroke-linejoin:miter;stroke-miterlimit:4;stroke-dasharray:none;stroke-opacity:1;image-rendering:auto" d="m 1197.0452,-666.76318 -12.6808,-2.86282" id="path3402" inkscape:connector-curvature="0"/>
        <path inkscape:connector-curvature="0" id="path3424-9" d="m 1091.9149,-732.38273 -12.6808,-2.86284" style="display:inline;opacity:1;fill:none;stroke:#ff00ff;stroke-width:0.17638889;stroke-linecap:butt;stroke-linejoin:miter;stroke-miterlimit:4;stroke-dasharray:none;stroke-opacity:1;image-rendering:auto"/>
        <path style="display:inline;opacity:1;fill:none;stroke:#ff00ff;stroke-width:0.17638889;stroke-linecap:butt;stroke-linejoin:miter;stroke-miterlimit:4;stroke-dasharray:none;stroke-opacity:1;image-rendering:auto" d="m 1117.2767,-726.65709 -12.6809,-2.86282" id="path3426-6" inkscape:connector-curvature="0"/>
        <path inkscape:connector-curvature="0" id="path3428" d="m 1142.6384,-720.93143 -12.6808,-2.86282" style="display:inline;opacity:1;fill:none;stroke:#ff00ff;stroke-width:0.17638889;stroke-linecap:butt;stroke-linejoin:miter;stroke-miterlimit:4;stroke-dasharray:none;stroke-opacity:1;image-rendering:auto"/>
        <path style="display:inline;opacity:1;fill:none;stroke:#ff00ff;stroke-width:0.17638889;stroke-linecap:butt;stroke-linejoin:miter;stroke-miterlimit:4;stroke-dasharray:none;stroke-opacity:1;image-rendering:auto" d="m 1168.0001,-715.20579 -12.6809,-2.86282" id="path3430" inkscape:connector-curvature="0"/>
        <path inkscape:connector-curvature="0" id="path3432" d="m 1193.3619,-709.48013 -12.6809,-2.86282" style="display:inline;opacity:1;fill:none;stroke:#ff00ff;stroke-width:0.17638889;stroke-linecap:butt;stroke-linejoin:miter;stroke-miterlimit:4;stroke-dasharray:none;stroke-opacity:1;image-rendering:auto"/>
        <path style="display:inline;opacity:1;fill:none;stroke:#ff00ff;stroke-width:0.17638889;stroke-linecap:butt;stroke-linejoin:miter;stroke-miterlimit:4;stroke-dasharray:none;stroke-opacity:1;image-rendering:auto" d="m 1218.7235,-703.7545 -12.6808,-2.86281" id="path3434-5" inkscape:connector-curvature="0"/>
        <path inkscape:connector-curvature="0" id="path3436" d="m 1244.0853,-698.02883 -12.6809,-2.86282" style="display:inline;opacity:1;fill:none;stroke:#ff00ff;stroke-width:0.17638889;stroke-linecap:butt;stroke-linejoin:miter;stroke-miterlimit:4;stroke-dasharray:none;stroke-opacity:1;image-rendering:auto"/>
        <path inkscape:connector-curvature="0" id="path3456-2" d="m 1101.7329,-716.83904 -12.6808,-2.86285" style="display:inline;opacity:1;fill:none;stroke:#ff00ff;stroke-width:0.17638889;stroke-linecap:butt;stroke-linejoin:miter;stroke-miterlimit:4;stroke-dasharray:none;stroke-opacity:1;image-rendering:auto"/>
        <path style="display:inline;opacity:1;fill:none;stroke:#ff00ff;stroke-width:0.17638889;stroke-linecap:butt;stroke-linejoin:miter;stroke-miterlimit:4;stroke-dasharray:none;stroke-opacity:1;image-rendering:auto" d="m 1127.0948,-711.1134 -12.681,-2.86282" id="path3458" inkscape:connector-curvature="0"/>
        <path inkscape:connector-curvature="0" id="path3460-6" d="m 1152.4564,-705.38774 -12.6808,-2.86285" style="display:inline;opacity:1;fill:none;stroke:#ff00ff;stroke-width:0.17638889;stroke-linecap:butt;stroke-linejoin:miter;stroke-miterlimit:4;stroke-dasharray:none;stroke-opacity:1;image-rendering:auto"/>
        <path style="display:inline;opacity:1;fill:none;stroke:#ff00ff;stroke-width:0.17638889;stroke-linecap:butt;stroke-linejoin:miter;stroke-miterlimit:4;stroke-dasharray:none;stroke-opacity:1;image-rendering:auto" d="m 1177.8182,-699.66211 -12.681,-2.86281" id="path3462" inkscape:connector-curvature="0"/>
        <path inkscape:connector-curvature="0" id="path3464" d="m 1203.1799,-693.93644 -12.6808,-2.86282" style="display:inline;opacity:1;fill:none;stroke:#ff00ff;stroke-width:0.17638889;stroke-linecap:butt;stroke-linejoin:miter;stroke-miterlimit:4;stroke-dasharray:none;stroke-opacity:1;image-rendering:auto"/>
        <path style="display:inline;opacity:1;fill:none;stroke:#ff00ff;stroke-width:0.17638889;stroke-linecap:butt;stroke-linejoin:miter;stroke-miterlimit:4;stroke-dasharray:none;stroke-opacity:1;image-rendering:auto" d="m 1228.5416,-688.21081 -12.6809,-2.86282" id="path3466-2" inkscape:connector-curvature="0"/>
        <path style="display:inline;opacity:1;fill:none;stroke:#ff00ff;stroke-width:0.17638889;stroke-linecap:butt;stroke-linejoin:miter;stroke-miterlimit:4;stroke-dasharray:none;stroke-opacity:1;image-rendering:auto" d="m 1047.3261,-771.00732 -12.6809,-2.86282" id="path3482-1" inkscape:connector-curvature="0"/>
        <path inkscape:connector-curvature="0" id="path3484-7" d="m 1072.6879,-765.28166 -12.6809,-2.86284" style="display:inline;opacity:1;fill:none;stroke:#ff00ff;stroke-width:0.17638889;stroke-linecap:butt;stroke-linejoin:miter;stroke-miterlimit:4;stroke-dasharray:none;stroke-opacity:1;image-rendering:auto"/>
        <path style="display:inline;opacity:1;fill:none;stroke:#ff00ff;stroke-width:0.17638889;stroke-linecap:butt;stroke-linejoin:miter;stroke-miterlimit:4;stroke-dasharray:none;stroke-opacity:1;image-rendering:auto" d="m 1098.0495,-759.55602 -12.6807,-2.86282" id="path3486-9" inkscape:connector-curvature="0"/>
        <path inkscape:connector-curvature="0" id="path3488" d="m 1123.4113,-753.83036 -12.6809,-2.86282" style="display:inline;opacity:1;fill:none;stroke:#ff00ff;stroke-width:0.17638889;stroke-linecap:butt;stroke-linejoin:miter;stroke-miterlimit:4;stroke-dasharray:none;stroke-opacity:1;image-rendering:auto"/>
        <path style="display:inline;opacity:1;fill:none;stroke:#ff00ff;stroke-width:0.17638889;stroke-linecap:butt;stroke-linejoin:miter;stroke-miterlimit:4;stroke-dasharray:none;stroke-opacity:1;image-rendering:auto" d="m 1148.7731,-748.10472 -12.6809,-2.86282" id="path3490" inkscape:connector-curvature="0"/>
        <path inkscape:connector-curvature="0" id="path3492-1" d="m 1174.1347,-742.37906 -12.6808,-2.86284" style="display:inline;opacity:1;fill:none;stroke:#ff00ff;stroke-width:0.17638889;stroke-linecap:butt;stroke-linejoin:miter;stroke-miterlimit:4;stroke-dasharray:none;stroke-opacity:1;image-rendering:auto"/>
        <path style="display:inline;opacity:1;fill:none;stroke:#ff00ff;stroke-width:0.17638889;stroke-linecap:butt;stroke-linejoin:miter;stroke-miterlimit:4;stroke-dasharray:none;stroke-opacity:1;image-rendering:auto" d="m 1199.4965,-736.6534 -12.6809,-2.86284" id="path3494" inkscape:connector-curvature="0"/>
        <path inkscape:connector-curvature="0" id="path3496" d="m 1224.8582,-730.92776 -12.6809,-2.86282" style="display:inline;opacity:1;fill:none;stroke:#ff00ff;stroke-width:0.17638889;stroke-linecap:butt;stroke-linejoin:miter;stroke-miterlimit:4;stroke-dasharray:none;stroke-opacity:1;image-rendering:auto"/>
        <path style="display:inline;opacity:1;fill:none;stroke:#ff00ff;stroke-width:0.17638889;stroke-linecap:butt;stroke-linejoin:miter;stroke-miterlimit:4;stroke-dasharray:none;stroke-opacity:1;image-rendering:auto" d="m 1250.2199,-725.20212 -12.6809,-2.86282" id="path3498" inkscape:connector-curvature="0"/>
        <path style="display:inline;opacity:1;fill:none;stroke:#ff00ff;stroke-width:0.17638889;stroke-linecap:butt;stroke-linejoin:miter;stroke-miterlimit:4;stroke-dasharray:none;stroke-opacity:1;image-rendering:auto" d="m 1057.1441,-755.46363 -12.6808,-2.86285" id="path3514-8" inkscape:connector-curvature="0"/>
        <path inkscape:connector-curvature="0" id="path3516-5" d="m 1082.506,-749.73799 -12.681,-2.86282" style="display:inline;opacity:1;fill:none;stroke:#ff00ff;stroke-width:0.17638889;stroke-linecap:butt;stroke-linejoin:miter;stroke-miterlimit:4;stroke-dasharray:none;stroke-opacity:1;image-rendering:auto"/>
        <path style="display:inline;opacity:1;fill:none;stroke:#ff00ff;stroke-width:0.17638889;stroke-linecap:butt;stroke-linejoin:miter;stroke-miterlimit:4;stroke-dasharray:none;stroke-opacity:1;image-rendering:auto" d="m 1107.8676,-744.01233 -12.6808,-2.86282" id="path3518-2" inkscape:connector-curvature="0"/>
        <path inkscape:connector-curvature="0" id="path3520" d="m 1133.2294,-738.2867 -12.681,-2.86281" style="display:inline;opacity:1;fill:none;stroke:#ff00ff;stroke-width:0.17638889;stroke-linecap:butt;stroke-linejoin:miter;stroke-miterlimit:4;stroke-dasharray:none;stroke-opacity:1;image-rendering:auto"/>
        <path style="display:inline;opacity:1;fill:none;stroke:#ff00ff;stroke-width:0.17638889;stroke-linecap:butt;stroke-linejoin:miter;stroke-miterlimit:4;stroke-dasharray:none;stroke-opacity:1;image-rendering:auto" d="m 1158.5911,-732.56103 -12.6808,-2.86282" id="path3522" inkscape:connector-curvature="0"/>
        <path inkscape:connector-curvature="0" id="path3524" d="m 1183.9527,-726.83537 -12.6809,-2.86282" style="display:inline;opacity:1;fill:none;stroke:#ff00ff;stroke-width:0.17638889;stroke-linecap:butt;stroke-linejoin:miter;stroke-miterlimit:4;stroke-dasharray:none;stroke-opacity:1;image-rendering:auto"/>
        <path style="display:inline;opacity:1;fill:none;stroke:#ff00ff;stroke-width:0.17638889;stroke-linecap:butt;stroke-linejoin:miter;stroke-miterlimit:4;stroke-dasharray:none;stroke-opacity:1;image-rendering:auto" d="m 1209.3145,-721.10971 -12.6808,-2.86287" id="path3526" inkscape:connector-curvature="0"/>
        <path inkscape:connector-curvature="0" id="path3528-7" d="m 1234.6762,-715.3841 -12.6808,-2.86282" style="display:inline;opacity:1;fill:none;stroke:#ff00ff;stroke-width:0.17638889;stroke-linecap:butt;stroke-linejoin:miter;stroke-miterlimit:4;stroke-dasharray:none;stroke-opacity:1;image-rendering:auto"/>
        <path inkscape:connector-curvature="0" id="path3544-0" d="m 1053.4607,-798.18061 -12.6807,-2.86282" style="display:inline;opacity:1;fill:none;stroke:#ff00ff;stroke-width:0.17638889;stroke-linecap:butt;stroke-linejoin:miter;stroke-miterlimit:4;stroke-dasharray:none;stroke-opacity:1;image-rendering:auto"/>
        <path style="display:inline;opacity:1;fill:none;stroke:#ff00ff;stroke-width:0.17638889;stroke-linecap:butt;stroke-linejoin:miter;stroke-miterlimit:4;stroke-dasharray:none;stroke-opacity:1;image-rendering:auto" d="m 1078.8225,-792.45495 -12.6809,-2.86282" id="path3546" inkscape:connector-curvature="0"/>
        <path inkscape:connector-curvature="0" id="path3548" d="m 1104.1843,-786.72928 -12.6809,-2.86285" style="display:inline;opacity:1;fill:none;stroke:#ff00ff;stroke-width:0.17638889;stroke-linecap:butt;stroke-linejoin:miter;stroke-miterlimit:4;stroke-dasharray:none;stroke-opacity:1;image-rendering:auto"/>
        <path style="display:inline;opacity:1;fill:none;stroke:#ff00ff;stroke-width:0.17638889;stroke-linecap:butt;stroke-linejoin:miter;stroke-miterlimit:4;stroke-dasharray:none;stroke-opacity:1;image-rendering:auto" d="m 1129.5459,-781.00362 -12.6809,-2.86285" id="path3550-9" inkscape:connector-curvature="0"/>
        <path inkscape:connector-curvature="0" id="path3552" d="m 1154.9077,-775.27801 -12.6809,-2.86279" style="display:inline;opacity:1;fill:none;stroke:#ff00ff;stroke-width:0.17638889;stroke-linecap:butt;stroke-linejoin:miter;stroke-miterlimit:4;stroke-dasharray:none;stroke-opacity:1;image-rendering:auto"/>
        <path style="display:inline;opacity:1;fill:none;stroke:#ff00ff;stroke-width:0.17638889;stroke-linecap:butt;stroke-linejoin:miter;stroke-miterlimit:4;stroke-dasharray:none;stroke-opacity:1;image-rendering:auto" d="m 1180.2693,-769.55235 -12.6807,-2.86282" id="path3554-3" inkscape:connector-curvature="0"/>
        <path inkscape:connector-curvature="0" id="path3556" d="m 1205.6311,-763.82669 -12.6809,-2.86284" style="display:inline;opacity:1;fill:none;stroke:#ff00ff;stroke-width:0.17638889;stroke-linecap:butt;stroke-linejoin:miter;stroke-miterlimit:4;stroke-dasharray:none;stroke-opacity:1;image-rendering:auto"/>
        <path style="display:inline;opacity:1;fill:none;stroke:#ff00ff;stroke-width:0.17638889;stroke-linecap:butt;stroke-linejoin:miter;stroke-miterlimit:4;stroke-dasharray:none;stroke-opacity:1;image-rendering:auto" d="m 1037.9172,-788.36256 -12.6809,-2.86284" id="path3574-7" inkscape:connector-curvature="0"/>
        <path inkscape:connector-curvature="0" id="path3576" d="m 1063.2788,-782.63692 -12.6808,-2.86282" style="display:inline;opacity:1;fill:none;stroke:#ff00ff;stroke-width:0.17638889;stroke-linecap:butt;stroke-linejoin:miter;stroke-miterlimit:4;stroke-dasharray:none;stroke-opacity:1;image-rendering:auto"/>
        <path style="display:inline;opacity:1;fill:none;stroke:#ff00ff;stroke-width:0.17638889;stroke-linecap:butt;stroke-linejoin:miter;stroke-miterlimit:4;stroke-dasharray:none;stroke-opacity:1;image-rendering:auto" d="m 1088.6405,-776.91126 -12.6809,-2.86282" id="path3578" inkscape:connector-curvature="0"/>
        <path inkscape:connector-curvature="0" id="path3580" d="m 1114.0023,-771.18562 -12.6808,-2.86282" style="display:inline;opacity:1;fill:none;stroke:#ff00ff;stroke-width:0.17638889;stroke-linecap:butt;stroke-linejoin:miter;stroke-miterlimit:4;stroke-dasharray:none;stroke-opacity:1;image-rendering:auto"/>
        <path style="display:inline;opacity:1;fill:none;stroke:#ff00ff;stroke-width:0.17638889;stroke-linecap:butt;stroke-linejoin:miter;stroke-miterlimit:4;stroke-dasharray:none;stroke-opacity:1;image-rendering:auto" d="m 1139.3639,-765.45993 -12.6808,-2.86285" id="path3582" inkscape:connector-curvature="0"/>
        <path inkscape:connector-curvature="0" id="path3584-6" d="m 1164.7257,-759.73432 -12.6808,-2.86282" style="display:inline;opacity:1;fill:none;stroke:#ff00ff;stroke-width:0.17638889;stroke-linecap:butt;stroke-linejoin:miter;stroke-miterlimit:4;stroke-dasharray:none;stroke-opacity:1;image-rendering:auto"/>
        <path style="display:inline;opacity:1;fill:none;stroke:#ff00ff;stroke-width:0.17638889;stroke-linecap:butt;stroke-linejoin:miter;stroke-miterlimit:4;stroke-dasharray:none;stroke-opacity:1;image-rendering:auto" d="m 1190.0873,-754.00866 -12.6807,-2.86282" id="path3586" inkscape:connector-curvature="0"/>
        <path inkscape:connector-curvature="0" id="path3588" d="m 1215.4491,-748.283 -12.6809,-2.86284" style="display:inline;opacity:1;fill:none;stroke:#ff00ff;stroke-width:0.17638889;stroke-linecap:butt;stroke-linejoin:miter;stroke-miterlimit:4;stroke-dasharray:none;stroke-opacity:1;image-rendering:auto"/>
        <path style="display:inline;opacity:1;fill:none;stroke:#ff00ff;stroke-width:0.17638889;stroke-linecap:butt;stroke-linejoin:miter;stroke-miterlimit:4;stroke-dasharray:none;stroke-opacity:1;image-rendering:auto" d="m 1240.8108,-742.55736 -12.6808,-2.86282" id="path3590-0" inkscape:connector-curvature="0"/>
        <path style="display:inline;opacity:1;fill:none;stroke:#ff00ff;stroke-width:0.17638889;stroke-linecap:butt;stroke-linejoin:miter;stroke-miterlimit:4;stroke-dasharray:none;stroke-opacity:1;image-rendering:auto" d="m 1059.5955,-825.35387 -12.6809,-2.86285" id="path3606" inkscape:connector-curvature="0"/>
        <path inkscape:connector-curvature="0" id="path3608" d="m 1084.9571,-819.62824 -12.6809,-2.86282" style="display:inline;opacity:1;fill:none;stroke:#ff00ff;stroke-width:0.17638889;stroke-linecap:butt;stroke-linejoin:miter;stroke-miterlimit:4;stroke-dasharray:none;stroke-opacity:1;image-rendering:auto"/>
        <path style="display:inline;opacity:1;fill:none;stroke:#ff00ff;stroke-width:0.17638889;stroke-linecap:butt;stroke-linejoin:miter;stroke-miterlimit:4;stroke-dasharray:none;stroke-opacity:1;image-rendering:auto" d="m 1110.3189,-813.90257 -12.6809,-2.86282" id="path3610" inkscape:connector-curvature="0"/>
        <path inkscape:connector-curvature="0" id="path3612-6" d="m 1135.6805,-808.17691 -12.6807,-2.86282" style="display:inline;opacity:1;fill:none;stroke:#ff00ff;stroke-width:0.17638889;stroke-linecap:butt;stroke-linejoin:miter;stroke-miterlimit:4;stroke-dasharray:none;stroke-opacity:1;image-rendering:auto"/>
        <path style="display:inline;opacity:1;fill:none;stroke:#ff00ff;stroke-width:0.17638889;stroke-linecap:butt;stroke-linejoin:miter;stroke-miterlimit:4;stroke-dasharray:none;stroke-opacity:1;image-rendering:auto" d="m 1161.0423,-802.45125 -12.6809,-2.86284" id="path3614" inkscape:connector-curvature="0"/>
        <path inkscape:connector-curvature="0" id="path3616" d="m 1186.4041,-796.72561 -12.6809,-2.86285" style="display:inline;opacity:1;fill:none;stroke:#ff00ff;stroke-width:0.17638889;stroke-linecap:butt;stroke-linejoin:miter;stroke-miterlimit:4;stroke-dasharray:none;stroke-opacity:1;image-rendering:auto"/>
        <path inkscape:connector-curvature="0" id="path3636" d="m 1044.0517,-815.53585 -12.6808,-2.86282" style="display:inline;opacity:1;fill:none;stroke:#ff00ff;stroke-width:0.17638889;stroke-linecap:butt;stroke-linejoin:miter;stroke-miterlimit:4;stroke-dasharray:none;stroke-opacity:1;image-rendering:auto"/>
        <path style="display:inline;opacity:1;fill:none;stroke:#ff00ff;stroke-width:0.17638889;stroke-linecap:butt;stroke-linejoin:miter;stroke-miterlimit:4;stroke-dasharray:none;stroke-opacity:1;image-rendering:auto" d="m 1069.4135,-809.81018 -12.6809,-2.86285" id="path3638" inkscape:connector-curvature="0"/>
        <path inkscape:connector-curvature="0" id="path3640" d="m 1094.7751,-804.08452 -12.6809,-2.86285" style="display:inline;opacity:1;fill:none;stroke:#ff00ff;stroke-width:0.17638889;stroke-linecap:butt;stroke-linejoin:miter;stroke-miterlimit:4;stroke-dasharray:none;stroke-opacity:1;image-rendering:auto"/>
        <path style="display:inline;opacity:1;fill:none;stroke:#ff00ff;stroke-width:0.17638889;stroke-linecap:butt;stroke-linejoin:miter;stroke-miterlimit:4;stroke-dasharray:none;stroke-opacity:1;image-rendering:auto" d="m 1120.1369,-798.35889 -12.6808,-2.86281" id="path3642" inkscape:connector-curvature="0"/>
        <path inkscape:connector-curvature="0" id="path3644" d="m 1145.4985,-792.63322 -12.6807,-2.86282" style="display:inline;opacity:1;fill:none;stroke:#ff00ff;stroke-width:0.17638889;stroke-linecap:butt;stroke-linejoin:miter;stroke-miterlimit:4;stroke-dasharray:none;stroke-opacity:1;image-rendering:auto"/>
        <path style="display:inline;opacity:1;fill:none;stroke:#ff00ff;stroke-width:0.17638889;stroke-linecap:butt;stroke-linejoin:miter;stroke-miterlimit:4;stroke-dasharray:none;stroke-opacity:1;image-rendering:auto" d="m 1170.8604,-786.90759 -12.681,-2.86279" id="path3646" inkscape:connector-curvature="0"/>
        <path inkscape:connector-curvature="0" id="path3648-2" d="m 1196.2221,-781.18192 -12.6809,-2.86285" style="display:inline;opacity:1;fill:none;stroke:#ff00ff;stroke-width:0.17638889;stroke-linecap:butt;stroke-linejoin:miter;stroke-miterlimit:4;stroke-dasharray:none;stroke-opacity:1;image-rendering:auto"/>
        <path style="display:inline;opacity:1;fill:none;stroke:#ff00ff;stroke-width:0.17638889;stroke-linecap:butt;stroke-linejoin:miter;stroke-miterlimit:4;stroke-dasharray:none;stroke-opacity:1;image-rendering:auto" d="m 1091.0917,-846.8015 -12.6807,-2.86279" id="path3670" inkscape:connector-curvature="0"/>
        <path inkscape:connector-curvature="0" id="path3672" d="m 1116.4535,-841.07584 -12.6809,-2.86284" style="display:inline;opacity:1;fill:none;stroke:#ff00ff;stroke-width:0.17638889;stroke-linecap:butt;stroke-linejoin:miter;stroke-miterlimit:4;stroke-dasharray:none;stroke-opacity:1;image-rendering:auto"/>
        <path style="display:inline;opacity:1;fill:none;stroke:#ff00ff;stroke-width:0.17638889;stroke-linecap:butt;stroke-linejoin:miter;stroke-miterlimit:4;stroke-dasharray:none;stroke-opacity:1;image-rendering:auto" d="m 1141.8153,-835.35018 -12.6809,-2.86284" id="path3674-6-4" inkscape:connector-curvature="0"/>
        <path inkscape:connector-curvature="0" id="path3700" d="m 1075.5481,-836.98348 -12.6808,-2.86279" style="display:inline;opacity:1;fill:none;stroke:#ff00ff;stroke-width:0.17638889;stroke-linecap:butt;stroke-linejoin:miter;stroke-miterlimit:4;stroke-dasharray:none;stroke-opacity:1;image-rendering:auto"/>
        <path style="display:inline;opacity:1;fill:none;stroke:#ff00ff;stroke-width:0.17638889;stroke-linecap:butt;stroke-linejoin:miter;stroke-miterlimit:4;stroke-dasharray:none;stroke-opacity:1;image-rendering:auto" d="m 1100.9097,-831.25781 -12.6807,-2.86282" id="path3702-1" inkscape:connector-curvature="0"/>
        <path inkscape:connector-curvature="0" id="path3704" d="m 1126.2715,-825.53215 -12.6809,-2.86282" style="display:inline;opacity:1;fill:none;stroke:#ff00ff;stroke-width:0.17638889;stroke-linecap:butt;stroke-linejoin:miter;stroke-miterlimit:4;stroke-dasharray:none;stroke-opacity:1;image-rendering:auto"/>
        <path style="display:inline;opacity:1;fill:none;stroke:#ff00ff;stroke-width:0.17638889;stroke-linecap:butt;stroke-linejoin:miter;stroke-miterlimit:4;stroke-dasharray:none;stroke-opacity:1;image-rendering:auto" d="m 1151.6333,-819.80649 -12.6809,-2.86284" id="path3706" inkscape:connector-curvature="0"/>
        <path inkscape:connector-curvature="0" id="path3708" d="m 1176.9949,-814.08085 -12.6809,-2.86282" style="display:inline;opacity:1;fill:none;stroke:#ff00ff;stroke-width:0.17638889;stroke-linecap:butt;stroke-linejoin:miter;stroke-miterlimit:4;stroke-dasharray:none;stroke-opacity:1;image-rendering:auto"/>
        <path style="display:inline;opacity:1;fill:none;stroke:#ff00ff;stroke-width:0.17638889;stroke-linecap:butt;stroke-linejoin:miter;stroke-miterlimit:4;stroke-dasharray:none;stroke-opacity:1;image-rendering:auto" d="m 1132.4061,-852.70541 -12.6809,-2.86285" id="path3766-8" inkscape:connector-curvature="0"/>
        <path style="display:inline;opacity:0.5380711;fill:none;fill-opacity:1;stroke:#ff00ff;stroke-width:0.17638889;stroke-linecap:butt;stroke-linejoin:miter;stroke-miterlimit:4;stroke-dasharray:none;stroke-opacity:1" d="m 1015.7652,-515.92644 c -19.68463,-9.90018 -23.86747,-12.695 -52.91447,-28.20088 -2.3739,-1.26722 -3.5977,-3.98931 -0.6058,-5.80671 16.718,-10.15489 35.23014,-16.81649 63.16767,-36.3764 18.8433,-13.1927 30.1071,-21.39309 78.1356,-75.8881 7.0063,-7.9496 7.8938,-19.2835 2.2812,-25.20781 -33.927,-35.81114 -48.6799,-49.34527 -74.9967,-77.24018 -4.9884,-5.28749 -5.6989,-4.6037 -8.711,-6.68211 -9.0102,-6.21739 -12.082,-9.42049 -21.9369,-26.22203 -2.81943,-4.80679 -0.52543,-7.0643 4.0256,-6.99617 15.7642,0.2359 22.8212,-5.98887 28.1689,-18.98642 4.5627,-11.08988 2.2147,-5.30418 11.3868,-24.6448 1.8986,-4.00359 6.9499,-6.65641 11.3752,-6.87753 17.7421,-0.88653 23.5533,-0.36951 40.3953,-0.47132 5.1997,-0.0315 10.5492,-1.34956 15.1239,-3.82138 5.077,-2.74333 7.3506,-5.25518 10.5983,-7.98288 3.4982,-2.93796 8.5298,-0.43426 11.9901,2.85295 50.2888,47.77529 84.2119,81.97739 127.1609,134.50258 2.9067,3.55478 2.0369,5.05915 1.1569,7.39317 -2.2975,6.09325 -1.7807,10.47425 0.3695,14.98412 4.3113,9.04277 -1.4027,9.76424 -5.1811,11.82249 -67.1639,36.58751 -96.1041,62.91172 -197.4493,132.32773 -3.958,2.711 -6.2233,4.82229 -14.3774,0.65439 -6.0805,-3.1079 -7.7074,-3.844 -12.6928,2.2402 -3.8285,4.67199 -5.5779,9.0913 -6.6928,14.20559 -3.2163,14.75501 -2.918,17.88231 -3.6508,28.27742 -0.2083,2.95558 -4.4429,2.9346 -6.1268,2.14408 z" id="path4702-1" inkscape:connector-curvature="0" sodipodi:nodetypes="cssssssssssssssssssssssssssc"/>
        <path sodipodi:nodetypes="ssssssssssssssssss" inkscape:connector-curvature="0" id="path187-8" d="m 937.36513,-549.22674 c 9.5604,4.28561 13.2289,1.3413 17.987,-1.07389 37.26934,-18.91811 34.4982,-19.1506 54.87017,-30.6632 6.2144,-3.5119 9.8276,-5.58951 17.5429,-11.5879 27.1068,-21.0747 26.9488,-23.45931 72.4319,-73.23871 3.9666,-4.34147 6.227,-12.94937 1.3702,-18.24895 -76.1273,-83.07085 -139.37757,-143.43224 -210.31502,-212.36582 -3.1669,-3.07743 -5.22909,-6.15329 -12.02859,-6.93698 -4.46839,-0.51504 -6.0261,0.80356 -13.15027,-4.35835 -6.4991,-4.709 -21.0733,-7.00021 -31.4959,-5.92976 -7.1106,0.73033 -12.025,5.84895 -13.3963,13.99508 -6.8031,40.41074 -6.5734,44.32882 -11.4312,98.9362 -0.7515,8.44836 -3.6085,15.86495 -9.573,21.89525 -26.5761,26.86918 -30.6555,30.84436 -68.2585,70.07318 -11.8808,12.39438 -16.4297,31.52243 -12.8677,37.1099 7.5833,11.89574 10.6217,14.59717 17.4808,22.49905 4.4259,5.0986 13.879,8.8959 17.7341,10.82612 64.8403,32.4657 106.8681,54.89689 183.09941,89.06878 z" style="display:inline;opacity:0.70200004;fill:none;fill-opacity:1;stroke:#ff00ff;stroke-width:0.17638889;stroke-linecap:butt;stroke-linejoin:miter;stroke-miterlimit:4;stroke-dasharray:none;stroke-opacity:1"/>
        <path sodipodi:nodetypes="sssssssssss" inkscape:connector-curvature="0" id="path917-5" d="m 996.72607,-606.95922 c -39.49434,-37.17311 -53.65344,-50.80133 -90.04268,-101.46808 -1.2033,-1.67534 -1.5775,-3.67305 1.72339,-2.81234 33.12665,8.63799 51.19675,17.50481 77.10925,27.94717 2.5096,1.01137 4.0283,1.81938 8.05144,2.42769 22.72323,3.43577 25.88463,3.56595 44.68163,6.62291 2.5211,0.41 2.4762,3.18223 0.095,3.1064 -29.903,-0.95218 -40.07883,-3.28507 -64.71127,-4.20405 -14.6706,-0.54731 -10.6975,15.84489 -5.556,22.75028 12.0896,16.237 30.10354,31.11881 40.11857,38.8602 6.23,4.8156 -3.1266,14.62202 -11.46913,6.76982 z" style="display:inline;opacity:0.70200004;fill:none;fill-opacity:1;stroke:#ff00ff;stroke-width:0.17638889;stroke-linecap:butt;stroke-linejoin:miter;stroke-miterlimit:4;stroke-dasharray:none;stroke-opacity:1"/>
        <path sodipodi:nodetypes="ssssssssssass" inkscape:connector-curvature="0" id="path919-9" d="m 1034.9653,-714.3368 c 4.8876,2.27439 5.9817,-1.07108 2.267,-3.73396 -18.1899,-13.03954 -36.7024,-18.82185 -60.10827,-29.40177 -2.6871,-1.21462 -4.9008,-2.74992 -6.8449,-4.90947 -4.7947,-5.32625 -6.2412,-8.06966 -9.5562,-13.59186 -0.9274,-1.54493 -1.8322,-2.92499 0.4482,-4.4409 4.8209,-3.20484 8.507,-5.95741 14.1637,-10.04998 3.5615,-2.57665 0.5468,-3.15175 -2.2915,-2.09619 -27.525,10.2363 -35.7349,11.38549 -52.03685,16.32222 -7.3863,2.23684 -8.02468,3.96576 -2.84729,6.47325 14.28574,6.91872 29.90674,10.64916 44.88964,15.88965 6.2063,2.17075 12.6102,3.82818 18.6431,6.44245 20.43087,8.85346 33.92177,14.0916 53.27337,23.09656 z" style="display:inline;opacity:0.70200004;fill:none;fill-opacity:1;stroke:#ff00ff;stroke-width:0.17638889;stroke-linecap:butt;stroke-linejoin:miter;stroke-miterlimit:4;stroke-dasharray:none;stroke-opacity:1"/>
      </g>
    </g>
  </g>
</svg>
