<?xml version="1.0" encoding="UTF-8" standalone="no"?>
<!-- Created with Inkscape (http://www.inkscape.org/) -->
<svg xmlns:dc="http://purl.org/dc/elements/1.1/" xmlns:cc="http://creativecommons.org/ns#" xmlns:rdf="http://www.w3.org/1999/02/22-rdf-syntax-ns#" xmlns:svg="http://www.w3.org/2000/svg" xmlns="http://www.w3.org/2000/svg" xmlns:sodipodi="http://sodipodi.sourceforge.net/DTD/sodipodi-0.dtd" xmlns:inkscape="http://www.inkscape.org/namespaces/inkscape" width="480mm" height="300mm" viewBox="0 0 480.00001 300.00001" version="1.1" id="svg1161" inkscape:version="0.92.3 (2405546, 2018-03-11)" sodipodi:docname="yz-rear-fender-15.svg">
  <defs id="defs1155"/>
  <sodipodi:namedview id="base" pagecolor="#ffffff" bordercolor="#666666" borderopacity="1.0" inkscape:pageopacity="0.0" inkscape:pageshadow="2" inkscape:zoom="0.47303923" inkscape:cx="527.99999" inkscape:cy="815.99998" inkscape:document-units="mm" inkscape:current-layer="layer1" showgrid="false" inkscape:pagecheckerboard="true" gridtolerance="1" guidetolerance="1" inkscape:window-width="1920" inkscape:window-height="1043" inkscape:window-x="0" inkscape:window-y="0" inkscape:window-maximized="1" units="mm" objecttolerance="1" width="500mm"/>
  <metadata id="metadata1158">
    <rdf:RDF>
      <cc:Work rdf:about="">
        <dc:format>image/svg+xml</dc:format>
        <dc:type rdf:resource="http://purl.org/dc/dcmitype/StillImage"/>
        <dc:title>@@title@@</dc:title>
        <dc:creator>
          <cc:Agent>
            <dc:title>x3300 &lt;x3300x@gmail.com&gt;</dc:title>
          </cc:Agent>
        </dc:creator>
        <dc:description>
Fabricators Design License draft v10.11.20

Copyright x3300 &lt;x3300x@gmail.com&gt;

Permission is hereby granted, free of charge, to any person obtaining
a copy of this design and associated documentation (the _Design_), to
deal in the Design without restriction, including without limitation
the rights to use, copy, modify, merge, publish, distribute,
sublicense, and/or sell copies of the Design, and to permit persons to
whom the Design is furnished to do so, subject to the following
conditions:

 The above copyright notice and this permission notice shall be
 included in all copies or substantial portions of the Design.

 If you modify the Design including creating additional or alternate
 documentation formats (images, drawings, text documents, etc.), you
 may copy and distribute your modified version of the Design in any
 form provided that you also do one of the following:

  Accompany the modified version of the Design with documentation
  which corresponds to and completely describes the modified version
  of the Design; or,

  Accompany the modified version of the Design with a written offer
  for documentation which corresponds to and completely describes the
  modified version of the Design.

THE DESIGN IS PROVIDED _AS IS_, WITHOUT WARRANTY OF ANY KIND,
EXPRESS OR IMPLIED, INCLUDING BUT NOT LIMITED TO THE WARRANTIES OF
MERCHANTABILITY, FITNESS FOR A PARTICULAR PURPOSE AND NONINFRINGEMENT.
IN NO EVENT SHALL THE AUTHORS OR COPYRIGHT HOLDERS BE LIABLE FOR ANY
CLAIM, DAMAGES OR OTHER LIABILITY, WHETHER IN AN ACTION OF CONTRACT,
TORT OR OTHERWISE, ARISING FROM, OUT OF OR IN CONNECTION WITH THE
DESIGN OR THE USE OR OTHER DEALINGS IN THE DESIGN.
        </dc:description>
        <dc:date>@@date@@</dc:date>
        <dc:rights>
          <cc:Agent>
            <dc:title>All Rights Reserved</dc:title>
          </cc:Agent>
        </dc:rights>
        <dc:publisher>
          <cc:Agent>
            <dc:title>@@publisher@@</dc:title>
          </cc:Agent>
        </dc:publisher>
        <dc:identifier>@@identifier@@</dc:identifier>
        <dc:source>@@source@@</dc:source>
        <dc:relation>@@relation@@</dc:relation>
        <dc:language>@@language@@</dc:language>
        <dc:subject>
          <rdf:Bag>
            <rdf:li>@@keywords@@</rdf:li>
          </rdf:Bag>
        </dc:subject>
        <dc:coverage>@@coverage@@</dc:coverage>
        <dc:contributor>
          <cc:Agent>
            <dc:title>@@contributors@@</dc:title>
          </cc:Agent>
        </dc:contributor>
        <cc:license rdf:resource="Fabricators Design License"/>
      </cc:Work>
    </rdf:RDF>
  </metadata>
  <g inkscape:groupmode="layer" id="layer2" inkscape:label="print" transform="translate(0,3.0000121)">
    <path inkscape:connector-curvature="0" style="display:inline;opacity:1;fill:#001aff;fill-opacity:1;stroke:#ff00ff;stroke-width:0.25;stroke-miterlimit:4;stroke-dasharray:none;stroke-dashoffset:0;stroke-opacity:1;paint-order:fill markers stroke" d="m 48.435917,6.7635442 c -4.606097,-0.04899 -8.923587,1.827789 -13.135116,4.3087808 -4.211528,2.480992 -8.236697,5.703877 -11.522811,9.097636 -3.286114,3.393759 -5.930744,6.724247 -6.973214,10.790556 -0.46569,1.816469 -0.53188,4.115228 0.52606,6.185153 -0.28715,0.140153 -0.57304,0.290809 -0.85214,0.473356 -2.57561,1.684602 -3.71887,4.530219 -4.1584,7.420737 -0.83093,5.46441 -2.14474,12.109934 -3.3791296,19.530073 -1.58392,9.521248 0.22766,17.736691 5.0405196,22.713861 4.1645,4.30666 4.30824,3.9755 6.61149,10.1725 -0.0764,-0.20558 0.55932,2.48282 0.96686,4.787823 0.40755,2.305 0.63056,4.26168 1.3069,6.27145 5.502761,16.35159 8.161555,31.45907 7.942666,40.67969 a 4.6919393,4.6919393 0 0 0 0,0.22221 c 0.218889,9.22062 -2.439905,24.32809 -7.942666,40.67968 -0.67634,2.00977 -0.89935,3.96645 -1.3069,6.27146 -0.40754,2.305 -1.04327,4.99339 -0.96686,4.78782 -2.30325,6.197 -2.44699,5.86583 -6.61149,10.17251 -4.8130396,4.97734 -6.6244396,13.19309 -5.0405196,22.71437 1.2343996,7.42017 2.5482096,14.06519 3.3791296,19.52956 0.43952,2.89049 1.58298,5.73594 4.1584,7.42073 0.27939,0.18277 0.56519,0.33359 0.85266,0.47388 -0.0224,0.0433 -0.0523,0.0805 -0.0739,0.12454 -1.31603,2.68503 -0.81006,5.36061 0.0124,7.51323 1.64494,4.30524 4.99343,8.12323 9.056298,11.79671 4.062869,3.67344 8.84102,6.98756 13.698389,9.03665 4.857369,2.04907 10.521132,3.26507 15.141194,-0.26511 9.114808,-6.9646 31.305431,-18.79536 54.445253,-29.03491 23.13983,-10.23956 47.75995,-19.10956 61.45155,-21.13463 63.90169,-9.45143 105.41137,-12.144 226.41308,-27.22366 5.05603,-0.6301 7.92895,-1.99489 11.01275,-3.26544 a 4.6919393,4.6919393 0 0 0 1.23611,-0.75241 4.6919393,4.6919393 0 0 0 1.42576,-0.57774 c 2.36839,-1.4575 5.16345,-3.83846 8.85269,-7.11171 3.68922,-3.27324 8.06696,-7.34996 12.685,-11.75173 9.23607,-8.80356 19.42211,-18.89938 26.74514,-26.28626 2.44245,-2.46374 4.37848,-6.17546 4.74337,-11.01586 a 4.6919393,4.6919393 0 0 0 -0.37618,-2.21589 4.6919393,4.6919393 0 0 0 0.37618,-2.20917 c -0.36489,-4.84036 -2.30063,-8.55235 -4.74337,-11.01638 -7.32306,-7.38689 -17.50904,-17.48282 -26.74514,-26.28625 -4.61804,-4.40171 -8.99578,-8.47802 -12.685,-11.751223 -3.68924,-3.27319 -6.48433,-5.65423 -8.85269,-7.11171 a 4.6919393,4.6919393 0 0 0 -1.42939,-0.57619 4.6919393,4.6919393 0 0 0 -1.23248,-0.75396 c -3.0838,-1.27054 -5.95672,-2.63533 -11.01275,-3.26543 C 276.47393,71.253193 234.96425,68.560107 171.06254,59.108669 157.37094,57.083601 132.75082,48.213599 109.61099,37.974044 86.471168,27.734486 64.280545,15.903734 55.165739,8.9391222 53.144344,7.3945782 50.698504,6.7876092 48.435917,6.7635442 Z M 68.990734,55.183845 c 9.037926,7.86098 16.63558,21.07805 18.081067,34.504352 0.351999,3.26953 -0.07054,4.90573 -0.619601,5.80378 -0.532022,0.87019 -1.488165,1.65034 -3.842142,2.45618 -2.90009,-3.11826 -7.281346,-8.67356 -10.489282,-15.61403 -3.48457,-7.538968 -5.531016,-16.445282 -3.319179,-25.737449 0.11122,-0.467249 0.163055,-0.939813 0.189137,-1.412833 z m -8.15299,77.621095 c 4.319262,5e-5 8.611773,1.77809 11.665953,4.83227 3.054181,3.05418 4.832223,7.34669 4.832263,11.66595 -4e-5,4.31927 -1.778082,8.61178 -4.832263,11.66596 -3.05418,3.05418 -7.346691,4.83222 -11.665953,4.83226 -4.319336,7e-5 -8.612203,-1.77807 -11.666471,-4.83226 -3.054271,-3.05419 -4.832223,-7.34662 -4.832265,-11.66596 4.2e-5,-4.31933 1.777994,-8.61176 4.832265,-11.66595 3.054268,-3.05419 7.347138,-4.83234 11.666471,-4.83227 z m 21.772314,67.85995 c 6.17932,4.20377 5.232125,4.00158 4.461743,8.25996 -1.445487,13.4263 -9.043141,26.64337 -18.081067,34.50435 -0.02609,-0.47302 -0.07791,-0.94558 -0.189137,-1.41283 -2.211837,-9.29216 -0.165391,-18.19848 3.319179,-25.73745 3.207936,-6.94047 7.589192,-12.49578 10.489282,-15.61403 z" id="path460"/>
    <path inkscape:connector-curvature="0" style="display:inline;opacity:1;fill:none;fill-opacity:1;stroke:#ff00ff;stroke-width:0.25;stroke-miterlimit:4;stroke-dasharray:none;stroke-dashoffset:0;stroke-opacity:1;paint-order:fill markers stroke" d="m 48.385791,11.454731 c -12.35548,-0.131413 -36.432555,23.591238 -23.535515,25.44961 13.335013,1.921481 22.913504,0.859888 39.334548,9.29504 13.663401,7.018605 25.565822,24.544661 27.55129,42.986516 0.826191,7.67403 -1.623547,11.236663 -7.856368,13.294283 -1.2973,0.42828 -2.656382,0.82607 -3.838006,-0.38085 C 73.672748,95.593997 59.199347,76.676384 64.237534,55.510439 64.931891,52.593376 62.508501,50.435998 59.400104,49.551115 44.175927,45.217163 27.79781,42.635449 23.077776,41.303039 c -3.25259,-0.918165 -5.45682,0.08396 -6.11952,4.442106 -0.85583,5.628206 -2.16939,12.260582 -3.38946,19.594671 -1.39589,8.39093 0.59933,15.387841 3.7853,18.682581 4.14297,4.28441 5.2299,5.32356 7.63674,11.79927 0.721275,1.94063 1.675503,9.275163 2.322339,11.197253 5.629864,16.72928 8.428496,32.09664 8.18658,42.28734 0.241916,10.1907 -2.556716,25.55807 -8.18658,42.28734 -0.646836,1.9221 -1.601064,9.25662 -2.322339,11.19726 -2.40684,6.47571 -3.49377,7.51486 -7.63674,11.79927 -3.18597,3.29473 -5.18119,10.29217 -3.7853,18.6831 1.22007,7.33408 2.53363,13.96595 3.38946,19.59415 0.6627,4.35815 2.86693,5.36079 6.11952,4.44263 4.720034,-1.33241 21.098151,-3.91413 36.322328,-8.24808 3.108397,-0.88489 5.531787,-3.04226 4.83743,-5.95932 -5.038187,-21.16594 9.435214,-40.08356 15.804206,-46.58889 1.181624,-1.20692 2.540706,-0.80914 3.838006,-0.38086 6.232821,2.05762 8.682559,5.62025 7.856368,13.29428 -1.985468,18.44186 -13.887889,35.96792 -27.55129,42.98653 -16.421044,8.43515 -25.999535,7.37356 -39.334548,9.29504 -14.48089,2.08658 17.651454,31.73686 27.467057,24.23677 19.87959,-15.18997 88.487567,-46.7089 118.058937,-51.08268 64.06473,-9.47554 105.58006,-12.16629 226.51901,-27.23813 4.51895,-0.56317 6.56511,-1.61231 9.80612,-2.94763 -2.03674,-3.78133 -3.07446,-6.38667 -6.51433,-12.93719 4.41124,5.93954 6.17603,8.37142 8.50439,11.94914 6.73741,-4.14616 32.81752,-29.73751 47.41003,-44.45723 1.98803,-2.00535 3.08576,-3.94039 3.39669,-8.06515 -4.06283,-0.50195 -8.35093,-1.03603 -14.9934,-1.86035 6.65678,-0.81001 10.93057,-1.35787 14.9934,-1.85983 -0.31093,-4.12475 -1.40866,-6.06031 -3.39669,-8.06566 -14.59251,-14.71972 -40.67262,-40.310563 -47.41003,-44.456723 -2.32836,3.57772 -4.09315,6.009603 -8.50439,11.949153 3.43987,-6.55052 4.47759,-9.155873 6.51433,-12.937203 -3.24101,-1.33532 -5.28717,-2.38446 -9.80612,-2.94762 C 275.95633,75.91654 234.441,73.225278 170.37627,63.749731 140.8049,59.375951 72.196923,27.857028 52.317333,12.66706 51.243752,11.846737 49.903129,11.470869 48.385791,11.454731 Z M 60.837744,129.30335 a 20,20 0 0 1 19.999812,19.99981 20,20 0 0 1 -19.999812,19.99982 20,20 0 0 1 -20.00033,-19.99982 20,20 0 0 1 20.00033,-19.99981 z" id="path431"/>
    <path style="display:inline;opacity:1;fill:none;fill-opacity:1;stroke:#000000;stroke-width:0.5;stroke-miterlimit:4;stroke-dasharray:none;stroke-dashoffset:0;stroke-opacity:1;paint-order:fill markers stroke" d="M 28.112445,149.30313 H 466.05205" id="path435" inkscape:connector-curvature="0" sodipodi:nodetypes="cc"/>
    <path inkscape:connector-curvature="0" style="display:inline;opacity:1;fill:none;fill-opacity:1;stroke:#ff00ff;stroke-width:0.25;stroke-miterlimit:4;stroke-dasharray:none;stroke-dashoffset:0;stroke-opacity:1;paint-order:fill markers stroke" d="m 60.837744,129.30335 a 20,20 0 0 1 19.999812,19.99981 20,20 0 0 1 -19.999812,19.99982 20,20 0 0 1 -20.00033,-19.99982 20,20 0 0 1 20.00033,-19.99981 z" id="path442"/>
  </g>
  <g inkscape:label="cut" inkscape:groupmode="layer" id="layer1" transform="translate(0,3.0000121)">
    <path inkscape:connector-curvature="0" style="display:inline;opacity:1;fill:none;fill-opacity:1;stroke:#ff00ff;stroke-width:0.25;stroke-miterlimit:4;stroke-dasharray:none;stroke-dashoffset:0;stroke-opacity:1;paint-order:fill markers stroke" d="m 48.385791,11.454731 c -12.35548,-0.131413 -36.432555,23.591238 -23.535515,25.44961 13.335013,1.921481 22.913504,0.859888 39.334548,9.29504 13.663401,7.018605 25.565822,24.544661 27.55129,42.986516 0.826191,7.67403 -1.623547,11.236663 -7.856368,13.294283 -1.2973,0.42828 -2.656382,0.82607 -3.838006,-0.38085 C 73.672748,95.593997 59.199347,76.676384 64.237534,55.510439 64.931891,52.593376 62.508501,50.435998 59.400104,49.551115 44.175927,45.217163 27.79781,42.635449 23.077776,41.303039 c -3.25259,-0.918165 -5.45682,0.08396 -6.11952,4.442106 -0.85583,5.628206 -2.16939,12.260582 -3.38946,19.594671 -1.39589,8.39093 0.59933,15.387841 3.7853,18.682581 4.14297,4.28441 5.2299,5.32356 7.63674,11.79927 0.721275,1.94063 1.675503,9.275163 2.322339,11.197253 5.629864,16.72928 8.428496,32.09664 8.18658,42.28734 0.241916,10.1907 -2.556716,25.55807 -8.18658,42.28734 -0.646836,1.9221 -1.601064,9.25662 -2.322339,11.19726 -2.40684,6.47571 -3.49377,7.51486 -7.63674,11.79927 -3.18597,3.29473 -5.18119,10.29217 -3.7853,18.6831 1.22007,7.33408 2.53363,13.96595 3.38946,19.59415 0.6627,4.35815 2.86693,5.36079 6.11952,4.44263 4.720034,-1.33241 21.098151,-3.91413 36.322328,-8.24808 3.108397,-0.88489 5.531787,-3.04226 4.83743,-5.95932 -5.038187,-21.16594 9.435214,-40.08356 15.804206,-46.58889 1.181624,-1.20692 2.540706,-0.80914 3.838006,-0.38086 6.232821,2.05762 8.682559,5.62025 7.856368,13.29428 -1.985468,18.44186 -13.887889,35.96792 -27.55129,42.98653 -16.421044,8.43515 -25.999535,7.37356 -39.334548,9.29504 -14.48089,2.08658 17.651454,31.73686 27.467057,24.23677 19.87959,-15.18997 88.487567,-46.7089 118.058937,-51.08268 64.06473,-9.47554 105.58006,-12.16629 226.51901,-27.23813 4.51895,-0.56317 6.56511,-1.61231 9.80612,-2.94763 -2.03674,-3.78133 -3.07446,-6.38667 -6.51433,-12.93719 4.41124,5.93954 6.17603,8.37142 8.50439,11.94914 6.73741,-4.14616 32.81752,-29.73751 47.41003,-44.45723 1.98803,-2.00535 3.08576,-3.94039 3.39669,-8.06515 -4.06283,-0.50195 -8.35093,-1.03603 -14.9934,-1.86035 6.65678,-0.81001 10.93057,-1.35787 14.9934,-1.85983 -0.31093,-4.12475 -1.40866,-6.06031 -3.39669,-8.06566 -14.59251,-14.71972 -40.67262,-40.310563 -47.41003,-44.456723 -2.32836,3.57772 -4.09315,6.009603 -8.50439,11.949153 3.43987,-6.55052 4.47759,-9.155873 6.51433,-12.937203 -3.24101,-1.33532 -5.28717,-2.38446 -9.80612,-2.94762 C 275.95633,75.91654 234.441,73.225278 170.37627,63.749731 140.8049,59.375951 72.196923,27.857028 52.317333,12.66706 51.243752,11.846737 49.903129,11.470869 48.385791,11.454731 Z" id="path448"/>
  </g>
</svg>
